<?xml version="1.0" encoding="UTF-8"?>
<svg id="Layer_2" data-name="Layer 2" xmlns="http://www.w3.org/2000/svg" viewBox="0 0 1909.82 48.25">
  <defs>
    <style>
      .cls-1 {
        fill: none;
        stroke: #000;
        stroke-miterlimit: 10;
        stroke-width: 5px;
      }
    </style>
  </defs>
  <g id="Layer_1-2" data-name="Layer 1">
    <path class="cls-1" d="M.87,45.9L100.27,9.02c11.71-4.34,24.55-4.53,36.38-.54l94.61,31.93c10.58,3.57,22,3.81,32.71.67L377.56,7.9c12.36-3.61,25.6-2.73,37.37,2.49l61.31,27.18c12.11,5.37,25.76,6.14,38.39,2.18l101.44-31.81c11.64-3.65,24.17-3.29,35.58,1.03l81.1,30.67c10.77,4.07,22.55,4.63,33.65,1.59l126.84-34.7c10.07-2.76,20.72-2.56,30.68.57l107.03,33.56c10.87,3.41,22.54,3.33,33.37-.24l96.68-31.87c12.21-4.03,25.45-3.6,37.38,1.19l73.01,29.34c11.04,4.43,23.22,5.14,34.7,2l126.04-34.48c10.2-2.79,20.99-2.55,31.05.68l101.77,32.71c11.92,3.83,24.79,3.44,36.46-1.1l73.76-28.74c12.91-5.03,27.25-4.95,40.1.21l67.84,27.26c13.23,5.32,28.02,5.23,41.19-.23l84.56-35.07"/>
  </g>
</svg>