<?xml version="1.0" encoding="UTF-8"?>
<svg id="Layer_1" data-name="Layer 1" xmlns="http://www.w3.org/2000/svg" version="1.1" viewBox="0 0 310 116.69">
  <defs>
    <style>
      .cls-1 {
        fill: none;
        stroke: #000;
        stroke-miterlimit: 10;
        stroke-width: 15px;
      }
    </style>
  </defs>
  <path class="cls-1" d="M1.66,28.33C91.88,11.44,184.17,5.58,275.8,10.91c6.35.37,13.01.89,18.37,4.33,5.36,3.44,8.74,10.81,5.66,16.38-1.81,3.26-5.32,5.16-8.76,6.57-14.51,5.96-30.62,6.29-46.31,6.71-58.07,1.56-116.07,5.56-173.8,12-.05,0-.1.01-.16.02-6.72.8-7.7,10.18-1.34,12.5,31.99,11.7,68.86,4.95,103.27,9.28,7.64.96,15.63,2.68,21.34,7.86,4.32,3.92,6.69,10.37,5.43,15.82-.66,2.86-3.27,4.85-6.2,4.88-13.66.15-25.63-13.59-51.71-2.67"/>
</svg>