<svg xmlns="http://www.w3.org/2000/svg" version="1.1" xmlns:xlink="http://www.w3.org/1999/xlink" xmlns:svgjs="http://svgjs.dev/svgjs" viewBox="0 0 10.290201062316582 6.6055280917323955"><g transform="matrix(0.8242994372721376,0,0,0.8242994372721376,5.145100531158291,4.964902062446798)"><rect width="11.698178491820663" height="11.698178491820663" x="-5.849089245910331" y="-7.8655142747580165" fill="#ffffff"></rect><g transform="matrix(1,0,0,1,0,0)"><path d=" M -2.953909383606793 -0.5068491272051506 Q -2.953909383606793 -0.5068491272051506 -2.9579834884102785 -0.48755141568149546 Q -2.962057593213764 -0.4682537041578402 -2.9650034581470495 -0.4377320416900971 Q -2.9679493230803353 -0.407210379222354 -2.9669347971968367 -0.37274342784524905 Q -2.9659202713133386 -0.33827647646814424 -2.9557430099393707 -0.30793799676124495 Q -2.9477920244909583 -0.28423605949022984 -2.9351187738772495 -0.27161113498027223 Q -2.9224455232635407 -0.2589862104703145 -2.904432050937569 -0.26502895941110793 Q -2.8873666561024383 -0.2707536689339649 -2.8820264343901756 -0.28942134238471606 Q -2.876686212677913 -0.30808901583546716 -2.8775356780894743 -0.3389196565766935 Q -2.8783851435010357 -0.36975029731791975 -2.879099752255504 -0.4127559868755589 Q -2.881128804022501 -0.48168988962976866 -2.871744681321597 -0.5354666340564666 Q -2.8623605586206935 -0.5892433784831644 -2.832232445107998 -0.6267739896714483 Q -2.8021043315953023 -0.6643046008597322 -2.738583139708982 -0.6856132418614775 Q -2.6779061802951833 -0.7059677646094134 -2.629349902831078 -0.6979966970003172 Q -2.580793625366972 -0.6900256293912209 -2.543740073305593 -0.6613196321147863 Q -2.5066865212442138 -0.6326136348383518 -2.480517738038595 -0.5907633685842726 Q -2.454348954832976 -0.5489131023301934 -2.438446983936151 -0.5015092277881632 Q -2.42222697362139 -0.45315727575529247 -2.4145305995797406 -0.39719956112530574 Q -2.4068342255380912 -0.3412418464953191 -2.4078356093859443 -0.2860580877397825 Q -2.408836993233798 -0.23087432898424592 -2.4188632355335433 -0.18215601142968754 L -2.6076997975739524 -0.20740978019315706 Q -2.6076997975739524 -0.20740978019315706 -2.602683656042595 -0.23018780302520708 Q -2.5976675145112376 -0.25296582585725713 -2.5939416529405332 -0.2890229743240445 Q -2.5902157913698285 -0.32508012279083187 -2.5917194579061693 -0.36729373418511424 Q -2.5932231244425106 -0.40950734557939666 -2.6062627405779066 -0.44837852270386136 Q -2.616440001951875 -0.47871700241076065 -2.6284741533482263 -0.48786463599380797 Q -2.6405083047445777 -0.4970122695768553 -2.653781389616346 -0.49255971772574436 Q -2.6736910169239985 -0.48588088994907785 -2.6775970408740624 -0.46136573184431484 Q -2.6815030648241267 -0.4368505737395519 -2.680167479141207 -0.39985440892637725 Q -2.678831893458288 -0.3628582441132026 -2.6784292833587866 -0.3176383601559457 Q -2.6786204667543765 -0.2521787279471619 -2.691022943544193 -0.20582758373822055 Q -2.7034254203340087 -0.15947643952927923 -2.7319874998088975 -0.1298545284486256 Q -2.760549579283786 -0.10023261736797198 -2.809849608807497 -0.08369456763527408 Q -2.884747730583905 -0.058569453618290745 -2.946763296062107 -0.07679223162875869 Q -3.0087788615403097 -0.09501500963922661 -3.054092377323584 -0.1436276138418294 Q -3.099405893106859 -0.1922402180444322 -3.121668652362414 -0.25860564240327444 Q -3.138206702095112 -0.3079056719269858 -3.1417806452295243 -0.3578629229569612 Q -3.145354588363937 -0.4078201739869367 -3.1418058687911072 -0.4538381768705193 Q -3.1382571492182776 -0.4998561797541019 -3.1332651707387957 -0.5352832901479851 L -2.953909383606793 -0.5068491272051506 M -3.1307110416969457 -1.3520504697249236 L -3.114071518022147 -1.1487302143348719 L -2.575870841989657 -1.1927760122975748 L -2.55996541494757 -0.9984257681747314 L -3.0981660909800595 -0.9543799702120284 L -3.081445001012737 -0.7500630469033981 L -3.2508785471711135 -0.736196777174399 L -3.300144587855322 -1.3381841999959243 L -3.1307110416969457 -1.3520504697249236 M -2.585836245368917 -1.4727865071663353 L -3.285408426377643 -1.5940249645909288 L -3.229741190996773 -1.9152369800963434 Q -3.220861754678352 -1.96647325250825 -3.19265681393488 -2.006241095266655 Q -3.1644518731914073 -2.04600893802506 -3.1240089956373276 -2.0714770289457727 Q -3.0835661180832474 -2.0969451198664855 -3.0372240772813965 -2.1066747269664443 Q -2.990882036479545 -2.1164043340664027 -2.946542954584626 -2.108720206483154 Q -2.9061451244136998 -2.1017191124628605 -2.870752333724634 -2.083406538442805 Q -2.835359543035569 -2.0650939644227497 -2.808249628696119 -2.037052877701517 Q -2.78113971435667 -2.009011790980284 -2.7639417854473547 -1.9735543342013475 L -2.4811613518459934 -2.0767833338682347 L -2.5177036474641104 -1.865926366634619 L -2.753846665264077 -1.7799875794409157 L -2.7673365781324475 -1.7021478578920575 L -2.5525383591748385 -1.6649225287109852 L -2.585836245368917 -1.4727865071663353 M -2.9348397764021423 -1.7311767843176644 L -2.913836494341262 -1.8523702748304436 Q -2.9117873936523955 -1.864194030002422 -2.9187768677332517 -1.876569297760052 Q -2.925766341814108 -1.8889445655176822 -2.941235973710536 -1.8992373051427294 Q -2.956705605606964 -1.9095300447677765 -2.980353115950921 -1.9136282461455094 Q -3.004985939225876 -1.917897205913981 -3.022695048908627 -1.9123395594476875 Q -3.040404158591378 -1.906781912981394 -3.0514064548545976 -1.8960023268605661 Q -3.062408751117817 -1.8852227407397384 -3.0644578518066834 -1.87339898556776 L -3.0846073419138693 -1.7571320597099718 L -2.9348397764021423 -1.7311767843176644 M -2.3988128507168187 -2.669397948451779 L -2.243560597907153 -2.600139461625083 L -2.449706446932495 -2.1380356973798427 L -3.0981129145493345 -2.4272917305972195 L -2.8956336912971707 -2.8811762579290074 L -2.7403814384875047 -2.811917771102311 L -2.8634171033208116 -2.53611671022867 L -2.7720922487268904 -2.495376423860025 L -2.666982309895787 -2.7309945487123413 L -2.522689039637392 -2.666624896249883 L -2.6277989784684954 -2.4310067713975663 L -2.5255151413233037 -2.3853776506646844 L -2.3988128507168187 -2.669397948451779 M -2.019259579722745 -3.1861569154859195 L -1.8841808867242382 -3.0829399270692104 L -2.1914032169527964 -2.6808821702618895 L -2.7555554053583258 -3.1119648865904996 L -2.453797503928299 -3.5068714184743697 L -2.318718810929792 -3.40365443005766 L -2.502080755058299 -3.163691104848548 L -2.422622700353295 -3.1029752293093074 L -2.2659757414620536 -3.3079770104482176 L -2.1404320150281473 -3.2120459270962174 L -2.2970789739193886 -3.0070441459573067 L -2.208085952649784 -2.939042365353357 L -2.019259579722745 -3.1861569154859195 M -1.728646687424506 -3.917541171703255 L -1.8865462570473317 -3.788375673550976 L -1.5446375854677699 -3.370406224549378 L -1.6955709976072357 -3.2469392042567584 L -2.037479669186798 -3.6649086532583564 L -2.1961532563077744 -3.5351099908994486 L -2.3037911714346735 -3.6666929655851366 L -1.836284602551405 -4.049124146388943 L -1.728646687424506 -3.917541171703255 M -0.853506073241566 -4.321183574567617 L -1.0427479451885433 -4.245002777105239 L -0.8410928930822477 -3.7440684101867703 L -1.021985858913917 -3.6712485302594966 L -1.2236409110202124 -4.172182897177966 L -1.413810439202224 -4.095628664433909 L -1.4772944370875392 -4.253330224389724 L -0.9169900711268812 -4.4788851345234315 L -0.853506073241566 -4.321183574567617 M -0.5816270163450628 -4.541219048700719 L -0.36605041016898693 -4.573633966093874 L -0.03699121592617327 -3.905131126395889 L -0.23279015181086604 -3.8756900546351334 L -0.29598037008251665 -4.006751095050587 L -0.4828793543360871 -3.978648253824411 L -0.5037442348028146 -3.834948369471259 L -0.7005320542020765 -3.8053586054288835 L -0.5816270163450628 -4.541219048700719 M -0.3459657556447577 -4.130696491214358 L -0.44543848746760906 -4.368549756114588 L -0.4735317290241787 -4.111515186885381 L -0.3459657556447577 -4.130696491214358 M -0.00041708994135772337 -4.25989232996503 Q 0.0065695173057797734 -4.324515756980118 0.03764546984140621 -4.384020254070703 Q 0.06872142237703266 -4.443524751161288 0.12093093067415714 -4.489177431732887 Q 0.17314043897128162 -4.534830112304487 0.24352771350291316 -4.557898089762616 Q 0.31391498803454465 -4.580966067220745 0.39842254643888897 -4.571829734666795 Q 0.499831616524102 -4.560866135602057 0.5708231495263059 -4.510443400234 Q 0.6418146825285097 -4.460020664865945 0.6710762870247957 -4.3864492131859425 L 0.5115459640487264 -4.297078770358623 Q 0.5023832979326293 -4.333273321739251 0.48006747602225974 -4.354796660059891 Q 0.45775165411189034 -4.376319998380529 0.43022291387225287 -4.386839906213707 Q 0.4026941736326153 -4.397359814046885 0.3758505962571177 -4.40026194321108 Q 0.334093920339677 -4.404776366355385 0.30199709659293983 -4.3916502890521345 Q 0.26990027284620266 -4.378524211748886 0.24761111557748108 -4.3537766165475285 Q 0.22532195830875948 -4.329029021346172 0.21232994914262313 -4.297241324074633 Q 0.19933793997648677 -4.265453626803094 0.19579089322024776 -4.232644810010819 Q 0.1918139014026464 -4.195859166940693 0.19909564064515842 -4.160873794660208 Q 0.20637737988767038 -4.125888422379725 0.22440733181486547 -4.097284736716806 Q 0.2424372837420605 -4.068681051053888 0.2711482901305695 -4.050489621419057 Q 0.2998592965190785 -4.032298191784227 0.33763914615866764 -4.028213713701285 Q 0.3644827235341652 -4.025311584537089 0.39323414073452057 -4.0307527249479875 Q 0.421985557934876 -4.036193865358886 0.446894548073993 -4.052611606075847 Q 0.47180353821311005 -4.069029346792808 0.48717357753756296 -4.099554121831534 L 0.635041226874805 -3.9880141815434085 Q 0.6085736031183747 -3.9385726515034913 0.5558804893970927 -3.9070538354350535 Q 0.5031873756758105 -3.875535019366615 0.439450586194971 -3.862812139713205 Q 0.37571379671413174 -3.8500892600597947 0.3150671959768965 -3.85664592224557 Q 0.23652487698932942 -3.8651373372074755 0.17479016404773937 -3.9034951945253638 Q 0.11305545110614931 -3.941853051843252 0.0714736679870431 -3.9991544943437303 Q 0.02989188486793691 -4.056455936844209 0.011082864441709972 -4.1243711100428815 Q -0.007726155984516939 -4.192286283241555 -0.00041708994135772337 -4.25989232996503 M 0.9741680802280746 -3.6839807869537045 Q 0.8991927606674034 -3.714635337297418 0.8496445223276374 -3.7678445665478564 Q 0.8000962839878716 -3.8210537957982953 0.775619514402308 -3.8866997229427516 Q 0.7511427448167445 -3.9523456500872074 0.7519495083768974 -4.021698725956688 Q 0.7527562719370504 -4.09105180182617 0.7788694074150284 -4.154919666637112 Q 0.8057394453706288 -4.220638773906342 0.8549520978414408 -4.269660349123659 Q 0.9041647503122527 -4.318681924340977 0.9681691674857104 -4.347070911330406 Q 1.032173584659168 -4.375459898319836 1.1047024823227767 -4.377135906584065 Q 1.1772313799863854 -4.378811914848294 1.2503554570887685 -4.348914266982202 Q 1.3253307766494395 -4.318259716638489 1.3748790149892054 -4.26505048738805 Q 1.4244272533289715 -4.211841258137612 1.4482519866805572 -4.145921745997989 Q 1.4720767200321432 -4.080002233858367 1.4712699564719902 -4.010649157988886 Q 1.4704631929118372 -3.9412960821194045 1.4447285086726707 -3.8783538385376066 Q 1.4182369219558812 -3.8135603524975203 1.3694870800996415 -3.7643495516607977 Q 1.3207372382434015 -3.7151387508240745 1.256732821069944 -3.686749763834645 Q 1.1927284038964863 -3.6583607768452158 1.1204730912280438 -3.656032732347009 Q 1.0482177785596014 -3.6537046878488026 0.9741680802280746 -3.6839807869537045 M 0.9613855083079352 -4.078135078894191 Q 0.9477612637107293 -4.044812714645004 0.9443393595019924 -4.010019891080565 Q 0.9409174552932557 -3.975227067516125 0.9494009220476387 -3.943129080167581 Q 0.9578843888020216 -3.9110310928190373 0.9802498420893415 -3.88514120098356 Q 1.0026152953766614 -3.8592513091480827 1.0414913870007132 -3.8433563571180094 Q 1.0803674786247648 -3.8274614050879356 1.1151169565492118 -3.8305393563510917 Q 1.149866434473659 -3.8336173076142472 1.1783234575092787 -3.85169209225889 Q 1.2067804805448987 -3.8697668769035327 1.2282519987219451 -3.8971799013111523 Q 1.2497235168989915 -3.9245929257187724 1.2629693102573862 -3.9569896687388155 Q 1.2765935548545921 -3.9903120329880024 1.2798262334439232 -4.0246420459378704 Q 1.2830589120332545 -4.058972058887738 1.2745754452788716 -4.091070046236282 Q 1.2660919785244884 -4.123168033584825 1.2430744890031908 -4.148784340425136 Q 1.2200569994818933 -4.174400647265447 1.1821065290869859 -4.1899171480567095 Q 1.1432304374629338 -4.205812100086783 1.108943770153059 -4.202544923204221 Q 1.074657102843184 -4.19927774632166 1.0461157204318035 -4.182317808525567 Q 1.017574338020423 -4.1653578707294745 0.9961028198433763 -4.137944846321854 Q 0.9746313016663298 -4.110531821914234 0.9613855083079352 -4.078135078894191 M 2.0084489997852835 -3.6137693460984046 Q 2.0084489997852835 -3.6137693460984046 2.001083048131642 -3.63206532260244 Q 1.9937170964780013 -3.6503612991064758 1.9791620441441693 -3.6773501940738402 Q 1.9646069918103375 -3.7043390890412042 1.944565217302105 -3.7323984417522196 Q 1.9245234427938729 -3.7604577944632354 1.8991717970846902 -3.779984546877195 Q 1.879365823874391 -3.7952398222006005 1.8618083129163099 -3.7986652869802846 Q 1.8442508019582287 -3.8020907517599687 1.8326567927124402 -3.787038212120142 Q 1.8216729944795877 -3.7727779114087263 1.8276364961918805 -3.754299906989215 Q 1.8335999979041733 -3.7358219025697035 1.8514791471759 -3.710690527332377 Q 1.8693582964476267 -3.6855591520950504 1.893907349344346 -3.650241394495309 Q 1.9339908983608105 -3.594122689073278 1.9561528805882424 -3.544234348313628 Q 1.9783148628156744 -3.4943460075539776 1.9741995289304677 -3.446394844616951 Q 1.9700841950452612 -3.3984436816799244 1.9292000571785333 -3.345363673476323 Q 1.890146552350614 -3.2946603820579576 1.8453808779344125 -3.274232841969571 Q 1.8006152035182112 -3.253805301881184 1.7538523989738026 -3.2570053192469866 Q 1.707089594429394 -3.2602053366127888 1.6620446992168532 -3.2803847175569905 Q 1.6169998040043123 -3.3005640985011926 1.5773878575837141 -3.3310746491480043 Q 1.5369836722347043 -3.3621954108077525 1.499421627343671 -3.404380630774039 Q 1.4618595824526377 -3.446565850740326 1.431952061914536 -3.4929532435886315 Q 1.4020445413764346 -3.539340636436937 1.3832335427781262 -3.5853856832034943 L 1.5541276959768275 -3.6696008148752957 Q 1.5541276959768275 -3.6696008148752957 1.562649942389832 -3.6478897274756275 Q 1.5711721888028363 -3.626178640075959 1.5881629082463875 -3.594158092722884 Q 1.6051536276899385 -3.5621375453698083 1.629916772135388 -3.5279171322049474 Q 1.6546799165808377 -3.493696719040086 1.687161712645728 -3.4686780675097006 Q 1.7125133583549106 -3.449151315095741 1.7276031385700181 -3.4482577083255395 Q 1.7426929187851257 -3.4473641015553382 1.751235872966233 -3.458455446553106 Q 1.764050304237894 -3.475092464049757 1.7536384744615976 -3.4976278540110917 Q 1.7432266446853013 -3.5201632439724264 1.7215093783625073 -3.5501442436799886 Q 1.699792112039713 -3.5801252433875503 1.674268792299106 -3.6174556619415763 Q 1.6379644100092254 -3.671925762240274 1.6224454447155574 -3.7173285343606404 Q 1.6069264794218894 -3.762731306481007 1.6141466417542347 -3.803242036613832 Q 1.62136680408658 -3.843752766746657 1.6530977767592645 -3.884949191024079 Q 1.7013044467812273 -3.947536066368624 1.7629584708180905 -3.9669469220958167 Q 1.8246124948549536 -3.98635777782301 1.8893237528796236 -3.9712265820716963 Q 1.9540350109042937 -3.956095386320383 2.009491735893131 -3.9133806154148463 Q 2.050688160170553 -3.881649642742162 2.08148411053683 -3.842151422009605 Q 2.112280060903107 -3.802653201277048 2.134966417127763 -3.762458932515843 Q 2.157652773352419 -3.722264663754637 2.173241042854622 -3.690062088486086 L 2.0084489997852835 -3.6137693460984046 M 2.6557150805475733 -3.2443417530808483 L 2.4873706002852956 -2.976220258296817 L 2.8002690471138703 -3.0318490455590377 L 2.919512007861166 -2.8565632323503842 L 2.388968202874384 -2.791962373299227 L 2.194665532572339 -2.6597826762444416 L 2.085546974152644 -2.820185731727832 L 2.2815032842019405 -2.953490362374573 L 2.5370345865962554 -3.4188007464158763 L 2.6557150805475733 -3.2443417530808483 M 2.551714754343273 -1.700431584832552 L 2.916707412342052 -1.7820181009181557 L 2.6340821062782402 -1.8407797922853775 L 2.6113949467250244 -1.942275076862578 L 2.842101560734361 -2.1157814405854882 L 2.477108902735582 -2.0341949244998845 L 2.434570478573302 -2.2244985830821355 L 3.1274709790522675 -2.3793820761858218 L 3.173936026983373 -2.1715119260421325 L 2.881356318933922 -1.9493360622816915 L 3.2409067768183473 -1.871905653299819 L 3.2871536789845184 -1.6650114193539873 L 2.5942531785055536 -1.5101279262503011 L 2.551714754343273 -1.700431584832552 M 3.2850729107073775 -1.1636447671627121 L 3.2687665028993793 -0.9462554825500634 L 2.5438507219838367 -0.7739966349409814 L 2.558661129075505 -0.9714419484882496 L 2.70048812952001 -1.0039242813003237 L 2.7146253362893296 -1.1923948078681705 L 2.579156338889227 -1.2446743520839643 L 2.594041546016712 -1.4431168641845016 L 3.2850729107073775 -1.1636447671627121 M 2.8324427425552954 -1.025113431795518 L 3.0864547831289935 -1.0692369316973405 L 2.842091947175625 -1.153752045167223 L 2.8324427425552954 -1.025113431795518 M 2.8378263936941317 -0.1608050094044906 Q 2.8378263936941317 -0.1608050094044906 2.852713838707458 -0.17374193256941595 Q 2.8676012837207847 -0.1866788557343413 2.888357356058514 -0.20924953275367186 Q 2.9091134283962434 -0.23182020977300255 2.929089504096554 -0.2599263727913774 Q 2.9490655797968643 -0.28803253580975235 2.9592428411708322 -0.31837101551665165 Q 2.967193826619245 -0.3420729527876667 2.964697837379504 -0.3597865079846083 Q 2.962201848139763 -0.37750006318155 2.9441883758137917 -0.3835428121223434 Q 2.9271229809786607 -0.3892675216452004 2.91160549789243 -0.37759671538905226 Q 2.8960880148061996 -0.36592590913290407 2.8781731545595077 -0.3408199779145348 Q 2.8602582943128154 -0.31571404669616543 2.8348936707964913 -0.2809773820048752 Q 2.79494151939587 -0.22476505596812535 2.7550256125730628 -0.18752636127412536 Q 2.715109705750255 -0.15028766658012538 2.668443542504862 -0.13851824824469783 Q 2.621777379259468 -0.1267488299092704 2.5582561873731477 -0.14805747091101573 Q 2.497579227959349 -0.16841199365895165 2.4636527637203227 -0.20405249062852326 Q 2.429726299481296 -0.23969298759809476 2.4174798220189633 -0.2849370346072272 Q 2.405233344556631 -0.3301810816163597 2.409596345472916 -0.3793462544829784 Q 2.413959346389201 -0.428511427349597 2.429861317286026 -0.4759153018916272 Q 2.4460813276007873 -0.5242672539244979 2.4736873289500894 -0.5735461407778182 Q 2.5012933302993914 -0.6228250276311383 2.5353708136126407 -0.6662413279230245 Q 2.5694482969258896 -0.7096576282149106 2.606825929168174 -0.7424739748726441 L 2.742231868995251 -0.6084507251748923 Q 2.742231868995251 -0.6084507251748923 2.724494150746434 -0.5933056483733182 Q 2.7067564324976168 -0.5781605715717442 2.6820399693431036 -0.5516446056430517 Q 2.65732350618859 -0.5251286397143593 2.6330659798720744 -0.4905479743505528 Q 2.608808453555559 -0.4559673089867464 2.5957688374201626 -0.41709613186228167 Q 2.5855915760461947 -0.3867576521553824 2.5896747419941337 -0.37220334846741465 Q 2.5937579079420727 -0.3576490447794468 2.607030992813841 -0.3531964929283359 Q 2.6269406201214935 -0.3465176651516694 2.6448403784607635 -0.3637179166438929 Q 2.6627401368000334 -0.3809181681361165 2.6839853497906057 -0.41123550517262464 Q 2.7052305627811775 -0.4415528422091328 2.732179342624215 -0.47786762246416775 Q 2.771807413843931 -0.5299695991196187 2.809653044068667 -0.5594646541779256 Q 2.8474986742934028 -0.5889597092362325 2.888146251649878 -0.5953647428075218 Q 2.9287938290063535 -0.601769776378811 2.978093858530065 -0.5852317266461131 Q 3.052991980306473 -0.5601066126291299 3.091472628857374 -0.5081716563173931 Q 3.129953277408276 -0.4562367000056564 3.1367840236212343 -0.3901319278165462 Q 3.1436147698341923 -0.32402715562743606 3.121352010578638 -0.2576617312685938 Q 3.1048139608459397 -0.20836170174488244 3.077538080440512 -0.1663554361633195 Q 3.0502622000350845 -0.12434917058175643 3.0196801299376523 -0.08978058674388778 Q 2.98909805984022 -0.05521200290601924 2.9637515586128025 -0.029962153886103904 L 2.8378263936941317 -0.1608050094044906" fill="#070100" fill-rule="nonzero"></path></g><g transform="matrix(1,0,0,1,0,0)"><path d=" M -4.286611816406251 0.22435030226647212 L -4.25711181640625 0.22435030226647212 L -4.10961181640625 0.5793503022664721 L -4.14661181640625 0.5793503022664721 L -4.1926118164062505 0.4683503022664721 L -4.35211181640625 0.4683503022664721 L -4.3976118164062505 0.5793503022664721 L -4.43511181640625 0.5793503022664721 L -4.286611816406251 0.22435030226647212 M -4.2006118164062505 0.4408503022664721 L -4.272111816406251 0.2653503022664721 L -4.344611816406251 0.4408503022664721 L -4.2006118164062505 0.4408503022664721 M -3.9283637695312503 0.581850302266472 Q -3.9703637695312506 0.581850302266472 -3.9993637695312505 0.5668503022664722 Q -4.02836376953125 0.5518503022664721 -4.04536376953125 0.5266003022664721 Q -4.062363769531251 0.5013503022664721 -4.07011376953125 0.4693503022664721 Q -4.07786376953125 0.4373503022664721 -4.07786376953125 0.4033503022664721 L -4.07786376953125 0.22435030226647212 L -4.0433637695312505 0.22435030226647212 L -4.0433637695312505 0.4033503022664721 Q -4.0433637695312505 0.43085030226647214 -4.037613769531251 0.4573503022664721 Q -4.031863769531251 0.4838503022664721 -4.018863769531251 0.5048503022664721 Q -4.00586376953125 0.5258503022664721 -3.98386376953125 0.5381003022664721 Q -3.9618637695312504 0.5503503022664721 -3.9288637695312505 0.5503503022664721 Q -3.8948637695312502 0.5503503022664721 -3.8726137695312506 0.5376003022664722 Q -3.8503637695312505 0.5248503022664721 -3.8376137695312504 0.5038503022664721 Q -3.8248637695312504 0.4828503022664721 -3.8193637695312503 0.4566003022664721 Q -3.8138637695312503 0.4303503022664721 -3.8138637695312503 0.4033503022664721 L -3.8138637695312503 0.22435030226647212 L -3.7788637695312506 0.22435030226647212 L -3.7788637695312506 0.4033503022664721 Q -3.7788637695312506 0.4388503022664721 -3.7868637695312506 0.4713503022664721 Q -3.7948637695312506 0.5038503022664721 -3.8126137695312505 0.5283503022664721 Q -3.8303637695312505 0.5528503022664721 -3.85886376953125 0.5673503022664721 Q -3.8873637695312504 0.581850302266472 -3.9283637695312503 0.581850302266472 M -3.4426113281250004 0.2553503022664721 L -3.5691113281250004 0.2553503022664721 L -3.5691113281250004 0.5793503022664721 L -3.6041113281250006 0.5793503022664721 L -3.6041113281250006 0.2553503022664721 L -3.730611328125 0.2553503022664721 L -3.730611328125 0.22435030226647212 L -3.4426113281250004 0.22435030226647212 L -3.4426113281250004 0.2553503022664721 M -3.1088686523437503 0.22435030226647212 L -3.1088686523437503 0.5793503022664721 L -3.1433686523437503 0.5793503022664721 L -3.1433686523437503 0.41335030226647207 L -3.3538686523437504 0.41335030226647207 L -3.3538686523437504 0.5793503022664721 L -3.38886865234375 0.5793503022664721 L -3.38886865234375 0.22435030226647212 L -3.3538686523437504 0.22435030226647212 L -3.3538686523437504 0.3823503022664721 L -3.1433686523437503 0.3823503022664721 L -3.1433686523437503 0.22435030226647212 L -3.1088686523437503 0.22435030226647212 M -2.7806306152343754 0.5483503022664721 L -2.7806306152343754 0.5793503022664721 L -3.019130615234375 0.5793503022664721 L -3.019130615234375 0.22435030226647212 L -2.785130615234375 0.22435030226647212 L -2.785130615234375 0.2553503022664721 L -2.9841306152343754 0.2553503022664721 L -2.9841306152343754 0.3833503022664721 L -2.810630615234375 0.3833503022664721 L -2.810630615234375 0.4128503022664721 L -2.9841306152343754 0.4128503022664721 L -2.9841306152343754 0.5483503022664721 L -2.7806306152343754 0.5483503022664721 M -2.6788762207031254 0.2888503022664721 L -2.6788762207031254 0.5793503022664721 L -2.713876220703125 0.5793503022664721 L -2.713876220703125 0.22435030226647212 L -2.684876220703125 0.22435030226647212 L -2.4518762207031255 0.520350302266472 L -2.4518762207031255 0.22485030226647212 L -2.4168762207031254 0.22485030226647212 L -2.4168762207031254 0.5793503022664721 L -2.449376220703125 0.5793503022664721 L -2.6788762207031254 0.2888503022664721 M -2.0751398925781253 0.2553503022664721 L -2.2016398925781253 0.2553503022664721 L -2.2016398925781253 0.5793503022664721 L -2.2366398925781255 0.5793503022664721 L -2.2366398925781255 0.2553503022664721 L -2.363139892578125 0.2553503022664721 L -2.363139892578125 0.22435030226647212 L -2.0751398925781253 0.22435030226647212 L -2.0751398925781253 0.2553503022664721 M -2.021397216796875 0.5793503022664721 L -2.021397216796875 0.22435030226647212 L -1.9863972167968753 0.22435030226647212 L -1.9863972167968753 0.5793503022664721 L -2.021397216796875 0.5793503022664721 M -1.9201542968750003 0.3993503022664721 Q -1.9201542968750003 0.3668503022664721 -1.9089042968750003 0.3356003022664721 Q -1.897654296875 0.3043503022664721 -1.8761542968750002 0.2786003022664721 Q -1.8546542968750002 0.2528503022664721 -1.823154296875 0.2376003022664721 Q -1.7916542968750002 0.22235030226647212 -1.7516542968750002 0.22235030226647212 Q -1.704154296875 0.22235030226647212 -1.6704042968750001 0.2441003022664721 Q -1.6366542968750002 0.2658503022664721 -1.6206542968750002 0.2998503022664721 L -1.6481542968750003 0.3168503022664721 Q -1.659654296875 0.2933503022664721 -1.6771542968750002 0.2796003022664721 Q -1.6946542968750002 0.2658503022664721 -1.7144042968750002 0.2598503022664721 Q -1.7341542968750001 0.2538503022664721 -1.7536542968750002 0.2538503022664721 Q -1.7856542968750002 0.2538503022664721 -1.8101542968750002 0.2666003022664721 Q -1.8346542968750001 0.2793503022664721 -1.8514042968750002 0.3006003022664721 Q -1.8681542968750002 0.3218503022664721 -1.8766542968750002 0.3481003022664721 Q -1.8851542968750001 0.3743503022664721 -1.8851542968750001 0.4013503022664721 Q -1.8851542968750001 0.43085030226647214 -1.8751542968750001 0.4578503022664721 Q -1.8651542968750001 0.4848503022664721 -1.847154296875 0.5056003022664721 Q -1.829154296875 0.5263503022664721 -1.8049042968750002 0.5386003022664722 Q -1.780654296875 0.5508503022664721 -1.7521542968750001 0.5508503022664721 Q -1.732154296875 0.5508503022664721 -1.7111542968750002 0.5438503022664721 Q -1.6901542968750003 0.5368503022664721 -1.6719042968750002 0.522350302266472 Q -1.653654296875 0.5078503022664721 -1.6426542968750002 0.4848503022664721 L -1.613654296875 0.4998503022664721 Q -1.6246542968750002 0.5263503022664721 -1.6476542968750003 0.5448503022664721 Q -1.6706542968750002 0.5633503022664721 -1.698904296875 0.5728503022664722 Q -1.7271542968750002 0.5823503022664721 -1.7541542968750001 0.5823503022664721 Q -1.790654296875 0.5823503022664721 -1.821154296875 0.5666003022664721 Q -1.8516542968750003 0.5508503022664721 -1.8739042968750002 0.5246003022664721 Q -1.8961542968750003 0.4983503022664721 -1.9081542968750003 0.4656003022664721 Q -1.9201542968750003 0.43285030226647214 -1.9201542968750003 0.3993503022664721 M -1.1101647949218751 0.5793503022664721 L -1.1101647949218751 0.2903503022664721 L -1.2386647949218752 0.5148503022664721 L -1.2606647949218752 0.5148503022664721 L -1.3896647949218752 0.2903503022664721 L -1.3896647949218752 0.5793503022664721 L -1.4246647949218751 0.5793503022664721 L -1.4246647949218751 0.22435030226647212 L -1.3886647949218751 0.22435030226647212 L -1.250164794921875 0.4673503022664721 L -1.110664794921875 0.22435030226647212 L -1.075164794921875 0.22435030226647212 L -1.075164794921875 0.5793503022664721 L -1.1101647949218751 0.5793503022664721 M -0.7469077148437501 0.5483503022664721 L -0.7469077148437501 0.5793503022664721 L -0.9854077148437501 0.5793503022664721 L -0.9854077148437501 0.22435030226647212 L -0.7514077148437501 0.22435030226647212 L -0.7514077148437501 0.2553503022664721 L -0.9504077148437501 0.2553503022664721 L -0.9504077148437501 0.3833503022664721 L -0.7769077148437501 0.3833503022664721 L -0.7769077148437501 0.4128503022664721 L -0.9504077148437501 0.4128503022664721 L -0.9504077148437501 0.5483503022664721 L -0.7469077148437501 0.5483503022664721 M -0.6821533203125001 0.22435030226647212 L -0.5661533203125001 0.3788503022664721 L -0.45065332031250005 0.22435030226647212 L -0.41115332031250007 0.22435030226647212 L -0.5471533203125001 0.40435030226647206 L -0.4151533203125001 0.5793503022664721 L -0.45465332031250005 0.5793503022664721 L -0.5661533203125001 0.42985030226647214 L -0.6781533203125001 0.5793503022664721 L -0.7181533203125001 0.5793503022664721 L -0.5861533203125 0.40435030226647206 L -0.7221533203125001 0.22435030226647212 L -0.6821533203125001 0.22435030226647212 M -0.3633937988281251 0.5793503022664721 L -0.3633937988281251 0.22435030226647212 L -0.3283937988281251 0.22435030226647212 L -0.3283937988281251 0.5793503022664721 L -0.3633937988281251 0.5793503022664721 M -0.2621508789062501 0.3993503022664721 Q -0.2621508789062501 0.3668503022664721 -0.2509008789062501 0.3356003022664721 Q -0.23965087890625011 0.3043503022664721 -0.21815087890625012 0.2786003022664721 Q -0.1966508789062501 0.2528503022664721 -0.16515087890625013 0.2376003022664721 Q -0.13365087890625013 0.22235030226647212 -0.09365087890625012 0.22235030226647212 Q -0.04615087890625011 0.22235030226647212 -0.012400878906250135 0.2441003022664721 Q 0.021349121093749868 0.2658503022664721 0.03734912109374988 0.2998503022664721 L 0.009849121093749857 0.3168503022664721 Q -0.0016508789062500973 0.2933503022664721 -0.019150878906250113 0.2796003022664721 Q -0.03665087890625013 0.2658503022664721 -0.05640087890625012 0.2598503022664721 Q -0.07615087890625011 0.2538503022664721 -0.09565087890625013 0.2538503022664721 Q -0.12765087890625013 0.2538503022664721 -0.15215087890625012 0.2666003022664721 Q -0.17665087890625014 0.2793503022664721 -0.19340087890625013 0.3006003022664721 Q -0.21015087890625012 0.3218503022664721 -0.21865087890625012 0.3481003022664721 Q -0.22715087890625013 0.3743503022664721 -0.22715087890625013 0.4013503022664721 Q -0.22715087890625013 0.43085030226647214 -0.21715087890625012 0.4578503022664721 Q -0.2071508789062501 0.4848503022664721 -0.18915087890625013 0.5056003022664721 Q -0.17115087890625014 0.5263503022664721 -0.14690087890625012 0.5386003022664722 Q -0.12265087890625012 0.5508503022664721 -0.09415087890625012 0.5508503022664721 Q -0.07415087890625013 0.5508503022664721 -0.053150878906250115 0.5438503022664721 Q -0.032150878906250124 0.5368503022664721 -0.013900878906250136 0.522350302266472 Q 0.004349121093749908 0.5078503022664721 0.015349121093749862 0.4848503022664721 L 0.04434912109374989 0.4998503022664721 Q 0.03334912109374988 0.5263503022664721 0.010349121093749858 0.5448503022664721 Q -0.012650878906250107 0.5633503022664721 -0.04090087890625013 0.5728503022664722 Q -0.06915087890625013 0.5823503022664721 -0.09615087890625013 0.5823503022664721 Q -0.13265087890625013 0.5823503022664721 -0.16315087890625013 0.5666003022664721 Q -0.19365087890625013 0.5508503022664721 -0.21590087890625012 0.5246003022664721 Q -0.23815087890625014 0.4983503022664721 -0.2501508789062501 0.4656003022664721 Q -0.2621508789062501 0.43285030226647214 -0.2621508789062501 0.3993503022664721 M 0.21008129882812485 0.22435030226647212 L 0.23958129882812484 0.22435030226647212 L 0.38708129882812486 0.5793503022664721 L 0.35008129882812483 0.5793503022664721 L 0.30408129882812485 0.4683503022664721 L 0.14458129882812484 0.4683503022664721 L 0.09908129882812486 0.5793503022664721 L 0.061581298828124846 0.5793503022664721 L 0.21008129882812485 0.22435030226647212 M 0.29608129882812484 0.4408503022664721 L 0.22458129882812486 0.2653503022664721 L 0.15208129882812485 0.4408503022664721 L 0.29608129882812484 0.4408503022664721 M 0.47384399414062484 0.2888503022664721 L 0.47384399414062484 0.5793503022664721 L 0.4388439941406248 0.5793503022664721 L 0.4388439941406248 0.22435030226647212 L 0.46784399414062483 0.22435030226647212 L 0.7008439941406248 0.520350302266472 L 0.7008439941406248 0.22485030226647212 L 0.7358439941406248 0.22485030226647212 L 0.7358439941406248 0.5793503022664721 L 0.7033439941406248 0.5793503022664721 L 0.47384399414062484 0.2888503022664721 M 0.9538327636718749 0.5793503022664721 L 0.9538327636718749 0.22435030226647212 L 1.186832763671875 0.22435030226647212 L 1.186832763671875 0.2553503022664721 L 0.9888327636718749 0.2553503022664721 L 0.9888327636718749 0.3858503022664721 L 1.1558327636718748 0.3858503022664721 L 1.1558327636718748 0.4148503022664721 L 0.9888327636718749 0.4148503022664721 L 0.9888327636718749 0.5793503022664721 L 0.9538327636718749 0.5793503022664721 M 1.3850888671875 0.581850302266472 Q 1.3475888671874998 0.581850302266472 1.3170888671874998 0.5668503022664722 Q 1.2865888671874999 0.5518503022664721 1.2645888671874999 0.5261003022664721 Q 1.2425888671874998 0.5003503022664721 1.2305888671874998 0.4681003022664721 Q 1.2185888671874998 0.4358503022664721 1.2185888671874998 0.4018503022664721 Q 1.2185888671874998 0.36635030226647214 1.2310888671875 0.33410030226647214 Q 1.2435888671875 0.3018503022664721 1.2663388671875 0.2766003022664721 Q 1.2890888671874998 0.2513503022664721 1.3195888671875 0.2366003022664721 Q 1.3500888671875 0.22185030226647212 1.3855888671874999 0.22185030226647212 Q 1.4230888671875 0.22185030226647212 1.4535888671875 0.23735030226647208 Q 1.4840888671874999 0.2528503022664721 1.5058388671874998 0.2788503022664721 Q 1.5275888671875 0.3048503022664721 1.5395888671875 0.3368503022664721 Q 1.5515888671874998 0.3688503022664721 1.5515888671874998 0.4023503022664721 Q 1.5515888671874998 0.4378503022664721 1.5390888671875 0.4701003022664721 Q 1.5265888671874999 0.5023503022664721 1.5040888671875 0.5276003022664721 Q 1.4815888671875 0.5528503022664721 1.4510888671875 0.5673503022664721 Q 1.4205888671875 0.581850302266472 1.3850888671875 0.581850302266472 M 1.2535888671875 0.4018503022664721 Q 1.2535888671875 0.43085030226647214 1.2630888671874998 0.4576003022664721 Q 1.2725888671874999 0.48435030226647213 1.2900888671875 0.5051003022664721 Q 1.3075888671875 0.5258503022664721 1.3318388671874999 0.5381003022664721 Q 1.3560888671875 0.5503503022664721 1.3850888671875 0.5503503022664721 Q 1.4155888671874999 0.5503503022664721 1.4398388671875 0.5376003022664722 Q 1.4640888671874999 0.5248503022664721 1.4813388671874999 0.5036003022664721 Q 1.4985888671874998 0.48235030226647213 1.5075888671875 0.4558503022664721 Q 1.5165888671874999 0.4293503022664721 1.5165888671874999 0.4018503022664721 Q 1.5165888671874999 0.3728503022664721 1.5070888671875 0.3463503022664721 Q 1.4975888671875 0.3198503022664721 1.4798388671875 0.2988503022664721 Q 1.4620888671874999 0.2778503022664721 1.4380888671874998 0.2658503022664721 Q 1.4140888671874998 0.2538503022664721 1.3850888671875 0.2538503022664721 Q 1.3550888671874999 0.2538503022664721 1.3308388671875 0.2663503022664721 Q 1.3065888671875 0.2788503022664721 1.2893388671875 0.3001003022664721 Q 1.2720888671875 0.3213503022664721 1.2628388671875 0.34785030226647207 Q 1.2535888671875 0.3743503022664721 1.2535888671875 0.4018503022664721 M 1.7613271484374997 0.581850302266472 Q 1.7238271484374996 0.581850302266472 1.6933271484374997 0.5668503022664722 Q 1.6628271484374997 0.5518503022664721 1.6408271484374997 0.5261003022664721 Q 1.6188271484374996 0.5003503022664721 1.6068271484374996 0.4681003022664721 Q 1.5948271484374996 0.4358503022664721 1.5948271484374996 0.4018503022664721 Q 1.5948271484374996 0.36635030226647214 1.6073271484374998 0.33410030226647214 Q 1.6198271484374998 0.3018503022664721 1.6425771484374998 0.2766003022664721 Q 1.6653271484374996 0.2513503022664721 1.6958271484374996 0.2366003022664721 Q 1.7263271484374998 0.22185030226647212 1.7618271484374997 0.22185030226647212 Q 1.7993271484374997 0.22185030226647212 1.8298271484374997 0.23735030226647208 Q 1.8603271484374997 0.2528503022664721 1.8820771484374998 0.2788503022664721 Q 1.9038271484374998 0.3048503022664721 1.9158271484374998 0.3368503022664721 Q 1.9278271484374998 0.3688503022664721 1.9278271484374998 0.4023503022664721 Q 1.9278271484374998 0.4378503022664721 1.9153271484374996 0.4701003022664721 Q 1.9028271484374997 0.5023503022664721 1.8803271484374997 0.5276003022664721 Q 1.8578271484374997 0.5528503022664721 1.8273271484374998 0.5673503022664721 Q 1.7968271484374998 0.581850302266472 1.7613271484374997 0.581850302266472 M 1.6298271484374998 0.4018503022664721 Q 1.6298271484374998 0.43085030226647214 1.6393271484374998 0.4576003022664721 Q 1.6488271484374997 0.48435030226647213 1.6663271484374997 0.5051003022664721 Q 1.6838271484374998 0.5258503022664721 1.7080771484374997 0.5381003022664721 Q 1.7323271484374998 0.5503503022664721 1.7613271484374997 0.5503503022664721 Q 1.7918271484374997 0.5503503022664721 1.8160771484374998 0.5376003022664722 Q 1.8403271484374997 0.5248503022664721 1.8575771484374997 0.5036003022664721 Q 1.8748271484374996 0.48235030226647213 1.8838271484374998 0.4558503022664721 Q 1.8928271484374997 0.4293503022664721 1.8928271484374997 0.4018503022664721 Q 1.8928271484374997 0.3728503022664721 1.8833271484374996 0.3463503022664721 Q 1.8738271484374998 0.3198503022664721 1.8560771484374996 0.2988503022664721 Q 1.8383271484374997 0.2778503022664721 1.8143271484374996 0.2658503022664721 Q 1.7903271484374996 0.2538503022664721 1.7613271484374997 0.2538503022664721 Q 1.7313271484374997 0.2538503022664721 1.7070771484374998 0.2663503022664721 Q 1.6828271484374997 0.2788503022664721 1.6655771484374997 0.3001003022664721 Q 1.6483271484374997 0.3213503022664721 1.6390771484374997 0.34785030226647207 Q 1.6298271484374998 0.3743503022664721 1.6298271484374998 0.4018503022664721 M 1.9945654296874997 0.5793503022664721 L 1.9945654296874997 0.22435030226647212 L 2.1150654296874998 0.22435030226647212 Q 2.1715654296874995 0.22435030226647212 2.2093154296875 0.24810030226647212 Q 2.2470654296875 0.2718503022664721 2.2660654296874996 0.3121003022664721 Q 2.2850654296874997 0.3523503022664721 2.2850654296874997 0.4013503022664721 Q 2.2850654296874997 0.4553503022664721 2.2643154296874997 0.4953503022664721 Q 2.2435654296874996 0.5353503022664721 2.2053154296875 0.5573503022664721 Q 2.1670654296875 0.5793503022664721 2.1150654296874998 0.5793503022664721 L 1.9945654296874997 0.5793503022664721 M 2.2500654296874996 0.4013503022664721 Q 2.2500654296874996 0.3588503022664721 2.2343154296875 0.3258503022664721 Q 2.2185654296874997 0.2928503022664721 2.1885654296875 0.2741003022664721 Q 2.1585654296874996 0.2553503022664721 2.1150654296874998 0.2553503022664721 L 2.0295654296874996 0.2553503022664721 L 2.0295654296874996 0.5483503022664721 L 2.1150654296874998 0.5483503022664721 Q 2.1590654296875 0.5483503022664721 2.1890654296874996 0.5288503022664721 Q 2.2190654296875 0.509350302266472 2.2345654296874997 0.4761003022664721 Q 2.2500654296874996 0.4428503022664721 2.2500654296874996 0.4013503022664721 M 2.71858544921875 0.2553503022664721 L 2.5920854492187497 0.2553503022664721 L 2.5920854492187497 0.5793503022664721 L 2.55708544921875 0.5793503022664721 L 2.55708544921875 0.2553503022664721 L 2.43058544921875 0.2553503022664721 L 2.43058544921875 0.22435030226647212 L 2.71858544921875 0.22435030226647212 L 2.71858544921875 0.2553503022664721 M 2.772328125 0.5793503022664721 L 2.772328125 0.22435030226647212 L 2.922328125 0.22435030226647212 Q 2.9453281249999996 0.22435030226647212 2.9643281249999998 0.23385030226647208 Q 2.983328125 0.24335030226647208 2.997578125 0.25960030226647207 Q 3.011828125 0.2758503022664721 3.019578125 0.2956003022664721 Q 3.027328125 0.3153503022664721 3.027328125 0.3358503022664721 Q 3.027328125 0.36135030226647213 3.017578125 0.3838503022664721 Q 3.0078281249999996 0.40635030226647206 2.9900781249999997 0.42185030226647213 Q 2.9723281249999998 0.4373503022664721 2.9483281249999997 0.4423503022664721 L 3.035328125 0.5793503022664721 L 2.995828125 0.5793503022664721 L 2.9123281249999997 0.4483503022664721 L 2.8073281249999997 0.4483503022664721 L 2.8073281249999997 0.5793503022664721 L 2.772328125 0.5793503022664721 M 2.8073281249999997 0.4173503022664721 L 2.923328125 0.4173503022664721 Q 2.9443281249999997 0.4173503022664721 2.959828125 0.4058503022664721 Q 2.975328125 0.3943503022664721 2.9838281249999996 0.3756003022664721 Q 2.992328125 0.3568503022664721 2.992328125 0.3358503022664721 Q 2.992328125 0.3143503022664721 2.982578125 0.2961003022664721 Q 2.972828125 0.2778503022664721 2.956578125 0.2666003022664721 Q 2.9403281249999997 0.2553503022664721 2.9203281249999997 0.2553503022664721 L 2.8073281249999997 0.2553503022664721 L 2.8073281249999997 0.4173503022664721 M 3.20809033203125 0.22435030226647212 L 3.23759033203125 0.22435030226647212 L 3.38509033203125 0.5793503022664721 L 3.3480903320312496 0.5793503022664721 L 3.30209033203125 0.4683503022664721 L 3.14259033203125 0.4683503022664721 L 3.0970903320312497 0.5793503022664721 L 3.0595903320312496 0.5793503022664721 L 3.20809033203125 0.22435030226647212 M 3.29409033203125 0.4408503022664721 L 3.22259033203125 0.2653503022664721 L 3.1500903320312497 0.4408503022664721 L 3.29409033203125 0.4408503022664721 M 3.43685302734375 0.5793503022664721 L 3.43685302734375 0.22435030226647212 L 3.47185302734375 0.22435030226647212 L 3.47185302734375 0.5793503022664721 L 3.43685302734375 0.5793503022664721 M 3.561595947265625 0.5793503022664721 L 3.561595947265625 0.22435030226647212 L 3.596595947265625 0.22435030226647212 L 3.596595947265625 0.5483503022664721 L 3.801595947265625 0.5483503022664721 L 3.801595947265625 0.5793503022664721 L 3.561595947265625 0.5793503022664721 M 4.092349853515625 0.5483503022664721 L 4.092349853515625 0.5793503022664721 L 3.853849853515625 0.5793503022664721 L 3.853849853515625 0.22435030226647212 L 4.087849853515625 0.22435030226647212 L 4.087849853515625 0.2553503022664721 L 3.888849853515625 0.2553503022664721 L 3.888849853515625 0.3833503022664721 L 4.062349853515625 0.3833503022664721 L 4.062349853515625 0.4128503022664721 L 3.888849853515625 0.4128503022664721 L 3.888849853515625 0.5483503022664721 L 4.092349853515625 0.5483503022664721 M 4.159104248046875 0.5793503022664721 L 4.159104248046875 0.22435030226647212 L 4.309104248046874 0.22435030226647212 Q 4.332104248046875 0.22435030226647212 4.351104248046875 0.23385030226647208 Q 4.370104248046874 0.24335030226647208 4.384354248046875 0.25960030226647207 Q 4.398604248046874 0.2758503022664721 4.406354248046875 0.2956003022664721 Q 4.414104248046875 0.3153503022664721 4.414104248046875 0.3358503022664721 Q 4.414104248046875 0.36135030226647213 4.404354248046874 0.3838503022664721 Q 4.394604248046875 0.40635030226647206 4.376854248046874 0.42185030226647213 Q 4.359104248046875 0.4373503022664721 4.335104248046875 0.4423503022664721 L 4.422104248046875 0.5793503022664721 L 4.382604248046874 0.5793503022664721 L 4.299104248046874 0.4483503022664721 L 4.194104248046875 0.4483503022664721 L 4.194104248046875 0.5793503022664721 L 4.159104248046875 0.5793503022664721 M 4.194104248046875 0.4173503022664721 L 4.3101042480468745 0.4173503022664721 Q 4.331104248046874 0.4173503022664721 4.346604248046875 0.4058503022664721 Q 4.362104248046874 0.3943503022664721 4.370604248046875 0.3756003022664721 Q 4.3791042480468745 0.3568503022664721 4.3791042480468745 0.3358503022664721 Q 4.3791042480468745 0.3143503022664721 4.369354248046875 0.2961003022664721 Q 4.359604248046875 0.2778503022664721 4.343354248046874 0.2666003022664721 Q 4.327104248046875 0.2553503022664721 4.307104248046874 0.2553503022664721 L 4.194104248046875 0.2553503022664721 L 4.194104248046875 0.4173503022664721" fill="#080300" fill-rule="nonzero"></path></g><g transform="matrix(1,0,0,1,0,0)"><g clip-path="url(#SvgjsClipPath50574)"><g clip-path="url(#af594872a-562f-481d-b66c-4cba80452b6cd6ca97c1-6fb5-42d0-b290-7b70bad00f75)"><path d=" M 1.7710258796009422 -0.2789124976253472 L 2.266688892862069 -0.2827756530748906 L 2.2289028884549857 -0.3533209054004929 L 1.863439074119845 -0.3490698829379433 C 1.9199125112135755 -0.42029778120643657 1.9356443972611146 -0.5112138090551344 1.9356443972611146 -0.5112138090551344 C 1.9356443972611146 -0.5112138090551344 2.1827311992267058 -0.4869410913811947 2.2020314617939034 -0.5614658592602422 C 2.235550929057916 -0.6907884787368332 2.2299035853485423 -1.0438793353570706 2.179744623226556 -1.0954035893648395 C 2.1295934184448297 -1.1469200860323485 1.667558475211357 -1.300686084668602 1.667558475211357 -1.300686084668602 L 1.5468077167222076 -1.76732888801659 L 1.4958497485534288 -1.9673441492837256 L 1.4971141950158287 -2.0586713161662105 L 0.45149454401294165 -2.423033588184414 L -0.441111570358925 -2.161681037480448 L -0.8684867173101469 -2.314547184646526 C -0.8684867173101469 -2.314547184646526 -2.3203350057151475 -1.9083495766054537 -2.3210797103801193 -1.8852016732692323 C -2.3259125333621795 -1.7337939060720577 -2.2693847948866277 -1.7091953801071924 -2.2331735305523512 -1.7087919984136655 C -2.216440947611255 -1.7085747928863821 -2.1554837678471714 -1.767569365564654 -2.1554837678471714 -1.767569365564654 L -1.9248037405317504 -1.7812998578250803 L -1.923384147264147 -1.6556930043330906 L -2.0184581094922733 -1.7595793050967221 L -2.1155257081672527 -1.7544982472263386 L -1.9220576420796653 -1.536641103360909 L -1.9098553458504843 -0.4543059609068363 L -1.4173728420960103 -0.4640802096345975 L -1.331118975743649 -0.31191222309193023 L -1.9365561110258442 -0.304868558135734 L -1.9763900532616003 -0.24967508218492496 L -1.0900828991809575 -0.25658687235669886 C -1.0131223264602294 -0.24972162622648542 -0.9396680715370795 -0.24625409513020857 -0.9133474160344657 -0.25446136112542384 C -0.9104228987563976 -0.25536896993585856 -0.9076302562627514 -0.25671098980086127 -0.9048143417483248 -0.25804525232560316 L -0.29289982734892295 -0.262800501905061 C -0.24915618562206188 -0.25540775663715953 -0.20285262160935913 -0.2505516616343195 -0.18366871914606353 -0.2586968689074536 C -0.18065887112513357 -0.25999234473089494 -0.1772301267301568 -0.261753260969944 -0.17361520616893777 -0.2637313827362764 L 0.9361964354865075 -0.2724040891470998 C 1.0081690384199735 -0.2603181530218204 1.0860294626108762 -0.25431397166048164 1.126034066332355 -0.2738857411367839 L 1.587394120963197 -0.27748514701748306 C 1.6372660614955579 -0.26476310899087396 1.7086491065692542 -0.2551750364293559 1.7710258796009422 -0.2789124976253472 M 1.4885190620076076 -1.6766145510146555 L 1.5960978567350605 -1.3515664794347801 L 1.3375069191636997 -1.391733987301722 L 1.297859153094186 -1.6469116951586265 C 1.3205261013342797 -1.6469116951586265 1.4885190620076076 -1.676614551014656 1.4885190620076076 -1.676614551014656 M 1.3538050910502282 -0.5112138090551344 L 1.4873942476698891 -0.3446869856909709 L 1.1905751372966185 -0.3412349692752139 C 1.2326354361870315 -0.4108260687488201 1.2474985001254364 -0.4993062917558382 1.2474985001254364 -0.4993062917558382 Z M 0.08313724176077253 -0.4820927537186146 L 0.5112570933769662 -0.43900848591386477 L 0.651765797508661 -0.4453074462050888 L 0.7524948607864212 -0.3361461540645698 L -0.09791132257035029 -0.326255545232907 C -0.0621422266309013 -0.3649181290893839 -0.027327283543447933 -0.41731896254654766 -0.01282881459726859 -0.47876485474702 C 0.007534203585566779 -0.5650962945019824 0.08313724176077253 -0.4820927537186146 0.08313724176077253 -0.4820927537186146 M -1.68019153010914 -1.1972884963413584 L -1.6655223996772381 -1.5058367051879418 L -1.0014940734102973 -1.4228409217448341 L -1.0014940734102973 -1.2503099170193317 C -1.0014940734102973 -1.2503099170193317 -1.25229664136049 -1.2189469903476349 -1.2468975325394407 -1.2225619109088546 C -1.2414751516976112 -1.2261613167895538 -1.6801915301091395 -1.1972884963413581 -1.6801915301091395 -1.1972884963413581 M -0.8063349071460018 -0.4640802096345975 C -0.8029759788133668 -0.5296685215339783 -0.5552298029256648 -0.4854439247109894 -0.5552298029256648 -0.4854439247109894 L -0.42105108844623373 -0.32251650722752556 L -0.8495355350546534 -0.31752078010000284 C -0.8237811653910292 -0.3639329468763477 -0.8083518156136347 -0.4245953477105471 -0.8063349071460013 -0.4640802096345975" fill="#ffffff" transform="matrix(1,0,0,1,0,0)" fill-rule="nonzero"></path></g><g clip-path="url(#af594872a-562f-481d-b66c-4cba80452b6cd6ca97c1-6fb5-42d0-b290-7b70bad00f75)"><path d=" M 1.2681019958563358 -1.375590962220396 L 1.645442298129732 -1.3081176166378041 L 1.5325031812825314 -1.708869571816267 L 1.152005641523263 -1.8225611506687003 Z M 1.476293493757646 -1.6228949697132706 L 1.5467999593819473 -1.3917339873017218 L 1.3833140133997537 -1.422103974420122 L 1.3537973337099674 -1.607768156206021 C 1.3580949002140783 -1.607620766741079 1.476293493757646 -1.6228949697132706 1.476293493757646 -1.6228949697132706 M 0.4857432012614056 -2.025128576881418 C 0.3492915860857573 -1.9715718997254954 -0.13265644959546297 -1.8350194391264654 -0.13265644959546297 -1.8350194391264654 C -0.13265644959546297 -1.8350194391264654 -0.12731164215623547 -0.7533359132542436 -0.12998792454597918 -0.6649642930108677 C -0.15140594100419236 -0.8219418305148138 -0.18620536941112542 -1.422693532279892 -0.1835290870213817 -1.8805317544326354 C -0.1835290870213817 -1.8805317544326354 0.4107064489251888 -2.0224522944916736 0.4857432012614056 -2.025128576881418 M 0.40283274856115936 -0.8719146164705573 C 0.389451336612439 -0.9235629879224883 0.36133873550973616 -1.3209482574280558 0.36133873550973616 -1.3209482574280558 C 0.36133873550973616 -1.3209482574280558 0.4227846277102083 -1.325765565729595 0.42292425983489057 -1.3209482574280558 C 0.4256005422246343 -1.2232290421712257 0.43229512686912486 -0.9527926460226499 0.40283274856115936 -0.8719146164705573 M 1.199123726263279 -1.387925133233999 C 1.1718256458878895 -1.483937733633601 1.09844896436734 -1.7718979614298056 1.077736865872799 -1.8447549011529258 L 0.6103726298806187 -1.9844025405157466 L 0.7633473798103392 -1.465839858806723 Z M 0.6946871611679479 -1.8858843192121235 C 0.7027082509969205 -1.8858843192121235 1.0112874892045443 -1.7978772939609735 1.0530762811858527 -1.7761101971910547 C 0.9704683647557517 -1.7841545590408074 0.7151044807326046 -1.8310011368717192 0.7151044807326046 -1.8310011368717192 Z M 0.7286332821462675 -1.7826030909887818 C 0.7366543719752396 -1.7826030909887818 1.0092317940356104 -1.720451280824638 1.0584210886250807 -1.697101686641653 C 0.9758131721949796 -1.7051382911511455 0.7490583590511841 -1.7277199086483774 0.7490583590511841 -1.7277199086483774 Z M 0.6723615358993 -1.5402870532831694 L 0.5607954682781422 -1.8886847190460296 C 0.5506643818984154 -1.9183255161799782 0.5256392022192427 -1.9314586932403743 0.4945710544774311 -1.927370574923287 L 0.4572427331456961 -1.9184573909644 C 0.42768983766799185 -1.9114133684185823 0.4075795761122687 -1.884012070147994 0.4097212667121526 -1.853706871813113 L 0.4240258021518284 -1.6500534179639779 C 0.4240258021518284 -1.6500534179639779 0.47298237653349506 -1.6529236338602251 0.4945710544774311 -1.63378627543849 C 0.5184714198188844 -1.6125932218478205 0.5233585441827651 -1.5665534074039622 0.5305573559441639 -1.4945575324497158 C 0.5377561677055622 -1.42258492951625 0.5319847065520271 -1.3808504389167624 0.47298237653349506 -1.3491694612944005 C 0.605407932114137 -1.3016712668816381 0.585254362118325 -1.444181364800446 0.585254362118325 -1.444181364800446 L 0.6122499062235698 -1.4472610288837167 C 0.6571416343089296 -1.4523808734554011 0.6861385722012874 -1.4972570868602404 0.6723615358993 -1.5402870532831694 M 0.4544733626728301 -1.8220181368504913 L 0.4520065284701098 -1.8578570488522819 L 0.5233275148217249 -1.8721693416322176 L 0.5363753611392599 -1.8410468925085848 Z M 0.2373066220905522 -1.8668555635540298 L 0.004260605995792588 -1.8221500116349134 C -0.030625590139512937 -1.8154589959807117 -0.05559966227532431 -1.784582259288917 -0.054850326786381576 -1.7490681090442493 L -0.04735673609509794 -1.3962099726318156 C -0.04666633281194654 -1.364117855975667 -0.017816784384530937 -1.3400080424471896 0.013887465258611176 -1.3450425562760124 L 0.2779550850536219 -1.3812072765687284 C 0.30484621710308746 -1.3854838601521864 0.3241085754085584 -1.4094603124167557 0.32248997548701563 -1.4366412300676017 L 0.3001410781975875 -1.8179998345957449 C 0.29824052983385574 -1.849921289766171 0.26870833546354955 -1.872867502255629 0.2373066220905522 -1.8668555635540298 M -0.012836571937529406 -1.7135317333126037 L -0.008818269682782542 -1.7654050676320785 L 0.2688634822687521 -1.8211260427205764 C 0.2688479675882314 -1.8092495547823209 0.26896432769213385 -1.7931685884230757 0.2690884451362958 -1.778972655747042 Z M -1.0572693498806172 -0.6810995607519335 C -1.0642587134549923 -0.6953265227890078 -1.0728848758242544 -0.7098715357767476 -1.0811386858610306 -0.7228728380527216 C -0.7885938699710906 -0.7366266023339281 -0.46331307818341094 -0.7521335255139237 -0.1949866785855905 -0.7650029530054758 L -0.1949866785855905 -0.7258206273515702 Z M 0.3613387355097357 -0.7546701757789855 L -0.054850326786381576 -0.7330892551753101 L -0.054850326786381576 -0.7717130523304863 C 0.19569624893522652 -0.7837446870739446 0.3693675826789682 -0.792145886575663 0.3693675826789682 -0.792145886575663 Z M -1.9138115893831498 -0.8709759782990816 L -1.9144864779857809 -0.9193817815222793 C -1.9144864779857809 -0.9193817815222793 -0.31620287749034803 -1.0669574226309508 -0.2531357011755082 -1.0425993742141493 C -0.4011224813179666 -1.008218842181263 -1.9138115893831493 -0.8709759782990818 -1.9138115893831493 -0.8709759782990818 M -1.4492244812040949 -0.7057291160778392 C -1.4583139945484738 -0.6903617834143909 -1.4672663209813974 -0.6749137192577517 -1.4760803931846382 -0.6593867653638683 L -1.9104992050920746 -0.6368672065886845 L -1.9111896083752262 -0.6858315383106113 C -1.9111896083752262 -0.6858315383106113 -1.6996159101205 -0.6941939511110289 -1.4492244812040946 -0.705729116077839 M 2.266681135521809 -0.2854519354646343 L 1.7309669744976421 -0.28435815048795643 C 1.7770455756428012 -0.3149453431336404 1.841842638835649 -0.39810403072221057 1.854696551646681 -0.49109126842036255 L 2.1212775496859733 -0.5045269817509039 C 2.1650910074751746 -0.5067610957458208 2.1990604004742735 -0.5435076165580464 2.197640807206671 -0.5873443463680283 C 2.1942973935545558 -0.6915642127628456 2.188246668151656 -0.8669033746625145 2.18426715259821 -0.9087231960048636 C 2.1784956914446756 -0.9691916633325601 2.1799463140733195 -1.0267666427432285 2.1525939323161083 -1.0685088906829763 L 1.3370337214078312 -1.166740090396975 C 1.2427354932057177 -1.2070084436872983 0.9032975554433049 -1.3504959664788825 0.8673733126986529 -1.3597659880897353 C 0.9239553525560256 -1.3124927565445161 1.1889616105225116 -1.1749783857532305 1.2818867894985826 -1.1273250445352656 L 1.2973238966162373 -0.7026416946543081 C 1.2445894975278882 -0.6975683941241848 1.126515021428483 -0.6850325322638182 1.114382541261643 -0.6649642930108677 C 1.2087040414845371 -0.6569354458416352 1.3440075703016863 -0.657051805945537 1.3440075703016863 -0.657051805945537 L 1.3437360633925817 -0.6576413638053069 C 1.4996430879406306 -0.6556011833168931 2.012752359446785 -0.648666121124339 2.0615227576622077 -0.646238073622919 C 2.1191054944131364 -0.6433523430461512 2.12957014642405 -0.6006481849141481 2.12957014642405 -0.6006481849141481 C 2.12957014642405 -0.6006481849141481 1.291730854288685 -0.5948844811008731 1.0614076646252304 -0.5992130769660242 C 1.0470100411024332 -0.7633273675092882 0.924645755839177 -0.9850166374632208 0.6942992941549413 -0.9562213904176264 C 0.5333732704585903 -0.9360910924425945 0.4524254248441566 -0.8114151197818202 0.4216132693309289 -0.6793619165336648 L -1.037232139988707 -0.6147510295070602 C -1.0346024016405238 -0.5997405761037127 -1.0326708239157514 -0.584761152061406 -1.0312900173494488 -0.5720391140347965 L 0.410000530961518 -0.610569823106851 C 0.40798597402285397 -0.5924546349288498 0.40678238441614134 -0.5742584307671548 0.40639336774055845 -0.556035721078153 L -1.091199956178416 -0.5207320655543111 C -1.099469280895712 -0.7073426428519456 -1.1738776886708582 -0.7878095333702515 -1.2919987088118243 -0.7719612872188102 C -1.3679197979376951 -0.7617914141377826 -1.4185674724960697 -0.6877863880561634 -1.440559532133532 -0.5968858748879857 L -1.9104992050920746 -0.5760729309700627 C -1.9104992050920746 -0.5760729309700627 -1.9091571852270726 -0.5484878290050483 -1.9104992050920746 -0.5484878290050483 C -1.9108793147648206 -0.5484878290050483 -1.720188376490359 -0.5535999162364722 -1.4476730131520692 -0.5608995734212525 C -1.4502575037106435 -0.544165322752368 -1.4519149316485083 -0.5273009934845911 -1.4526377109185509 -0.5103837736473009 L -1.9098631031907436 -0.49989584961560785 L -1.9098631031907436 -0.4451755714206662 L -1.4448415839571216 -0.43571937364356983 C -1.4365877739203454 -0.38611118268005296 -1.4121909388022438 -0.3074672671228771 -1.3594410250333748 -0.27679474373433166 L -1.957376812284026 -0.27531309174464713 L -1.9904773831739915 -0.23067735588787208 L 2.3213703843557107 -0.1875000000000009 Z M 1.3507564563279972 -1.0756999451041147 C 1.3507564563279972 -1.0756999451041147 1.418415978076832 -1.0713791065792238 1.442890386597535 -1.0670737827348526 C 1.4673647951182391 -1.0627529442099615 1.470235011014486 -1.054103509819919 1.4716778763028695 -1.029644615979736 C 1.4731207415912535 -1.005177964799293 1.4716778763028695 -0.9360755777620744 1.4716778763028695 -0.9360755777620744 C 1.4716778763028695 -0.9360755777620744 1.4558373874916888 -0.9850166374632208 1.4312233468463034 -0.9965130157287301 C 1.4176712734118602 -1.002819733360214 1.3608332413259037 -1.0080481806955401 1.3507564563279972 -1.0080481806955401 C 1.3521915642761209 -1.0181172083531862 1.3507564563279972 -1.0756999451041147 1.3507564563279972 -1.0756999451041147 M 1.4788766880642679 -0.787786261349471 C 1.4774260654356248 -0.7503648519346144 1.454410036883825 -0.748937501326751 1.4356915748361367 -0.7474791213578471 C 1.416965355448188 -0.7460517707499836 1.4040183545540348 -0.7474791213578471 1.378116595425468 -0.7474791213578471 C 1.3521915642761209 -0.7474791213578471 1.3507564563279972 -0.7791445842996887 1.3507564563279972 -0.8108255619220508 C 1.3853076498466064 -0.8050618581087758 1.4040183545540348 -0.8079475886855434 1.4342409522074933 -0.8122606698701744 C 1.4328058442593692 -0.8324142398659864 1.4313784936515055 -0.8743581786524977 1.3766659727968245 -0.9000892762953414 C 1.4371266827842604 -0.9360755777620744 1.4759987148277607 -0.8770577330630223 1.4788766880642679 -0.8496975939655513 C 1.4817624186410363 -0.8223374548680806 1.480304038672132 -0.825223185444848 1.4788766880642679 -0.7877862613494713 M 1.578209430095205 -1.0425993742141495 L 1.958249286779127 -1.0042936280096384 L 1.9608712677870495 -0.9340664266347014 C 1.9038005154932893 -0.9392405725882067 1.6661000952424527 -0.9607982211711017 1.5814442409836782 -0.9689279137637159 Z M 1.588992133056783 -0.7964201810589935 L 1.585679748765708 -0.8719146164705573 L 1.964354313563847 -0.8400784920429929 L 1.9668909638289085 -0.7719612872188104 Z M 2.0978969261419476 -0.7126098768885727 C 2.0676510564677084 -0.7100654692832506 2.035985593525867 -0.7145259399328241 2.035985593525867 -0.7468507767967767 C 2.035985593525867 -0.7791445842996889 2.038863566762374 -0.8007410195838849 2.06046000204657 -0.8007410195838849 L 2.099324276749811 -0.8007410195838849 L 2.0978969261419476 -0.8626523521999647 C 2.0978969261419476 -0.8626523521999647 2.0460623785237733 -0.875599353094118 2.04463502791591 -0.9043946001397125 C 2.0705367870444773 -0.9101583039529875 2.0935760876170555 -0.9072725733762199 2.0978969261419476 -0.9115934119011111 C 2.0978969261419476 -0.9519160665732553 2.099324276749811 -0.9720618792288074 2.0978969261419476 -0.9979713956976342 C 2.1180349814572397 -0.9965207730689905 2.12957014642405 -0.9821309068864532 2.1309974970319123 -0.95766425570601 C 2.132455877000817 -0.9331898471853068 2.1396314167414356 -0.7836360843103027 2.1396314167414356 -0.7468507767967767 C 2.1396314167414356 -0.7100654692832506 2.128111766455145 -0.7151697991744148 2.0978969261419476 -0.7126098768885727 M -1.2709297726653173 -0.3343464511242207 C -1.3265421449901735 -0.3343464511242207 -1.371620049241777 -0.41352562315934493 -1.371620049241777 -0.5112060517148742 C -1.371620049241777 -0.6088864802704039 -1.326542144990174 -0.6880578949652683 -1.2709297726653173 -0.6880578949652683 C -1.2557021137346864 -0.6880578949652683 -1.24134327691319 -0.6819606255208077 -1.228419548039817 -0.6713485840449531 C -1.2496203589707464 -0.6729388387982791 -1.2737922312213044 -0.6657943284187016 -1.2937673823911333 -0.6418706910564673 C -1.323609870371845 -0.6061248671377983 -1.3470447952976912 -0.4771358132923931 -1.28204604125808 -0.4056053787537546 C -1.3054887235241863 -0.4988408513402307 -1.2873598193362679 -0.586498796279675 -1.248992014409675 -0.6099725079068219 C -1.22378841590452 -0.6253630709829152 -1.2015170920176932 -0.6182806193254187 -1.1867160868013693 -0.60804093018205 C -1.1763057361722775 -0.5801998359884513 -1.1702084667278172 -0.5469751476543239 -1.1702084667278172 -0.5112060517148742 C -1.1702084667278172 -0.41352562315934493 -1.2153018856599402 -0.3343464511242207 -1.2709297726653166 -0.3343464511242207 M -0.9414522597969079 -0.277803197968149 C -0.8945048365426145 -0.32150029565344873 -0.8632970566761204 -0.42646486671323824 -0.8632970566761204 -0.42646486671323824 L -0.6046750897437192 -0.42883085549257727 C -0.5877175439350801 -0.37885806953683376 -0.5605280663233321 -0.3200884597261058 -0.5015800376866211 -0.2795873862279783 Z M -0.2179096190542671 -0.2807509872669973 C -0.19016937028404968 -0.29874801667049367 -0.12732715683675488 -0.354476749099252 -0.10475329667978261 -0.4333766568850119 L 0.5112493360367067 -0.43900072857360484 C 0.45638942571708263 -0.7225315150812761 0.5973170262228242 -0.8743581786524977 0.7178971232262512 -0.8743581786524977 C 0.7456994307185494 -0.8743581786524977 0.7722140197276661 -0.8670740361482376 0.7966806709081093 -0.854282182059287 C 0.793019206305329 -0.8545149022670906 0.7894198004246298 -0.8549958573632188 0.7857273064608088 -0.8549958573632188 C 0.6602523277532413 -0.8549958573632188 0.5585380822624453 -0.7257740833100097 0.5585380822624453 -0.5663917703254238 C 0.5585380822624453 -0.42831111369514874 0.6349323691441846 -0.31305255211016947 0.7369181215440843 -0.2846451720775818 Z M 0.7782569877903058 -0.376065427043188 C 0.7083943814075946 -0.376065427043188 0.6517580401684016 -0.4590612104862952 0.6517580401684016 -0.5614581019199825 C 0.6517580401684016 -0.6638394786731492 0.7083943814075946 -0.7468507767967771 0.7782569877903058 -0.7468507767967771 C 0.7973633168510004 -0.7468507767967771 0.8154224049765784 -0.7404587284224315 0.8316585181410256 -0.7293424598296685 C 0.8050120543474866 -0.7310025306453358 0.7746575819096067 -0.7235011826137923 0.7495703435083527 -0.6984294588930593 C 0.7120791180311552 -0.6609537480963816 0.68263225440371 -0.5257433073623539 0.7642937753220753 -0.45078412842873883 C 0.7348469116946306 -0.5484878290050488 0.7495703435083527 -0.6559502636285994 0.7977589412042669 -0.6805410322532044 C 0.8271049594083304 -0.6955126989552514 0.8543720104226797 -0.691370279256343 0.8736877876703981 -0.6828837490117632 C 0.8929880502375958 -0.6503261919400065 0.9047404207316898 -0.6079555994391883 0.9047404207316898 -0.5614581019199825 C 0.9047404207316898 -0.4590612104862952 0.8481118368327567 -0.376065427043188 0.7782569877903054 -0.376065427043188 M 1.089535780408454 -0.2827756530748906 C 1.165441354853805 -0.3517927093692479 1.1736874075503212 -0.45670297904721613 1.1736874075503212 -0.45670297904721613 L 1.3199132714537298 -0.46408020963459795 C 1.3345668872051117 -0.39541223365194655 1.3783415582930125 -0.3165666272480072 1.4673803097987599 -0.2836987765658461 Z M -0.8592399677200739 -2.2620532631062416 L -0.8592554824005942 -2.239324256144067 L -0.8592787544213745 -2.175357228359053 C -0.8572385739329611 -2.123693342226602 -0.898693800283084 -2.0802056927283252 -0.9518781251065203 -2.0782353283022528 C -0.9960949645892485 -2.076583014826846 -1.0340826598430948 -2.104331020937323 -1.0469443299943866 -2.1433504424457657 C -1.0457186702332861 -2.1378737602221154 -1.0448420907838916 -2.1322264165127427 -1.0446326425968686 -2.1263928966371264 C -1.0428562116772995 -2.0752952963436644 -1.0830469915650214 -2.032482535448019 -1.1344393707883682 -2.0307371338894904 C -1.1759178691592713 -2.0293330553024074 -1.211586119675339 -2.055343417194616 -1.2248744435409384 -2.092237327471784 C -1.2241452535564863 -2.0879785476689734 -1.223338490169433 -2.083758554567464 -1.2232143727252707 -2.0793213559386707 C -1.2216861766940255 -2.028797798824458 -1.2606357821401275 -1.9866366545106637 -1.3102284584231243 -1.9851550025209792 C -1.3494650854588506 -1.9839836441417 -1.3832405449514473 -2.008814890314369 -1.3965288688170463 -2.0441961192408122 C -1.3960556710611787 -2.0407441028250553 -1.395357510437767 -2.0373774171521597 -1.3952721796949057 -2.033816797972761 C -1.3939922185519844 -1.983859526697538 -1.4317084068967258 -1.9423655136461142 -1.4794781082185933 -1.941124339204494 C -1.5204601368128485 -1.9400770982693767 -1.5553604106431633 -1.9690430068006939 -1.5653208355371673 -2.008814890314369 C -1.5638624555682634 -2.002500415342625 -1.5614731947681442 -1.9965815647241476 -1.5613335626434615 -1.989793891996536 C -1.5603095937291247 -1.940410663900562 -1.5967690929517253 -1.8995760247712494 -1.6427623633540236 -1.898583085217953 C -1.6822704972988543 -1.897745292469859 -1.714432430017344 -1.9272387001388651 -1.7237877823710583 -1.9667158047226556 L -1.7257426321166105 -1.9661805482447068 C -1.7243540682100478 -1.959881587953483 -1.72207341017357 -1.9539627373350055 -1.721964807409928 -1.9472138513086943 C -1.7212123454046957 -1.8983813943711896 -1.7564229128454159 -1.858221643844508 -1.8006087229671035 -1.857484696519796 C -1.8384878154573074 -1.8568408372782055 -1.869214640227674 -1.8860317086770664 -1.8781045521657804 -1.924965799442648 L -1.8811609442282708 -1.9241357640348142 C -1.8799275271269105 -1.9180772812916542 -1.8778097732358954 -1.9124066655615009 -1.8777399571735547 -1.9059603158053346 C -1.8772279727163865 -1.8577096593873397 -1.9111740936947055 -1.818209282782769 -1.9535679582163041 -1.8177128130061206 C -1.9898102519116214 -1.8172784019515538 -2.0190864540533435 -1.8461589797400093 -2.0275419549368827 -1.8845190273263412 L -2.0322118737734796 -1.8832468235236806 C -2.031149118157842 -1.8774986343909257 -2.0291865110720297 -1.8721227975906571 -2.029147724370729 -1.8660022561254164 C -2.028907246822665 -1.818333400226931 -2.0615889213385836 -1.7794846402042108 -2.1021908402600924 -1.7792208906353664 C -2.1367808204800025 -1.7790191997886031 -2.164606399993081 -1.8075041532237925 -2.172627489822053 -1.8452591282698345 L -2.179484978612006 -1.8434051239476639 C -2.178600641822352 -1.838013772466875 -2.176793181541742 -1.8329870159783124 -2.176793181541742 -1.827269856206598 C -2.176793181541742 -1.7801595288068421 -2.2082414389563 -1.7419779000464928 -2.2470358975971996 -1.7419779000464928 C -2.277483458118201 -1.7419779000464928 -2.3034240039480682 -1.7655136703957206 -2.3131361939537483 -1.798420307779183 C -2.318302582566994 -1.7524503093976656 -2.2839763519159275 -1.702462008761402 -2.2378201773681674 -1.7027257583302462 C -2.173922965645495 -1.7031058680029925 -2.157081779940757 -1.7383552221450134 -2.1549097246679216 -1.738587942352817 L -1.7283335837634932 -1.2231359540881046 L -1.7339654127923458 -1.0325691332578046 C -1.7339654127923458 -1.0325691332578046 -1.7338800820494842 -0.9997245545964235 -1.6964198859333273 -1.000050362887349 C -1.6800286259636774 -1.000182237671771 -0.4296074347531553 -1.1281628372833596 -0.4296074347531553 -1.1281628372833596 L -0.4296074347531553 -1.2769563808128714 L -0.43091842525711743 -1.3687955321525245 L -0.6174126424508499 -1.6506662478445286 L -0.8667102863905773 -1.5930602390728195 L -0.9301420576976425 -1.604804852226653 L -0.6411190742858004 -1.6865284318670994 L -0.6670673774559279 -1.725710757521005 L -1.0380544180562803 -1.624780003396482 L -1.1291178353699205 -1.6416444611219998 L -0.6926122989325285 -1.7643423120164416 L -0.7138363818842384 -1.79642667133233 L -1.2336479953751422 -1.6609912677307586 L -1.349325453334168 -1.6824170415292317 L -0.7451837938754147 -1.8437852336204104 L -0.7683937559337171 -1.8788871982974888 L -1.458851340466913 -1.7026869716289457 L -1.5651036300098837 -1.7223440718481093 L -0.7976389287143992 -1.9230807657594369 L -0.8801925437626792 -2.0478575838435926 C -0.8801925437626792 -2.0478575838435926 -0.8326865920096564 -2.067429353319895 -0.815418752590612 -2.0800195165620825 C -0.7711088250247617 -2.0234452340449702 -0.5023480143723735 -1.615013512008981 -0.4331602965922936 -1.5246172259577118 L -0.4352625358027886 -1.692749818755722 L -0.47858728115560245 -1.6827350924798972 L -0.5063973459881606 -1.724616972544327 L -0.4358986377041192 -1.7445533370128554 L -0.4364494088625881 -1.7884598828851788 L -0.5315931871530557 -1.7625891531176525 L -0.5579060853154094 -1.8022214045066456 L -0.4370467240626177 -1.836183040165485 L -0.4374501057561446 -1.8684380609670965 L -0.5776097295761338 -1.831916503022415 L -0.60953894208682 -1.8800275273157276 L -0.4381637810600769 -1.9258113495310019 L -0.43863697881594454 -1.9630388254393554 L -0.6319111113970288 -1.9137176560654625 L -0.6617148126764401 -1.9586171414910825 L -0.43931186741857564 -2.0168127081225613 L -0.4400798441043283 -2.079367899980232 C -0.5127971517027663 -2.11568776707815 -0.8592399677200744 -2.262053263106242 -0.8592399677200744 -2.262053263106242 M -1.7246643618204531 -1.346826744535842 L -2.057283597494213 -1.7544904898860787 C -2.025695707954973 -1.7519383249404967 -1.7138196001367942 -1.7135317333126037 -1.7138196001367942 -1.7135317333126037 Z M -1.6410635058370557 -1.4659872482716652 L -1.0500472660984383 -1.387925133233999 L -1.0500472660984383 -1.2671666174045892 L -1.2616597510544647 -1.244802205434641 L -1.651396283063546 -1.244802205434641 Z M -1.635788514460169 -1.0602783526669808 L -1.4195759267298866 -1.1868238443304457 L -1.1989649270721114 -1.2122291336823643 L -1.4150301253374515 -1.0831935357953983 Z M -0.754888226540835 -1.2633887926979073 L -0.5055673105803273 -1.2921064663409003 L -0.7128899863725031 -1.15612804892112 L -0.9745761027076547 -1.1289463286496322 Z M -1.0921308370096312 -1.1167440324204512 L -1.2976460525211975 -1.0953958320245794 L -1.0853509216222796 -1.2253312813817203 L -0.8684944746504066 -1.2503021596790715 Z M -0.8845444116486112 -1.5172632673911102 L -0.8845444116486112 -1.450379479668288 C -0.8845444116486112 -1.450379479668288 -1.535470590216196 -1.599258353940661 -1.5867543666759008 -1.6228949697132706 Z M 1.4983708841379695 -1.7984668518207432 L 0.5766592291101036 -2.083083665964833 L 0.563378662584765 -2.1286425253125634 L 1.380110231872321 -1.9501461259270223 C 1.380110231872321 -1.9501461259270223 0.6910412112456883 -2.179910787091748 0.535599627113247 -2.223964722429014 L 0.5058036831740962 -2.306944991191601 C 0.5058036831740962 -2.306944991191601 1.2523235657672354 -2.0820364250297154 1.450290889205697 -2.025128576881418 C 1.4553952190968618 -2.023654682231993 1.4637964185985797 -2.0210637305851105 1.4569622018294073 -1.9790344610557382 C 1.467380309798759 -1.908613326174298 1.4983708841379695 -1.7984668518207432 1.4983708841379695 -1.7984668518207432 M -0.2541131260482845 -2.1796237655021233 L -0.2959717340919341 -1.1735975791869278 L -0.32230014693480746 -2.1605872525037695 L -0.2541131260482845 -2.179623765502123" fill="#2b343d" transform="matrix(1,0,0,1,0,0)" fill-rule="nonzero"></path></g></g></g></g><defs><clipPath id="SvgjsClipPath50574"><path d=" M -2.32137038435571 -2.4230335881844134 h 4.64274076871142 v 2.2355335881844134 h -4.64274076871142 Z"></path></clipPath><clipPath id="af594872a-562f-481d-b66c-4cba80452b6cd6ca97c1-6fb5-42d0-b290-7b70bad00f75"><path d=" M -2.3213744893100046 -0.1875000000000009 L 2.32137814169597 -0.1875000000000009 L 2.32137814169597 -2.4230335881844134 L -2.3213744893100046 -2.4230335881844134 Z"></path></clipPath></defs></svg>