<?xml version="1.0" encoding="UTF-8" standalone="no"?>
<!-- Created with Inkscape (http://www.inkscape.org/) -->

<svg
   version="1.1"
   id="svg2"
   width="5333.3335"
   height="5333.3335"
   viewBox="0 0 5333.3335 5333.3335"
   sodipodi:docname="Map.eps"
   xmlns:inkscape="http://www.inkscape.org/namespaces/inkscape"
   xmlns:sodipodi="http://sodipodi.sourceforge.net/DTD/sodipodi-0.dtd"
   xmlns="http://www.w3.org/2000/svg"
   xmlns:svg="http://www.w3.org/2000/svg">
  <defs
     id="defs6" />
  <sodipodi:namedview
     id="namedview4"
     pagecolor="#ffffff"
     bordercolor="#000000"
     borderopacity="0.25"
     inkscape:showpageshadow="2"
     inkscape:pageopacity="0.0"
     inkscape:pagecheckerboard="0"
     inkscape:deskcolor="#d1d1d1" />
  <g
     id="g8"
     inkscape:groupmode="layer"
     inkscape:label="ink_ext_XXXXXX"
     transform="matrix(1.3333333,0,0,-1.3333333,0,5333.3333)">
    <g
       id="g10"
       transform="scale(0.1)">
      <path
         d="m 18118,21912.2 c 75.1,-21.1 118.6,-28.5 158,-45.5 63.5,-27.5 92.7,-79.6 89,-149.5 -4.2,-79.4 -49.3,-120.1 -122.8,-141.6 -132.5,-38.7 -263.8,-81.7 -400.8,-124.5 107.9,-156.6 92.9,-242.6 -48.3,-333.8 -101.7,-65.7 -205.8,-127.6 -333.2,-206.3 302.9,-119.6 581.2,-229.5 883.1,-348.7 -14.4,79.9 -24.2,128.4 -31.6,177.3 -7.5,50.3 -16.6,100.9 -18.1,151.6 -4.5,157.8 91.1,215.1 229.5,139.4 50.1,-27.5 99.8,-55.7 149.7,-83.5 -13.1,125.7 -50,225.2 -82.8,326 -26,80.1 -58,160.6 -67.2,243.1 -11.3,100.9 64.3,155.9 163.2,132.3 36.7,-8.8 72.1,-22.9 135.1,-43.4 -53.4,283.5 -102.7,544.6 -155.9,827.1 -182.8,-173.8 -351.9,-334.6 -546.9,-520 z m -7628.5,9702.1 c 83.8,19.9 148.2,33.8 211.8,50.5 432.1,113.2 861.6,236.9 1296.6,337.4 358,82.8 721.9,140.7 1084,205.2 568,101.3 1135.5,205.8 1705.4,295.5 317.5,50 639.7,69.3 959.1,108.4 522.3,63.8 1043.7,134 1566,197.3 72.7,8.9 111.8,36.7 133.7,105 39.7,123.3 86.3,244.4 127.5,367.2 13.1,39.1 18.6,80.8 28.7,126.4 -251.2,-31 -485.6,-63.6 -720.8,-87.9 -280.9,-29.2 -563.3,-45.5 -843.9,-77.9 -398.7,-46.1 -797.2,-95.8 -1194,-155.5 -323.8,-48.7 -644.6,-116.5 -967.5,-171.6 -245,-41.9 -491.5,-74.8 -736.7,-115.8 -518.8,-86.8 -1037.3,-176 -1555.8,-265.1 -217.1,-37.3 -433.8,-77 -650.7,-115.4 -78.1,-13.9 -138.8,-54.8 -169.1,-127.6 -90.3,-216.8 -176.9,-435.2 -274.3,-676.1 z m 14708.3,-2132.1 c 27.3,78.2 49.2,135.2 67.2,193.3 52.8,171 110.8,340.7 153.7,514.2 36.8,149.2 32.3,158.9 -106.3,220 -175.1,77.2 -357.6,137.6 -534.8,210.4 -156.3,64.3 -307.6,140.5 -464.7,202.6 -177.8,70.4 -361.9,125.4 -539.1,197.2 -281.9,114.2 -560.6,236.4 -840.3,356 -160.7,68.7 -319.3,142.8 -481.6,207.6 -167.6,67 -339.6,122.9 -507.7,188.9 -230.8,90.7 -459.7,186.4 -689.5,279.8 -36.1,14.7 -72.7,28.4 -108.6,43.8 -254.2,109.1 -505.2,226.3 -763.1,325.7 -336.8,129.9 -683.1,235.4 -1017.7,370.2 -382,154 -755.3,329.1 -1133,493.7 -65.7,28.5 -134.3,50.2 -214.6,79.8 -77.9,-233.1 -150.2,-449.5 -221.6,-663.2 136,-49.6 252.4,-92.5 369.1,-134.3 159.9,-57.3 320.1,-113.9 480.2,-170.7 212.5,-75.3 431,-137.1 636.3,-228.4 444.5,-197.7 879.3,-417 1323.3,-615.6 656.2,-293.6 1317.5,-575.6 1975.6,-865 362,-159.1 723.1,-320.4 1082.3,-485.8 431.4,-198.8 860.2,-403.1 1290.2,-605 75.7,-35.6 151.4,-71.3 244.7,-115.2 z m 4603.4,-8122 c 41.3,72.5 81.5,132.1 110.8,196.5 126.3,277.5 248.3,556.8 374,834.5 125.5,277.3 258.7,551.3 378.7,831 82.2,191.7 161.7,386.6 217.1,587.1 84.1,304.2 157,612.5 214.6,922.7 61.8,332.2 110.2,663.3 91.1,1009 -19.7,355.7 -146.8,659.9 -315.6,953.8 -115,200.2 -265.7,382.6 -462.7,509.5 -427.8,275.6 -888.4,283.2 -1349.4,108.2 -389,-147.6 -686.7,-416.4 -916.1,-766.8 -172.9,-264.2 -229.5,-555 -212.1,-857.1 21.8,-379.7 123,-749.8 245.5,-1106.1 135.1,-393.2 308.1,-775.6 491.6,-1149.4 197.9,-403.1 426.7,-791.2 642.9,-1185.3 157,-286.4 315.5,-572.1 489.6,-887.6 z m -19224,-7281.5 c -192.3,56.8 -373.3,102.3 -548.7,163.6 -460.81,161.1 -941.02,241.6 -1415.37,344.7 -453.9,98.7 -918.4,128.4 -1381.16,132.1 -604.98,4.8 -1210.2,-17.3 -1815.27,-30.1 -220.44,-4.7 -443.37,2.8 -660.53,-27.9 -425.63,-60.3 -847.3,-148.1 -1272.25,-214 -107.09,-16.6 -155.63,-68 -192.04,-159.1 -98.46,-246.3 -203.73,-489.8 -302.56,-736 -30.7,-76.4 -49.44,-157.7 -77.05,-247.9 40.64,-2.8 67.91,-8.9 94.09,-5.8 376.86,44.5 753.08,94.9 1130.44,134.4 416.45,43.7 833.29,97.7 1251.1,110.6 479.86,14.7 960.99,-9.4 1441.51,-19.1 192.25,-3.9 385.72,-2.6 576.24,-24.5 404.5,-46.5 808.56,-99.5 1210.54,-164 217.52,-34.9 438.88,-17.8 655.27,-83.6 242.82,-74 495.84,-114.8 744.94,-167.5 160.1,-33.8 189.5,-15.3 241.8,127.9 102.5,280.5 206.3,560.5 319,866.2 z m 1616.1,4507 c -70.7,13.1 -124.7,25 -179.2,33 -338.8,49.8 -678.7,27.1 -1015.5,-8.8 -217.5,-23.2 -436.7,-71.2 -643.9,-141.4 -438.3,-148.5 -813.96,-409.1 -1168.64,-702.6 -497.44,-411.5 -950.77,-869.7 -1404.92,-1326.6 -422.35,-424.8 -834.74,-859.6 -1249.27,-1292.2 -68.55,-71.5 -125.59,-154.1 -211,-260.2 755.52,22.6 1473.68,15.6 2189.27,-101 720.35,-117.3 1415.87,-327.7 2130.46,-518.4 516.8,1437.3 1031.8,2869.4 1552.7,4318.2 z m 4241.1,11588.5 c 302.2,823.2 598.5,1630.2 899.6,2450.5 -56.5,0 -95.5,4.6 -133.2,-0.8 -167.3,-23.9 -333.7,-53.3 -501.2,-75.7 -532.7,-71.6 -1065.7,-141.8 -1598.9,-210.2 -89.6,-11.5 -182.1,-3.4 -271.1,-17.7 -312.1,-50.1 -622.5,-111.9 -935.1,-158.7 -794.7,-118.9 -1584.3,-264.9 -2365.6,-452.1 -384.5,-92.1 -763.7,-205.8 -1145.4,-309.8 -154.9,-393.7 -300.3,-783.9 -461.44,-1167.4 -160.66,-382.3 -341.63,-756.1 -505.38,-1137.2 -162.71,-378.7 -315.08,-761.9 -471.99,-1143 9.65,-8.8 19.3,-17.6 28.95,-26.4 92.54,50.5 183.97,103.2 277.84,151.2 297.44,151.9 587.08,323.4 895.42,448.6 823.4,334.4 1684.4,531.1 2565.9,634.3 568.2,66.5 1095,233.6 1556.3,582.4 94.8,71.7 194.8,136.9 295,201.1 271.4,173.8 566,279.6 888,317.1 325.6,37.9 643.8,11.9 982.3,-86.2 z m 347.2,-208.7 c 65.4,-121.3 130,-222 176.4,-330.4 159.5,-372.3 377.3,-710.1 604.8,-1042.2 156.6,-228.5 374.6,-377.5 640.1,-450.6 124.9,-34.4 254.7,-55.3 383.6,-70.3 376.2,-43.8 746.2,8.7 1114.2,82.8 206.2,41.4 414,76.7 624.3,41.7 533,-88.8 992.2,-310.6 1327.3,-750.7 61.8,-81.1 130,-157.9 186.4,-242.6 279.5,-419.6 560.2,-838.6 832.3,-1263 196.9,-307.1 418.8,-592.3 683.9,-842.7 122.7,-116 253.3,-222.7 436.5,-282.6 30.7,115.6 55.8,222.5 87.8,327.4 60.6,198.9 127.9,395.8 187.1,595.1 55.7,187.6 101.2,378.3 157.1,565.9 62.5,209.9 133.5,417.2 197.4,626.6 104.8,343.4 203.5,688.8 311.5,1031.1 65.6,208.1 147.5,410.9 215.1,618.4 36.4,111.7 55.9,228.7 86.8,342.3 32.2,118.3 69,235.3 105.3,357.9 -51.4,30.7 -87.9,56.6 -127.7,75.7 -188.4,90 -377.8,177.9 -566.6,267.1 -184.2,87.1 -366.8,177.7 -552.5,261.3 -190.2,85.6 -384.4,162.2 -574.9,247 -283.9,126.3 -565.6,257.6 -849.2,384.5 -304.8,136.3 -611.4,268.2 -915.8,405.3 -608.4,274 -1215.5,550.7 -1823.6,825.5 -293.7,132.7 -585.3,270.9 -883.4,393 -214.1,87.8 -437.5,152.8 -656.6,228.4 -158.3,54.8 -315.5,113.9 -486.4,123.6 -309.8,-849.2 -616.7,-1690.6 -921.2,-2525.5 z M 10557.2,12948.4 c 135.9,-78.5 256.5,-150.2 379,-218.3 265.9,-147.6 533.9,-291.6 799.1,-440.6 142.1,-79.9 278.9,-169.1 420.2,-250.3 131.7,-75.7 270.2,-140 398.6,-220.7 238.6,-149.9 470.6,-310.1 707.7,-462.3 455,-292 914.9,-576.3 1366.5,-873.4 324.2,-213.2 638.4,-441.6 956.5,-664.1 268.2,-187.5 534.5,-377.8 803.7,-563.8 148.1,-102.3 304,-193.4 450.3,-298.2 265.7,-190.1 525.7,-388.2 790.2,-580.1 182.4,-132.3 368.7,-259.2 552.8,-389.1 117.8,-83.2 235,-167.3 354.8,-252.7 29.9,66.2 57.8,115.9 75.5,169 124.2,372 247.7,744.3 368.6,1117.5 127.9,394.9 253.3,790.6 378.9,1186.3 132.8,418 264.5,836.5 396.8,1254.7 50.8,160.9 102.5,321.5 152.7,482.5 90.2,289.4 180.1,579 269,868.8 24,77.9 44.3,156.9 71.8,255 -63,-11.1 -100.9,-14.9 -137.1,-24.5 -350,-93.5 -698,-194.8 -1049.8,-280.6 -496.1,-121.1 -1000.9,-182.1 -1511.8,-199.4 -550.9,-18.8 -1021.8,182 -1427.6,531.9 -633.3,546.1 -987.9,1267.1 -1221.2,2053.5 -94.7,319.1 -150.7,649.8 -249.7,967.4 -93.8,300.8 -164.1,608.6 -303.7,897.4 -102.6,212.1 -232.5,397.3 -376.8,578.3 -194,243.3 -445.9,418.5 -702,583.8 -212.5,137.1 -447.6,235.1 -692.1,302.4 -144.5,-312.3 -1569.5,-4203.1 -1572.9,-4383 28.3,-12.8 58.7,-26.6 89.1,-40.4 375.8,-169.5 756.3,-329.3 1125.9,-511.4 348.8,-171.8 688.6,-362.3 1027.4,-553.5 260,-146.8 508.9,-313.2 768.5,-460.6 531.7,-301.8 1035.6,-644.4 1523.3,-1012.1 175.8,-132.5 353,-263.6 534.9,-387.6 429.3,-292.6 869.8,-569.5 1291.1,-873.1 490.5,-353.3 964.6,-729.2 1447.8,-1092.7 85.5,-64.2 105.4,-137.7 74.4,-233.6 -106.3,-48.7 -167.1,31.5 -228.9,78.3 -328.8,248.8 -651.3,505.9 -979.4,755.9 -265.4,202.3 -531,405 -804.7,595.7 -416.7,290.3 -843.4,566.2 -1260.1,856.5 -259.4,180.8 -499.7,389.8 -763.6,563.2 -400.6,263.2 -812.2,509.8 -1223,757.1 -294.5,177.3 -590,354.2 -894.5,513.4 -454.7,237.9 -916.5,462.4 -1377.8,687.5 -140.2,68.4 -288.6,120.1 -443.6,183.7 -120.4,-330.3 -236.2,-648.1 -354.8,-973.7 z M 16355,29943.6 c -50,19.6 -75.1,32.3 -101.6,39.5 -330,89.2 -661.3,81.6 -993.3,11.8 -307.3,-64.6 -569.3,-222.3 -814.1,-408.4 -506.6,-384.9 -1080.8,-587.6 -1708,-656.1 -1396.4,-152.5 -2697.3,-584.4 -3888.59,-1333.9 -49.21,-30.9 -95.61,-81.7 -119.95,-134.1 -90.26,-194.4 -172.37,-392.7 -254.16,-590.8 -39.76,-96.4 -72.03,-195.8 -117.8,-321.6 442.18,124.4 852.09,239.6 1263.14,355.2 3.01,-228.2 -121.1,-317.9 -306.61,-349.3 -11.16,-1.9 -22.28,-4.3 -33.22,-7.2 -311.34,-82.2 -623.38,-161.9 -933.28,-249.2 -55.39,-15.6 -125.88,-51.4 -148.21,-97.7 -91.98,-190.7 -168.08,-389 -263.91,-617.7 469.51,129.6 909.35,251 1371.17,378.5 -37.83,-111.1 -64.78,-190.2 -96.05,-282 -411.28,-106.7 -819.74,-221.1 -1232.94,-314.6 -124.2,-28.2 -180.89,-93.2 -224.01,-194.7 -176.51,-415.8 -355.05,-830.7 -529.69,-1247.2 -236.77,-564.7 -470.99,-1130.4 -705.66,-1696 -194.48,-468.7 -388.3,-937.7 -581.42,-1406.9 -15.71,-38.2 -23.68,-79.5 -38.2,-129.6 30.05,8.3 42.55,8.7 51.22,14.6 37.36,25.7 73.82,52.6 110.2,79.7 706.93,525.5 1445.8,993.6 2257.46,1347.8 988.83,431.5 1983.11,836.3 3053.41,1024.7 781.5,137.6 1559,300.1 2359.7,266.8 82.4,-3.5 165.7,14.3 243.9,21.8 119.5,339 231.2,663 347.9,985.1 99.7,274.9 205.5,547.7 308.1,821.6 96.9,258.7 190.8,518.5 291,775.9 48,123.3 42,168.5 -82.7,203.6 -151.7,42.7 -308.6,68.5 -464.4,94.6 -81.9,13.8 -166.3,12.6 -276.1,20 41.3,96.1 73.2,170.7 105.2,245.3 299.5,-12.3 575.5,-57.3 855.5,-178.5 83.8,230.2 161.5,443.9 239.8,659 -256.9,169.1 -545.5,122.6 -812.2,166.6 38.3,256.6 44.4,261.5 277.2,239.8 28.2,-2.6 56.8,-4.2 84.4,-9.9 180.8,-37 361.4,-75 555.5,-115.5 313.3,852.7 629.3,1712.8 951.3,2589 z m -2452.6,-6673.3 c -275.7,0 -525.5,14.4 -773.1,-2.8 -736.6,-51 -1459.2,-197.7 -2179.3,-351.6 -768,-164 -1490.26,-464 -2214.03,-762.1 -1030.42,-424.4 -1968.21,-999.3 -2844.73,-1681.3 -105.83,-82.3 -181.24,-179.8 -226.15,-308.6 -64.98,-186.4 -142.36,-368.5 -217.73,-551.1 -152.41,-369.2 -309.11,-736.6 -460.2,-1106.4 -179.06,-438.1 -354.4,-877.8 -530.73,-1317.1 -109.12,-271.8 -216.66,-544.3 -325.67,-816.2 -153.26,-382.2 -307.68,-764 -460.71,-1146.4 -80.79,-201.9 -159.69,-404.5 -250.54,-635 90.19,13.4 145.15,18.7 198.84,30 716.29,150.6 1438.11,258.7 2171.95,248.3 213.72,-3.1 391.1,31 496.19,237.2 4.96,9.7 14.7,17.1 22.52,25.3 234.03,244.6 468.64,488.7 701.97,733.9 159.65,167.9 313.61,341.3 477.07,505.2 283.64,284.6 574.5,561.9 858.97,845.7 348.18,347.3 716.91,670 1114.81,959.4 304.18,221.2 629.57,403.5 994.67,497.9 486.6,125.8 981.8,160.2 1482.5,99.4 100.4,-12.2 201.9,-14.4 316.5,-22.1 547.2,1501.4 1093.5,3000.2 1646.9,4518.4 z m 16624.1,-1302.8 c 1014,-237.1 2016.2,-471.5 3027.8,-708 70.9,391.7 143.6,780 211.2,1169.3 101.7,585.1 196.7,1171.4 300.4,1756.2 82,462 174.4,922.1 259.2,1383.6 55.2,300.2 103.4,601.6 158.1,901.9 29.4,161.2 70.2,320.5 98.4,481.9 74.6,428.1 142,857.4 218.3,1285.1 53.7,300.8 119.7,599.4 174.6,900.1 12.6,68.6 1.9,141.5 1.9,221.2 -396.8,-37.8 -779.1,-78.6 -1162.2,-109.7 -530.5,-43.1 -1061.5,-81.9 -1592.5,-117 -327.3,-21.6 -655.1,-36.1 -982.8,-48.1 -350.5,-12.8 -701.3,-20 -1052,-27.5 -186.5,-4 -373.1,-6.5 -559.6,-4.3 -203.7,2.4 -407.4,17.6 -611,15.4 -333.4,-3.6 -666.7,-16.8 -1000.1,-25.8 -123.9,-3.4 -248,-10.5 -371.8,-8.3 -192,3.5 -383.8,17.3 -575.8,19.9 -271,3.7 -542.1,3.9 -813.1,0.4 -212.9,-2.7 -425.8,-13.4 -658,-21.1 -458.4,-1503.5 -916.4,-3006 -1373,-4503.8 707.4,-394.5 1453.2,-657.6 2188.3,-945.3 730.6,-285.9 1459.4,-577.4 2244.1,-815.1 -80.8,153 -145.5,270.7 -205.6,390.6 -124,247.4 -258.3,490.8 -364.9,745.7 -121.4,290.6 -255.3,577.8 -316.8,891.4 -40.1,204.7 -104.9,404.5 -147.7,608.8 -92.7,442.5 -38,867.9 179.5,1266 163.3,298.8 412.7,517.2 687.8,711.5 425.9,300.8 896.3,414.4 1409.3,342.4 307.4,-43.2 586.8,-158.1 831.9,-357.1 310,-251.7 531.8,-563.6 678.1,-932.4 109.7,-276.4 181.5,-561.8 165.9,-860.5 -24.4,-464.6 -97.6,-923.2 -198.7,-1377 -20.9,-93.5 -55,-183.9 -82.8,-275.8 -65,-215.2 -119.8,-434.2 -197.7,-644.6 -74.3,-200.4 -171.7,-392.3 -260.7,-587.2 -58.5,-128.2 -123.5,-253.6 -179.2,-382.9 -46.4,-107.8 -83.6,-219.5 -128.8,-339.9 z m -7654.7,-214.4 c 282.2,949.6 561.3,1888.5 841.7,2832 -11.9,10.2 -23.1,24.4 -37.6,31.6 -467.6,232.2 -794.7,612.7 -1083.6,1031.5 -115.7,167.8 -214.4,347.3 -329.3,515.7 -261.7,383.6 -522.9,767.8 -795.5,1143.6 -179.8,247.9 -421.8,420.5 -709.4,535.6 -343.7,137.6 -689.6,163.6 -1049.2,81.8 -355.2,-80.8 -715.1,-115.1 -1080.2,-90.7 -592.6,39.7 -1063.9,273.8 -1374.9,803.1 -177.9,302.8 -374.7,594.1 -509.9,920.4 -13.4,32.3 -41.3,58.5 -77.8,108.6 -313.7,-858.4 -618.2,-1691.5 -923.6,-2527.1 171.5,-109.2 326,-207.6 485.7,-309.3 -37.7,-84.9 -67.1,-150.9 -99.2,-223.1 -163.1,93.1 -316.7,180.8 -488.9,279.1 -64.3,-250.9 -193.1,-452.5 -219.8,-674.9 141.5,-99.2 265.1,-185.8 391.2,-274.1 -33.6,-83.1 -60.4,-149.2 -93,-229.8 -139.3,92 -267.8,176.9 -408.7,269.9 -319.8,-866.4 -630,-1706.8 -946.5,-2564.5 662.7,-112.5 1257.8,-354.2 1847.3,-620.7 595.6,-269.3 1115.2,-651.6 1637.2,-1041.2 -68.5,142.2 -9,235.5 88.5,322 159.5,141.7 315.9,286.9 473.9,430.2 95.4,86.4 186.9,178 288.8,256.1 79.9,61.3 126.5,46.3 176.1,-43.2 23.7,-42.6 38.7,-92.9 45.4,-141.4 38.6,-280 73.1,-560.5 109.9,-840.7 10.3,-78.5 28.9,-156.4 33.8,-235.1 10.3,-162.4 -13,-186.9 -179.4,-218.4 -8.7,-1.6 -15.4,-14.1 -26.3,-24.7 7.4,-201 196.7,-383.8 53,-600.4 69.1,-56.2 122.9,-106.4 182.8,-147.7 680.9,-469.6 1359.6,-942.7 2046.5,-1403.5 201.1,-134.9 425,-236.3 641.2,-347.6 51.9,-26.7 115,-31.7 183.6,-49.5 137.4,532.6 338.3,1027.4 442.1,1557 -287.9,268.4 -572.3,533.5 -861.3,803 43.9,74.9 83.1,141.9 133.1,227.3 266.8,-256.1 527.6,-507.8 814.9,-744 18.9,39.5 31.1,58.7 37.6,79.7 79.1,252.5 156.3,505.6 236.4,757.8 19.4,61.2 -8.7,98.1 -52.9,129.1 -111.2,77.9 -226.6,150.2 -334.4,232.4 -114.3,87.2 -255,146.3 -328.5,282.4 37.9,69.5 72.2,132.5 115.8,212.7 222.9,-192.4 439,-362.8 703.4,-491 z m -8573.9,1484.2 c -558.9,-1524.8 -1118.8,-3052.6 -1681.8,-4588.8 71.6,-30.8 121.4,-56.1 173.6,-74.1 440.6,-152.2 821.9,-401.8 1158.5,-719 371.6,-350.3 597.7,-792.6 746.1,-1272.7 103.4,-334.5 177.7,-677.9 263,-1017.8 88.1,-350.9 211,-690.2 343.7,-1025.8 199.2,-503.9 518.7,-925 918,-1285.7 292.6,-264.3 635.8,-431.5 1032.8,-459.4 754.5,-52.9 1486.3,86.8 2210,281.4 240.2,64.6 477.6,139.8 717.9,204.1 92.7,24.8 169.3,54.7 184.8,163.4 4.7,32.9 21.8,63.8 31.6,96.1 55.3,183.1 106.7,367.3 165.9,549.1 66.3,203.5 160,400.3 205.1,608 87.4,403.1 233.6,787.4 346.4,1182.2 79,276.3 193.4,544.3 252.1,824.4 58.6,279.7 190.9,534.4 236.2,818.6 29.7,186.4 121.8,362.2 174.8,545.9 44.8,155.1 120.6,305.1 106.4,459 -1202.2,585.7 -2217.5,1431.6 -3297.3,2179.6 -7.2,-12.2 -12.8,-17.3 -12.4,-21.8 5.5,-67.1 12.3,-134.2 17.7,-201.3 14.5,-179.6 -59.4,-243.3 -232.8,-193.1 -58.4,16.9 -110.6,54.1 -166.7,79.8 -54.2,25 -109.8,47.2 -181.5,77.8 -167.8,-420.7 -329.2,-825.5 -497.2,-1246.8 -64.7,37.4 -120.5,69.7 -193.3,111.8 160.5,404.3 317.5,799.5 480,1208.8 -159.2,67.6 -320.3,145 -488,203.7 -88.7,31 -175.9,43.4 -193.7,157 -17.4,111.6 75.3,140.6 138.5,191.3 21.5,17.3 50.7,24.5 74.3,39.6 64.8,41.5 128.4,84.7 199.3,131.8 -26.8,17.1 -35.5,26.4 -45.6,28.4 -94.9,18.8 -132.6,78.1 -122.1,171.2 9.7,84.8 55.9,128.4 142.9,140.2 57.1,7.7 111.6,34.5 177.5,56.1 -759.4,774.8 -2692.7,1616.4 -3384.7,1597 z m 20993.4,6319.5 c -56.7,-307.9 -109.4,-595.8 -162.7,-883.6 -81.5,-439.5 -164.8,-878.6 -244.7,-1318.4 -48.5,-266.8 -89.7,-535 -138.8,-801.8 -36.9,-200.3 -86.8,-398.3 -121,-599 -75.9,-446.1 -141.1,-894 -219.3,-1339.7 -73.2,-417.6 -160.4,-832.9 -236,-1250.1 -42.4,-233.8 -68.2,-470.6 -111.1,-704.2 -98,-534.2 -206.8,-1066.5 -302,-1601.2 -67.3,-377.5 -116.1,-758.2 -179.3,-1136.4 -55,-329.2 -118.6,-656.8 -178.6,-985.1 -82.3,-450.2 -168.6,-899.6 -246.1,-1350.6 -82.5,-479.7 -154.3,-961.2 -235.8,-1441.1 -27.5,-161.5 -77.9,-319.2 -105.2,-480.8 -72.4,-429.6 -135.5,-860.9 -207.3,-1290.6 -28.9,-172.9 -76.2,-342.6 -105.8,-515.4 -64,-373.2 -119.6,-747.8 -182.9,-1121.1 -85,-501 -173.5,-1001.4 -261.8,-1501.9 -54.1,-306.2 -108.7,-612.4 -166.8,-917.9 -77,-405.3 -157.6,-809.9 -236.9,-1214.7 -33.4,-170.5 -67.4,-340.9 -100.4,-507.2 -249.2,0 -485.4,-6.1 -721.2,1.6 -277.2,9.2 -553.8,35.4 -831,45.4 -548.7,19.9 -1097.8,29 -1646.3,51.3 -854.3,34.7 -1708.1,84.4 -2562.6,113.6 -961.4,32.9 -1923.3,56.5 -2885.2,71.5 -458,7.2 -916.7,-9.2 -1374.8,-24.9 -509.1,-17.5 -1017.7,-48.7 -1526.7,-68.9 -191.8,-7.7 -384.2,-1.3 -568.3,-1.3 -119.5,-219.9 -376.9,-1035.5 -377.4,-1183.1 95.6,0 191.8,-6.6 286.8,1.2 314.9,26 628.9,65.8 944.3,83.9 304.1,17.3 609.4,15.2 914.2,19.9 288.1,4.4 576.3,8 864.5,8.9 107.4,0.4 214.7,-11.8 322,-11 332.8,2.3 665.6,14.9 998.3,10.4 310.7,-4.2 621.3,-22.4 931.8,-39.1 486,-26.2 972,-55.3 1457.8,-85.2 281.9,-17.4 563.7,-36 845.2,-59.3 151.9,-12.6 302.5,-42.8 454.5,-53.2 208.2,-14.2 417.4,-13.4 625.7,-26.4 134.3,-8.4 267.5,-34.6 401.8,-44.5 197,-14.5 395,-16.5 591.9,-32.7 620.5,-51.1 1240.9,-103.4 1860.9,-160.8 422.3,-39.2 843.6,-89.1 1265.5,-131.8 326.3,-33.2 652.6,-67.1 979.6,-92 149.6,-11.4 157.8,0.7 185.3,154 56.7,316.1 116.9,631.9 161.5,949.7 71.3,508.6 138.2,1017.3 236.8,1522 71.4,365.6 81.1,740.5 161.3,1107.2 69.6,318.5 91.4,647.2 141.1,970.5 62.5,406.6 150,810.4 190.3,1219 18.7,190.4 37.3,378 73.2,566.4 46.6,244.2 68.8,492.9 103.8,739.3 58.6,412.3 120.1,824.1 178.1,1236.5 49.7,352.6 92.9,706.1 145.2,1058.3 44.4,299.2 99.4,596.7 146,895.5 12.9,82.7 8.5,168 19.2,251.1 46.7,362.1 139.9,717.6 153.3,1084.5 2.1,56.4 12.7,112.6 21.3,168.6 67.8,440.9 135.3,881.9 204.7,1322.6 18.2,115.8 47.3,230 63.7,346 87.9,620.2 171.8,1241 260.4,1861.1 27.8,194.6 71.5,386.9 98.6,581.6 57.5,413.6 104.7,828.7 163.7,1242 72.4,506.7 151.9,1012.4 229.5,1518.3 18.7,121.8 44.3,242.6 62.1,364.5 11.2,76.8 9.5,155.5 20.9,232.2 49.7,334.5 102.9,668.5 152.9,1002.9 19.3,128.7 29.3,258.9 50.7,387.3 51.7,310.4 121,618.6 158.5,930.7 47.7,397.5 116.8,790.9 182.5,1185.4 39.5,237.3 58.7,478 88.4,729.1 -59.5,0 -99,5.4 -136.5,-0.8 -279,-46.5 -557.6,-95.2 -836.3,-143.3 -44.3,-7.7 -88.3,-20.7 -132.9,-23 -288.1,-15.2 -576.4,-28.5 -864.7,-41.5 -724.3,-32.6 -1448.6,-67.7 -2173.1,-95.9 -440.8,-17.2 -882.2,-23.2 -1323.3,-34.8 -440.9,-11.6 -882.1,-18.1 -1322.6,-37.5 -367.3,-16.2 -733.7,-49.8 -1100.7,-71.9 -191.8,-11.5 -384.1,-16.3 -576.2,-21.2 -175.3,-4.4 -350.7,-5 -526.1,-7 -214,-2.4 -428.2,-8.1 -642.2,-5.8 -287.3,2.9 -574.6,12.1 -865.4,18.8 -93.9,-304.7 -187.9,-609.6 -283.3,-918.9 47.2,-12.1 74.5,-26.1 101.1,-24.8 123.9,5.7 247.6,20.3 371.5,23 275.9,5.9 552,9.4 828.1,8.5 254.6,-0.9 509.3,-15 763.9,-12.4 315.9,3.3 631.6,19.6 947.4,26.7 197.1,4.4 394.4,5.1 591.5,2.2 175.1,-2.6 350.1,-17.4 525.2,-17.5 135.2,0 270.4,20.4 405.7,21.4 249.1,1.9 498.7,-14.4 747.2,-3.7 400.9,17.4 801,50.8 1201.5,76.8 378,24.6 756.2,47.3 1134.1,73 294,20 589,33.6 881.5,67.6 365.3,42.4 729.9,82.7 1122.8,83 z M 32561.7,15569.3 c 92.4,506.9 178.6,979.4 264.8,1451.9 18.3,100.4 38.5,200.4 55.2,300.9 78.6,474.7 154,949.9 235,1424.1 61.7,360.9 130.2,720.6 198.9,1099 -167.8,8.6 -319.1,15.2 -470.3,24.2 -339.4,20.4 -678.6,58.5 -1018,58.8 -413.1,0.2 -826.5,-26.1 -1239.3,-49.6 -1036,-58.8 -2038.8,-295.4 -3031.1,-582.3 -344,-99.4 -662.9,-257.8 -973.7,-450.5 422.5,-504.1 830.6,-1006.6 1163.4,-1586.4 -83,-52.9 -160.8,-102.6 -240.9,-153.6 -397.6,641 -821.6,1235.5 -1335.7,1764.3 52.2,77.5 95.7,142.1 141.5,210 65.3,-43.2 120.4,-79.5 177.7,-117.4 89.5,49.1 174.1,94.4 257.6,141.7 302.2,171.3 620.6,304.4 956.1,394 290,77.5 581.6,149.1 872.9,221.4 833.8,206.8 1682.6,308.9 2538.6,352.7 527.1,26.9 1053.6,0.5 1579.8,-42.7 212.1,-17.3 426.8,-2.8 636.2,-2.8 65.3,336.2 130.3,671 197.6,1017.5 -1027.9,289.3 -2050,521.4 -3081.8,749.4 -15.4,-27.8 -32.9,-56.3 -47.5,-86.2 -101.3,-207.8 -204.1,-414.8 -301.9,-624.3 -43.5,-93 -100,-168.3 -207.8,-177.2 -102.2,-8.5 -276.6,115.1 -323.7,209.8 -92.7,186.3 -186.1,372.6 -286.6,554.7 -101,182.8 -230.7,352.1 -312.2,542.6 -101.7,237.6 -291.8,344.1 -511.4,426.2 -105.6,39.4 -214.2,70.8 -319.8,110.4 -412.8,154.9 -825.4,310.2 -1237,467.9 -495.6,189.8 -993.5,374.2 -1484.1,576.2 -355.1,146.2 -699.7,317.6 -1049.5,476.7 -59,26.9 -120.4,48.6 -190.4,76.6 -292.8,-971 -579.4,-1921.5 -870.7,-2887.3 179.6,-146.4 353.2,-287.8 537.9,-438.4 -31.9,-70.9 -64.7,-143.7 -103.7,-230.2 -177.9,138.8 -339.5,264.8 -518.5,404.5 -34,-140.2 -56.4,-255.2 -90.2,-366.9 -53.4,-176.5 -110.4,-352.2 -173.7,-525.5 -32.1,-87.9 -15.1,-149.2 54.2,-209.6 114.5,-99.9 223.4,-206.4 340.5,-315.6 -37.1,-84.3 -71.6,-162.5 -108.8,-246.9 -145.1,118.1 -231.8,270.8 -407.1,346.3 -125.3,-415.3 -246.4,-816.7 -367.5,-1218.1 191.6,-58.5 1382.6,-29.3 1593.6,42.1 -112.1,114.4 -219.7,220.9 -323.5,330.8 -127.5,135.1 -123.2,208.8 15.1,352.9 481.7,-463.1 921.5,-963.3 1334.1,-1488.2 -41.1,-93.9 -77.8,-178.1 -119.5,-273.4 -269.1,325.3 -523.3,632.6 -765.8,925.9 -91.1,-14.3 -151.8,-30.5 -212.9,-32.3 -481.2,-14 -962.4,-27.8 -1443.7,-35 -94.7,-1.4 -145.1,-29.3 -170.5,-122.1 -44.1,-161 -97.6,-319.5 -146.7,-479.2 -96.1,-312.1 -191.9,-624.3 -287.8,-936.4 -24.9,-81 -51.1,-161.6 -74.2,-243 -92,-324.6 -179.4,-650.5 -275.5,-973.8 -81.3,-273.5 -173.9,-543.7 -258.8,-816.2 -107,-343.8 -212.3,-688.2 -316,-1033.1 -37.6,-125.3 -68.5,-252.6 -107.8,-398.9 1832.1,497.4 3659.5,881.1 5539.5,1072.7 -28.9,98.1 -50.2,179.1 -76.7,258.4 -53.7,160.9 -115.1,319.5 -162.9,482.2 -15.8,53.8 -20.9,131.4 6.8,172.8 44.5,66.3 120.6,111.5 204.1,183.7 192.6,-621.5 427.6,-1206.2 517.9,-1842.7 -110.1,-32.6 -199,-59 -287.8,-85.3 -52.2,215.5 -99.7,411.9 -151.9,627.5 -366.7,-37.6 -721.7,-62.9 -1073.2,-113 -335.8,-47.9 -667.3,-125.3 -1001.8,-183.1 -624.3,-108 -1251.5,-198.3 -1864.1,-368.1 -534,-148 -1072.5,-279.8 -1609.8,-415.6 -111.2,-28.1 -166.3,-86.8 -195.4,-201.9 -74.7,-294.8 -161.8,-586.7 -252.6,-877 -86.6,-277 -188.4,-549.3 -276,-826 -180.5,-569.8 -355.9,-1141.3 -533.3,-1712.1 -28.3,-91.3 -38.8,-193.4 -87.7,-271.6 -71.6,-114.4 -74.6,-238.9 -113.9,-371.1 38.1,0 59.7,-0.5 81.3,0.1 763.3,21.1 1526.9,35.8 2290,65.1 1076.1,41.2 2151.2,-7 3226.2,-31.3 990.2,-22.5 1979.4,-84.3 2969.2,-123.8 904.8,-36.2 1810.4,-53.1 2713.4,-128.7 190,-15.9 382.4,-2.3 596.6,-2.3 21.4,143.7 38.5,288.8 65.4,432 71,377.8 149.9,754.1 219,1132.3 85.4,467.1 162.7,935.6 246.1,1403.1 54.3,304.8 115.5,608.4 169.4,913.3 88.6,500.7 173.7,1002 260.3,1503.1 61.6,356.9 123.5,713.8 184.4,1070.8 6.5,37.8 7.5,76.6 12.7,133 -1306.3,-22.9 -2585.9,-176.3 -3867.5,-449.6 21.1,-137.5 40.4,-263.3 60.9,-397.2 -103.7,-42.3 -200.2,-81.8 -295.1,-120.5 -15.3,29.9 -23.5,39.1 -24.7,49.3 -27.1,218.9 -52.7,438 -80.7,656.7 -5,38.8 -16.3,77.6 -30.7,114.1 -36.8,93.6 -81.8,184.3 -114.8,279.2 -44.5,127.7 -74,260.9 -122.1,387.1 -94.2,246.9 -196.7,490.6 -302.9,753.2 70.6,46.9 148.2,98.4 235.1,156.1 307.7,-532 457.3,-1105.2 638.7,-1688.4 1299.3,301.6 2614.1,430.4 3943.5,453.1 z m 4511.2,15502.6 c -7.9,-131.8 -3.9,-233.2 -21.8,-330.4 -54.2,-294.3 -114.4,-586.3 -136.2,-886.8 -18.2,-252.1 -76.8,-501.1 -114.6,-751.9 -38.8,-256.9 -72.3,-514.5 -111.2,-771.3 -28.6,-188.9 -54.4,-378.8 -95.4,-565.1 -65.8,-298.8 -96.3,-601.4 -130.8,-904.6 -33.8,-296.8 -98.7,-589.9 -144.4,-885.5 -44.6,-289.2 -80,-579.7 -123.6,-869.1 -32.6,-216.7 -71.8,-432.5 -108.1,-648.8 -1.8,-11.1 -4.9,-22.2 -5.7,-33.4 -33.9,-455.2 -141.5,-899.2 -204.8,-1349.8 -38.5,-274 -64.9,-549.7 -105.2,-823.3 -60.2,-407.8 -129.6,-814.3 -191.7,-1221.8 -31.4,-206.2 -52.1,-414 -83.4,-620.1 -39,-256.6 -86.9,-511.9 -125.6,-768.6 -29.5,-195.9 -46.7,-393.7 -76.5,-589.7 -41.4,-272.9 -89.5,-544.9 -134.5,-817.3 -8.3,-50.3 -16.9,-100.6 -22.8,-151.2 -23.1,-196.2 -41.3,-392.9 -68.5,-588.5 -35.6,-256.1 -81.2,-510.9 -116.7,-767.1 -57.6,-414.7 -109.2,-830.2 -166.2,-1245 -17.4,-126.5 -47.5,-251.3 -66.4,-377.7 -47.6,-318.8 -91.2,-638.1 -138.2,-957 -64.2,-435.1 -130.3,-870 -195.3,-1305.1 -57.4,-384.4 -114.4,-768.9 -171.4,-1153.3 -95.4,-642.8 -190.6,-1285.6 -286,-1928.4 -49,-329.9 -98.3,-659.7 -147.6,-989.5 -43.4,-290.4 -82.4,-581.6 -132.1,-870.9 -41.9,-243.8 -101.6,-484.6 -143.3,-728.4 -23.8,-139 -26.5,-281.5 -40.4,-422.2 -3.8,-39.2 -10.4,-78.7 -21.4,-116.4 -69.1,-236.7 -271.4,-299.3 -445,-125.4 -63.4,63.6 -123.1,91.4 -204.6,94.9 -617.2,26.6 -1227,125.1 -1840.5,188.1 -506.6,52 -1013.4,105.6 -1521.3,142.1 -518.9,37.3 -1039.6,49.2 -1558.9,82.3 -564.8,36.1 -1128.4,89 -1693.2,124.6 -395.2,25 -791.6,32.7 -1187.4,49.1 -96.1,4 -192.1,12.7 -288.2,17.7 -491.3,25.5 -982.3,62 -1474,72.8 -559.6,12.2 -1119.9,11.8 -1679.4,-2.5 -581.8,-14.9 -1163.1,-52.6 -1744.5,-81 -259.7,-12.7 -519.6,-39.8 -779,-36.1 -177.6,2.6 -354.5,46.9 -531.7,73.2 -10.6,1.6 -21.2,8.2 -30.4,14.6 -239.9,169.1 -481.8,335.4 -718.7,508.5 -258.9,189.3 -511.3,387.6 -770,577.2 -359.3,263.4 -721,523.6 -1083.5,782.7 -114.1,81.5 -235,153.6 -351.2,232.4 -341,231 -681.6,462.4 -1021.4,695.1 -251.1,172 -500,347.4 -751.4,519.2 -120.4,82.3 -244.3,159.6 -366.2,239.6 -216.9,142.3 -429.1,292.2 -651.1,426 -442.5,266.9 -890.7,524.5 -1335.8,787.1 -179.4,105.9 -355.1,218 -535.8,321.6 -141.6,81.3 -282.8,167.7 -434,226.8 -186.8,73 -381.2,131.6 -576.91,175.8 -336.62,75.9 -675.57,143.5 -1015.92,200.3 -323.68,54 -651.44,83.2 -975.56,134.9 -734.11,117 -1474.24,146 -2214.66,136 -610.58,-8.2 -1221.03,-42.1 -1828.59,-120 -370.56,-47.4 -744.67,-68.4 -1117.6,-95.5 -167.97,-12.2 -196.61,22.9 -181.45,195.7 4.38,49.8 15.28,101.1 33.95,147.4 181.16,449.4 365.31,897.6 547.17,1346.6 116.5,287.7 230.9,576.3 345.69,864.6 189.55,476.2 377.86,952.9 568.19,1428.8 180.08,450.2 362.36,899.6 543.18,1349.6 191.4,476.4 379.94,953.8 574.05,1429.1 136.42,333.9 282.39,664 419.89,997.6 146.44,355.1 285.24,713.5 432.22,1068.5 215.06,519.4 435.75,1036.5 651.6,1555.6 197.05,473.8 387.84,950.3 586.84,1423.4 264.48,628.7 535.77,1254.6 801.23,1882.9 190.98,452.1 375.22,907 566.14,1359.1 177.21,419.6 361.06,836.3 538.66,1255.8 143.15,338 281.48,678.1 421.68,1017.4 118.21,286.1 235.08,572.8 354.28,858.4 127.92,306.7 260.82,611.3 385.72,919.2 54.8,135.1 97.4,275.4 141.5,414.7 33.9,107 134.9,187.1 247.2,203.2 138.9,19.9 276.8,48 414.6,75.6 143.9,28.8 286.6,63.6 430.7,91.2 338.7,65 677.7,128.1 1016.9,190.2 100.2,18.4 201.8,29.7 302.4,46.7 596,100.9 1191.8,203.7 1788.2,303.1 211.8,35.3 425.3,61.4 637.6,94.2 284.8,43.8 568.9,92.1 853.9,134.2 117.1,17.3 236,21.8 353.8,34.8 281.3,31.1 563,60.4 843.6,97.4 144.9,19.2 287.3,56 431.8,79.1 40.5,6.5 88.7,3.2 125.7,-13 341.5,-150 680.4,-306 1022.1,-455.6 144.6,-63.4 295.5,-112.5 440.9,-174.2 187.5,-79.4 371.3,-167.4 558.6,-247.2 306.1,-130.3 613.7,-256.8 920.6,-385.2 328.2,-137.4 656.3,-274.9 984.2,-412.8 83.4,-35.1 165.3,-73.6 249,-107.8 235.1,-96.2 470.6,-191.6 706.3,-286.3 324.9,-130.5 650.4,-259.6 975.3,-390.3 428.9,-172.6 857.4,-346.2 1286.2,-519.1 47,-19 94.5,-36.6 142.3,-53.6 116.7,-41.6 234,-81.6 350.5,-123.9 53.1,-19.3 103.8,-58.6 157,-61.2 179,-8.9 358.7,-5.6 538,-6.5 107.2,-0.5 214.4,-0.2 321.5,-0.3 265.7,-0.3 531.5,-5.4 797,0.4 384.9,8.4 769.6,26.6 1154.5,36.9 435.7,11.6 871.6,18.2 1307.4,28.6 458,10.9 915.9,25.9 1374,34.4 146.9,2.7 294.4,-17.5 441.2,-13.7 549.2,14.3 1098.3,35.1 1647.5,51.8 249.3,7.5 499.1,5 748.1,17.7 418.7,21.4 837.5,45.2 1255.3,79.8 326.7,27.1 652.3,69.1 977.6,110.3 145.2,18.4 287.7,56.6 432.8,76.1 116.5,15.7 235,16.7 391.4,26.7"
         style="fill:#000000;fill-opacity:1;fill-rule:nonzero;stroke:none"
         id="path12" />
      <path
         d="m 28606.2,9985.5 c -107.8,-12.6 -207.2,-24.3 -335.4,-39.3 19.2,149.8 33.8,281.9 53.3,413.2 43,289.8 90.5,579 131.8,869 18.3,128.5 31.2,258.3 37.2,387.9 4.6,99.6 43.4,158.2 144.3,176.3 65.3,11.7 129.1,32.4 193.1,48.9 58.1,-237.3 -93.5,-1482.7 -224.3,-1856"
         style="fill:#000000;fill-opacity:1;fill-rule:nonzero;stroke:none"
         id="path14" />
      <path
         d="m 25957.3,19429.7 c -54.5,-78.6 -95.7,-138.2 -148.6,-214.5 -71.1,58.6 -133.6,112.3 -198.3,163.2 -305.7,240.7 -610.7,482.3 -918.6,720.3 -138.4,107 -285.4,203 -423.9,309.9 -126.3,97.4 -124.7,105.2 -58.3,254.5 11,24.9 25.6,48.2 44.6,83.5 576.4,-427.8 1171.9,-815.4 1703.1,-1316.9"
         style="fill:#000000;fill-opacity:1;fill-rule:nonzero;stroke:none"
         id="path16" />
      <path
         d="m 28781.3,14042.5 c 12.1,-48.2 22.3,-74.1 24.9,-100.7 47.5,-489.8 73.2,-980.6 63.5,-1472.8 -2.6,-133.9 -5.7,-135.5 -139,-168.6 -49.3,-12.3 -98.9,-23.9 -148.6,-34.5 -10.4,-2.2 -22,1.4 -50.8,3.9 -3.6,44.5 -10.1,92 -10.6,139.6 -3.1,299.9 0.1,599.9 -8.9,899.6 -5.7,191 -28.8,381.5 -44.7,579.8 105.9,51.8 204.7,100.2 314.2,153.7"
         style="fill:#000000;fill-opacity:1;fill-rule:nonzero;stroke:none"
         id="path18" />
      <path
         d="m 26781.7,11293.9 c 90.1,21.6 186.7,44.7 308.6,73.9 0,-118.1 6.1,-218.2 -1.1,-317.3 -23.8,-326 -5.7,-655.6 -85.4,-977.2 -16.1,-64.7 -12.3,-134.6 -14.3,-202.3 -2.3,-79.1 -31.7,-127.3 -118.8,-132.1 -83.1,-4.6 -165.8,-17 -246.1,-25.7 52.6,528.7 104.2,1047.9 157.1,1580.7"
         style="fill:#000000;fill-opacity:1;fill-rule:nonzero;stroke:none"
         id="path20" />
      <path
         d="m 26716.5,13198.6 c 94.2,31.5 188.5,62.9 302.5,101 27.2,-334.9 53.8,-648.9 77.6,-963.2 7.7,-101.5 12.1,-203.7 10.6,-305.5 -1.9,-133.7 -20,-154.2 -151.5,-180.1 -59,-11.6 -120.3,-11.8 -182.3,-17.4 -19.2,460.3 -37.7,905.2 -56.9,1365.2"
         style="fill:#000000;fill-opacity:1;fill-rule:nonzero;stroke:none"
         id="path22" />
      <path
         d="m 26196.8,16146.6 c -71.9,-64.2 -137.2,-122.5 -222,-198.3 -206.2,423.7 -397.6,832.9 -683.1,1196.5 42.3,84.2 84.5,168.3 139.2,277.2 315.4,-399.7 566.9,-813.5 765.9,-1275.4"
         style="fill:#000000;fill-opacity:1;fill-rule:nonzero;stroke:none"
         id="path24" />
      <path
         d="m 19052.9,17160.2 c -44.1,266.7 -85.1,514 -131.7,795.6 -190.4,-180.3 -369.1,-332 -543.3,-519.1 57,-12.5 84.9,-16.1 111.1,-24.8 74.8,-24.9 130.5,-67.3 133,-155 2.4,-83.8 -59.6,-115.7 -119.9,-147.9 -19.7,-10.5 -42,-16 -63.3,-23.2 -109.7,-37 -219.5,-73.8 -333.1,-111.9 105.7,-140.6 96.4,-206.7 -37,-302.1 -99.9,-71.6 -202.2,-139.9 -325.6,-224.9 290.7,-115.6 561.2,-223 843.6,-335.3 -14.3,132 -27.4,237.6 -36.8,343.6 -6,67.8 18.2,123.4 84.3,151.2 61.9,25.9 103.7,-5.1 148.3,-48.1 35.9,-34.7 87.1,-53.5 131.6,-79.3 11.2,8.9 22.5,17.8 33.8,26.7 -27.7,76.9 -54,154.2 -83.5,230.4 -20.2,52.2 -49.9,101.2 -66.3,154.4 -82.6,267.2 -36.8,320.7 254.8,269.7 z m -787.8,-1161.7 c -164.8,-414.5 -318.2,-800.3 -479.8,-1206.8 -56.7,18.5 -120.9,39.4 -210.2,68.4 164.6,407.2 321.9,796.3 487.5,1206.2 -107.8,45.1 -219.4,90.6 -330,138.4 -97.5,42.1 -200,77 -289.3,132.7 -102.9,64.3 -102.8,115.8 -8.7,197.9 62.9,54.9 136.6,98 207.6,142.9 45.3,28.5 94.6,50.5 142.2,75.5 -13.4,25.1 -16.9,41.3 -23.7,42.8 -86.3,19.6 -147.3,66 -144.3,159.7 2.9,90.1 59.2,135.6 146.8,161.2 118.4,34.7 232.2,85 361.5,133.8 -105.3,180.2 -8,283.4 126.5,394 194.7,160.3 371.2,342.8 556.2,515.1 28.6,26.6 60.6,49.6 91.9,73.1 145.3,109.6 229.1,78.1 260.3,-103.4 19,-110.9 27.2,-223.7 40.1,-335.6 27.3,-236.2 55,-472.4 81.4,-708.7 5,-44.6 9.6,-90.1 6.5,-134.6 -7.9,-112.8 -83.7,-150.1 -202.9,-144 25.6,-79.3 33.2,-151.5 69.5,-203.8 57.6,-83.2 53.6,-171.3 51,-260.7 -3.7,-131.6 -107.6,-196.4 -233.4,-149.1 -46.3,17.4 -91,39.1 -163.5,70.6 5.5,-68.2 9.9,-114.9 12.7,-161.6 3.3,-56 14.4,-113.5 5.8,-167.8 -14.8,-94.8 -61.2,-130.7 -154.4,-112.5 -70.2,13.8 -136.6,49 -203.2,78 -60.8,26.4 -119.7,57.4 -204.1,98.3"
         style="fill:#000000;fill-opacity:1;fill-rule:nonzero;stroke:none"
         id="path26" />
      <path
         d="m 15504.7,20500.7 c 10.4,5.5 20.8,11 31.1,16.4 -40.8,121.9 -81.8,243.7 -122.6,365.5 -83.5,249.4 -51.6,291.8 219,269.9 -37.3,228.5 -73.9,453.3 -115,705.1 -172.1,-163.8 -320.5,-305 -468.8,-446 18.9,-20.3 24.8,-30.6 33.6,-35.2 14.9,-7.8 32.9,-10 47.5,-18.2 140,-77.4 143.9,-183 6.2,-266.8 -47.1,-28.6 -102,-45.7 -155.2,-62.2 -67.6,-21 -137.1,-35.9 -213,-55.3 110.8,-154.5 102.3,-196.1 -30,-288.6 -92.7,-64.9 -200.4,-111.8 -282.5,-210 138.5,-50.5 261.9,-91.7 382.2,-140.3 118.9,-48 234.9,-103.4 372.4,-164.7 -7.1,75.5 -11.9,124.8 -16.3,174.2 -4.5,50.8 -13.1,101.8 -12.1,152.5 2.3,124 88,172.4 193.6,108 47,-28.7 86.8,-69.1 129.9,-104.3 z m -1213.9,-1466.5 c 151.5,377.1 294.5,733.1 442.5,1101.6 -152.9,65.1 -296.9,126.5 -440.9,187.8 -20.9,8.8 -42.7,15.6 -62.8,25.8 -137.9,70.2 -143.9,184.6 -11.9,271.3 47,30.8 101.3,50.3 150.4,78.3 37.6,21.4 72.3,48.2 111.9,75.1 -19.1,20.8 -28.6,35.2 -41.6,44.5 -144.1,102.4 -136.5,211.2 27,280.9 108.7,46.3 224,77.4 336.8,115.6 -85.9,151.2 -87.9,163.6 28.8,274.7 155,147.8 316.5,288.7 472.8,435 61.8,57.9 111.2,130.2 177.5,181.3 44.7,34.4 120.5,72 161.3,55.6 42.5,-17 85.2,-98 83.6,-149.6 -9.3,-293.3 79,-571 121,-855.8 3.3,-22.4 9.7,-44.3 12.6,-66.7 26.6,-205.2 8.2,-232.7 -191.3,-281.7 24,-81 49.7,-161.4 71.1,-242.9 11.5,-43.5 20.4,-88.8 22.1,-133.6 6.4,-173.1 -66.4,-228.9 -229.3,-178.3 -31.7,9.8 -62.3,23.2 -111.8,41.9 8.1,-78.8 18,-144.9 21.1,-211.2 6.5,-142.4 -66.1,-199.7 -202.9,-153.2 -101.3,34.5 -197.9,82.7 -307,129.2 -182.8,-340.3 -291.6,-713.9 -444.4,-1092.1 -68,23 -126.1,42.7 -196.6,66.5"
         style="fill:#000000;fill-opacity:1;fill-rule:nonzero;stroke:none"
         id="path28" />
      <path
         d="m 18505.7,24940.2 c 38.9,78 68.6,137.6 97.9,196.3 132.6,-46.4 1498.4,-1110.9 1698.2,-1322.5 -20.9,-66.8 -43.5,-139.3 -74.7,-239.3 -583.1,462.5 -1145.7,908.8 -1721.4,1365.5"
         style="fill:#000000;fill-opacity:1;fill-rule:nonzero;stroke:none"
         id="path30" />
      <path
         d="m 19927.1,22907.5 c -38.5,-92.4 -67.7,-162.8 -100.1,-240.6 -565.7,461.4 -1120.4,913.7 -1697.3,1384.1 19.7,55.5 46.1,129.8 84.4,237.5 589.3,-475.1 1150.9,-927.9 1713,-1381"
         style="fill:#000000;fill-opacity:1;fill-rule:nonzero;stroke:none"
         id="path32" />
      <path
         d="m 16475,26369.5 c 36.8,73.9 68.8,138.1 110.9,222.5 566.8,-380.8 1131.4,-749.8 1686.1,-1153.5 -38.9,-79 -70.7,-143.8 -109.1,-221.9 -562,383.9 -1118.5,764 -1687.9,1152.9"
         style="fill:#000000;fill-opacity:1;fill-rule:nonzero;stroke:none"
         id="path34" />
      <path
         d="m 17834.1,24516.7 c -26.3,-67.5 -51.7,-132.7 -86.9,-223 -567.6,391.5 -1117.1,770.4 -1677,1156.5 29.9,71.6 57.2,137.2 84.2,202 138.1,-46.1 1334.3,-855.5 1679.7,-1135.5"
         style="fill:#000000;fill-opacity:1;fill-rule:nonzero;stroke:none"
         id="path36" />
      <path
         d="m 20701.2,23516.7 c 369.4,-318 727.2,-626 1087.4,-936.2 -19.3,-50.9 -29.4,-88.4 -47.2,-121.8 -18.3,-34.3 -44.1,-64.5 -80.4,-116.1 -95,87 -182.5,170.8 -273.8,250.1 -216.8,188.3 -435.1,374.8 -653.2,561.6 -171,146.5 -171.3,146.1 -32.8,362.4"
         style="fill:#000000;fill-opacity:1;fill-rule:nonzero;stroke:none"
         id="path38" />
      <path
         d="m 20171.9,22337.3 c 37.4,76.7 69.1,141.8 105.1,215.5 378.5,-268.9 669.2,-623.2 1027.6,-917.3 -40.5,-75.3 -76.4,-142.1 -125.8,-233.9 -341.7,317.5 -672.9,625.3 -1006.9,935.7"
         style="fill:#000000;fill-opacity:1;fill-rule:nonzero;stroke:none"
         id="path40" />
      <path
         d="m 10032.5,26786 c 37.6,257.6 53.2,277.9 270.7,329.5 572.4,135.7 1149.9,238.9 1738.4,273.4 82.3,4.9 163.8,22.2 265.9,36.7 -14.2,-62.6 -24.4,-104 -32.8,-145.7 -18.1,-89.6 -65.6,-123.7 -163,-133 -337,-32.1 -674.8,-65.9 -1008,-124 -332.5,-57.8 -659.9,-145.6 -989.6,-220.1 -25.7,-5.9 -51.6,-10.7 -81.6,-16.8"
         style="fill:#000000;fill-opacity:1;fill-rule:nonzero;stroke:none"
         id="path42" />
      <path
         d="m 9687.38,25844.7 c 9.92,36.3 21.82,73 29.81,110.4 21.46,100.7 86.59,150.6 184.3,169 437.51,82.6 874.71,167.3 1312.31,249.3 177.4,33.2 355.4,63.2 533.7,90.7 76.4,11.7 154.3,13 254.7,20.9 -23,-94.4 -40.8,-167.5 -53.8,-220.8 -755.1,-147.9 -1490.2,-292 -2225.46,-435.1 -8.79,-1.7 -19.89,8.4 -35.56,15.6"
         style="fill:#000000;fill-opacity:1;fill-rule:nonzero;stroke:none"
         id="path44" />
      <path
         d="m 14111.6,27504.9 c -39.3,-232.2 -73.1,-268.8 -258.2,-274.7 -180.7,-5.7 -361.8,2.1 -542.5,-3.4 -163,-4.8 -325.7,-20.1 -488.6,-29.5 -44.2,-2.5 -88.6,-0.4 -137.1,-0.4 -35.9,108 54.3,169.2 63.3,266.1 458.3,14.1 903,27.8 1363.1,41.9"
         style="fill:#000000;fill-opacity:1;fill-rule:nonzero;stroke:none"
         id="path46" />
      <path
         d="m 12366.8,26296.6 c 27.5,82 52.1,155.7 78.8,235.2 430.5,81.1 864.1,50.3 1321.4,76.3 -44.5,-94.5 -79.1,-168.2 -116.3,-247.3 -428.5,-21.4 -850.5,-42.5 -1283.9,-64.2"
         style="fill:#000000;fill-opacity:1;fill-rule:nonzero;stroke:none"
         id="path48" />
      <path
         d="m 30556.7,25306.7 c 11.7,516 -201,936.8 -587.2,1157.1 -319.2,182 -772.7,262.3 -1116,-106.3 -117.6,-126.3 -216.9,-272.8 -237.2,-457.6 -53,-483.9 96.2,-886.6 495.8,-1170.9 287.7,-204.9 612,-263.6 947.5,-117.1 368.6,161.1 484.5,478.5 497.1,694.8 z m -837.8,-1087 c -621.9,42.5 -1046.1,359.6 -1323.4,886.1 -155.3,294.9 -201.5,617.7 -115.7,938.8 160.4,600.2 737.5,1008.3 1445.7,850.5 414.1,-92.2 726.6,-312 950.5,-654.2 209.3,-319.9 324.2,-676.8 233.5,-1064.6 -115.1,-491.6 -400.7,-826.4 -915.6,-926.6 -93.6,-18.2 -190.2,-21.1 -275,-30"
         style="fill:#000000;fill-opacity:1;fill-rule:nonzero;stroke:none"
         id="path50" />
    </g>
  </g>
</svg>
