<?xml version="1.0" encoding="UTF-8"?>
<svg id="Layer_1" data-name="Layer 1" xmlns="http://www.w3.org/2000/svg" viewBox="0 0 1700 2400">
  <defs>
    <style>
      .cls-1 {
        fill:rgba(0, 0, 0, 0.03);
        stroke-width: 0px;
      }
    </style>
  </defs>
  <g id="OBJECTS">
    <g>
      <path class="cls-1" d="M1284.7,770.41c3.04-5.61,6.51-7.77,12.41-8.04,53.3-2.47,103.29-17.21,149.48-45.71,45.78-28.25,81.23-67.6,110.11-114.07,17.74-28.55,32.95-58.5,44.78-90.27,2.74-7.36,4.84-5.49,8.75-1.39,27,28.33,57.33,52.09,89.77,72.91v-24.7c-25.56-16.32-48.16-36.79-71.32-56.64-14.28-12.24-15.51-23.15-9.62-41.13,19.03-58.12,31.65-117.88,29.09-180-1.87-45.45-13.9-86.98-46.18-119.39-11.8-11.85-25.72-20.41-42.03-22.84-30.96-4.61-56.19,15.05-64.77,49.64-9.03,36.43-6.04,72.79.85,109.06,13.52,71.18,44.65,132.92,90.44,186.64,3.91,4.58,4.76,8.07,2.54,13.93-22.07,58.27-50.3,112.41-93.11,156.92-47.65,49.53-105.54,75.93-171.3,84.51-5.29.69-10.58,1.36-15.89,1.79-2.41.2-5.92.77-7.06-.59-1.78-2.1.91-4.78,1.98-7.05,25.97-54.89,43.96-112.53,53.05-173.17,7.55-50.36,9.18-100.74-1.37-150.91-7.56-35.97-20.68-69.46-42.42-98.56-5.46-7.31-6.91-13.65-5.4-23.08,8.88-55.6,3.57-110.37-11.28-164.21-12.3-44.6-31.19-85.77-55.47-124.05h-18.93c10.4,16.22,20.48,32.65,28.81,50.29,30.9,65.46,46.35,134.34,42.42,207.67-.35,6.5-1.1,12.97-1.67,19.45-.49,5.61-1.83,7.08-6.85,2.96-28.14-23.08-60.2-35.89-95.79-35.89-56.1,0-105.04,19.24-140.31,67.21-47.39,64.44-17.98,131.08,33.98,160.91,58.93,33.84,111.34,22.19,158.12-33.05,26.58-31.39,45.2-67.54,57.34-107.54.64-2.11-.05-5.69,2.61-5.84,1.36-.07,3.12,2.96,4.3,4.87,24.62,39.8,34.89,84.24,37.33,131.04,3.23,62.22-6.8,122.53-24.36,181.67-8.82,29.7-20.74,58.05-33.28,86.19-4.21,9.44-8.94,12.77-18.88,12.08-72.74-5.07-137.51-32.28-195.26-78.41-55.65-44.45-95.41-102.95-129.36-166.4-33.83-63.22-61.59-128.86-74.72-200.73-3.33-18.21-2.72-30.01,14.6-43.44,49.93-38.72,87.64-88.94,106.04-152.8,8.72-30.26,13.27-61.64,19.84-92.48.55-2.6,1.18-5.19,1.85-7.77h-23.32c-6.54,27.56-10.89,55.63-16.51,83.4-10.55,52.18-38.12,93.39-72.19,130.79-9.15,10.04-19.12,19.07-30.1,26.93-5.19,3.71-6.24,2.57-6.52-3.49-2.93-63.9-.91-127.32,16.39-189.22,4.46-15.98,8.11-32.12,11.14-48.42h-5.58c-6.18,24.02-15.03,47.21-20.69,71.35-13.05,55.64-15.25,112.39-12.65,169.37.38,8.42-1.55,12.09-9.17,14.39-26.93,8.12-52.25,2.47-76.78-9.35-52.3-25.21-88.91-67.91-117.61-119.18-6.41-11.46-12.03-23.42-18.57-34.79-2.85-4.96-2.18-8.02,1.14-12.35,18.81-24.53,34.71-50.99,47.47-79.44h-19.28c-2.53,5.26-5.42,10.35-7.96,15.55-8.21,16.79-17.63,32.94-28.92,47.72-1.18,1.55-2.77,7.41-5.47,1.55-10.28-22.32-22.13-43.67-34.34-64.81h-18.37c11.56,19.92,22.59,40.16,32.34,61.22,10.69,23.12,11.12,22.87-5.24,41.34-43.74,49.41-94.91,87.44-154.37,112.9-46.11,19.75-94.02,26.31-143.45,22.65-5.25-.39-6.22-2.67-6.5-7.68-1.64-29.27-7.37-57.58-21.03-83.39-13.85-26.17-31.42-47.83-62.16-51.6-27.43-3.37-57.42,14-69.36,40.32-8.88,19.56-5.1,40.51,10.89,58.81,17.65,20.2,40.39,31.47,64.41,40.4,18.04,6.71,36.59,11.32,55.49,14.26,4.98.77,7.07,2.19,6.9,8.21-1.82,65.01-22.32,123.9-51.95,179.93-3.06,5.78-6.22,3.11-9.63,1.43-43.06-21.19-81.64-49.52-117.35-82.4-21.39-19.7-41.31-40.95-60.13-63.38-3.41-4.07-4.08-7.04-1.43-12.28,21.7-42.9,30.38-89.3,32.24-137.47,1.84-47.98-2.17-95.64-6.27-143.29h-22.84c3.38,29.48,5.51,59.08,6.93,88.73,2.32,48.6,1.27,96.96-11.87,144.13-3.07,11.03-7.27,21.7-10.91,32.56-1.74,5.18-3.79,4.79-6.49.68-2.95-4.48-5.93-8.95-8.9-13.42v13.79c2.05,3.2,4.1,6.41,6.14,9.61,1.07,1.67,2.74,3.26,1.43,5.54-2.54,4.4-4.97,8.88-7.58,13.21v28.65c5.76-6.55,11.11-13.46,15.63-21.07,3.72-6.26,5.67-6.43,10.39-.66,43.4,53.13,93.03,98.52,150.85,133.49,8.27,5,16.75,9.64,25.35,13.96,4.5,2.26,5.75,4.01,2.67,9.05-27.18,44.49-58.54,85.38-93.58,123.19-2.71,2.92-5.33,4.66-9.52,4.1-33.87-4.55-67.81-5.27-101.8-3.3v11.71c17.87-1.18,35.78.16,53.66.97,11.19.51,22.33,2.18,33.49,3.42,1.6.18,3.9.45,4.55,1.56,1.06,1.79-1.14,2.99-2.28,4.11C61.44,631.43,32.38,657.35,0,678.72v10.9c36.61-21.98,69.03-50.05,99.69-80.55,5.77-5.74,10.82-7.39,18.47-5.87,58.86,11.65,115.29,30.24,166.75,63.47,23.82,15.39,45.48,33.56,63.53,56.23,1.58,1.99,4.16,4.66,3.8,6.46-.61,3.05-4.26,1.58-6.58,1.92-49.94,7.33-92.49,29.59-126.16,69.67-12.04,14.34-21,30.69-26.62,48.97-9.59,31.23-.74,62.27,24.96,80.89,69.08,50.03,149.27,26.27,178.26-62.28,12.58-38.43,10.8-76.19-5.59-113.09-.76-1.72-2.77-3.69-.97-5.44.86-.83,3.15-.36,4.7,0,28.24,6.44,53.9,18.71,74.73,40.11,27.53,28.29,32.74,65.45,15.22,104.59-26.81,59.9-73.93,95.47-130.46,118.73-36.63,15.07-75.46,20-114.38,23.57-37.7,3.46-75.65,3.31-113.21,8.79-.56.08-1.12.07-1.68.16-10.21,1.66-21.97,7.35-30.19,3.82-7.78-3.34-11.56-16.57-17.58-25.07C56.22,995.86,30.48,974.62,0,960.34v13.83c8.58,4.66,16.44,10.74,24.29,16.63,21.06,15.8,37.88,35.93,50.84,59.62,2.19,4,2.93,6.3-2.46,8.16-28.01,9.66-52.08,25.57-72.68,46.86v28.4c21-26.56,47.47-45.28,79.54-56.26,6.2-2.12,7.99-.38,9.92,5.66,17.09,53.27,14.89,106.68,1.05,160.02-15.64,60.3-48.18,108.93-90.51,150.59v26.34c3.33-3.17,6.5-6.53,9.75-9.71,54.49-53.39,92.93-116.74,105.68-195.32,7.56-46.6,6.21-92.67-10.65-137.17-2.73-7.2.54-7.56,5.44-8.46,32.13-5.86,64.62-7.53,97.07-9.79,54.95-3.83,109.86-8.69,161.24-31.97,53.46-24.23,97.67-60.56,126.3-115.14,16.42-31.3,25.05-64.25,9.72-99.28-18.51-42.29-52.16-64.36-92.87-76.79-1.61-.49-3.28-1.22-4.9-1.17-23.01.59-36.1-14.1-50.08-31.42-35.11-43.5-81.74-69.39-131.99-88.58-31.49-12.02-63.86-20.31-96.86-26.07-1.77-.31-4.64.59-4.99-1.88-.2-1.4,1.75-3.35,3.02-4.76,33.59-37.17,64.65-76.48,90.48-120.14,3.09-5.22,5.85-3.65,9.67-2.02,39.6,16.91,80.58,27.27,123.42,28.55,12.92.39,25.89.03,38.61-2.24,6.8-1.21,8.68,1.27,9.94,7.66,8.58,43.57,25.43,83.57,51.02,118.69,62.29,85.49,143.5,128.29,246.68,113.85,19.91-2.79,29.88.35,41.36,17.66,20.4,30.77,51.34,46.58,85.47,55.77,41.01,11.04,82.87,9.89,124.58,10.08,64.7.29,128.9,4.63,191.47,23.59,19.4,5.88,38.23,13.54,56.67,22.26,4.76,2.25,6.66,3.57,2.24,8.91-69.17,83.53-150.1,151.04-244.33,200.4-26.66,13.96-54.34,25.36-83.02,34-6.34,1.91-7.53,1.4-5.79-5.9,8.54-35.76,11.77-71.73,1.04-107.73-17.23-57.77-65.68-89.23-122.11-78.92-44.21,8.08-80.9,30.01-106.57,69.43-33.2,51-18.4,105.43,35.84,135.81,29.71,16.64,61.72,22.45,94.92,23.15,19.39.41,38.64-.88,57.73-4.34,7.18-1.3,5.63,1.89,3.79,6.46-23.89,59.44-60.57,109.2-104.93,152.81-57.49,56.51-123.75,95.71-201.88,110.2-36,6.68-72,6.48-107.91-1.2-6.72-1.44-9.65-2.56-4.38-10.71,34.64-53.52,54.3-112.26,49.38-177.76-3.72-49.56-20.57-93.66-62.73-120.5-40.49-25.78-83.26-25.66-123.71.67-39.83,25.93-55.75,66.23-52.42,114.49,4.55,66.06,36.39,116.92,82.96,158.85,17.85,16.07,37.69,28.91,59.26,38.44,8,3.54,7.08,5.74,1.89,11.53-51.47,57.42-114.77,91.63-187.28,108.81-58.69,13.91-117.77,16.12-177.27,10.61v25.42c16.27,1.27,32.54,2.66,48.83,2.82,90.09.89,176.33-15.53,254.57-65.94,32.12-20.7,60.35-46.26,84.51-76.71,3.06-3.85,5.71-4.5,10.07-3.2,52.43,15.64,104.89,13.75,157.03-1.14,108.8-31.08,190.06-102.01,254.12-197.45,18.24-27.18,32.73-56.51,44.26-87.48,1.37-3.68,3.19-5.51,6.92-6.58,127.05-36.23,230.16-113.26,321.11-210.83,11.2-12.02,21.81-24.72,31.99-37.73,4.31-5.5,7.45-5.04,12.53-1.83,71.27,45.03,109.57,111.19,115.18,198.72,1.98,30.87-.05,61.42-4.34,91.92-.86,6.15-1.91,8.51-8.55,4.61-69.93-41.07-149.47-26.76-202.62,24.03-27.82,26.59-44.19,59.88-39.61,100.16,6.06,53.21,48.19,89.2,100.1,89.8,43.05.5,75.62-21.08,103.23-53.09,27.43-31.8,46.1-69.01,57.53-110.22,2.15-7.73,4.09-8.46,9.85-2.92,39.82,38.29,62.51,85.8,69.69,141.92,5.45,42.65.59,84.33-10.11,125.52-1.18,4.53-3.31,7.42-7.76,9.42-38.19,17.15-77.33,17.38-117.22,8.52-67.56-15.02-127.36-48.33-184.94-86.93-41.93-28.11-83.42-57.38-131.17-73.5-80.84-27.3-155.42-12.54-224.02,39.63-30.33,23.07-57.99,49.53-86.85,74.46-56.23,48.58-120.15,80.13-190.69,97.18-74.48,18-150.33,27.03-225.95,37.29C161.24,1601.46,79.29,1628.67,0,1665.79v24.71c38.08-14.91,75.34-32.1,113.96-45.55,45.43-15.82,92.21-24.91,139.43-31.85,69.92-10.27,140.19-18.17,209.43-33.2,89.69-19.47,168.29-61.71,235.84-127.36,27.41-26.65,55.91-52.22,88.7-71.62,57.54-34.06,117.63-39.47,180.16-17.95,36.04,12.4,68.42,32.48,100.26,53.53,48.25,31.9,96.45,63.79,149.97,85.33,41.38,16.66,83.57,29.15,128.44,27.5,19.17-.71,37.75-4.93,55.84-11.62.63-.03,1.25-.06,1.88-.08-.25.54-.51,1.08-.76,1.62-11.92,29.84-31.41,53.73-53.66,75.32-42.38,41.11-93.06,66.63-146.9,85.78-52.97,18.84-106.59,35.14-162.75,39.19-15.65,1.13-31.39.65-47.09,1.01-6.34.15-7.55-1.57-4.28-7.94,20.22-39.4,30.3-81.43,26.86-126.36-5.86-76.68-57.78-151.69-144.92-155.33-55.06-2.3-96.02,24.91-120.52,77.35-23.73,50.8-14.24,97.95,17.53,141.12,25.48,34.63,60.49,54.77,98.99,68.9,24.97,9.16,50.65,15.27,76.86,18.66,6.84.88,4.92,2.97,2.13,6.6-44.31,57.64-101.02,86.62-171.84,83.58-52.64-2.25-99.6-23.82-146.18-46.98-42.1-20.93-83.93-42.78-129.54-54.18-59.83-14.95-118.53-13.37-174.69,16.38-3.64,1.93-6.69,1.91-10.29.23-79.07-36.91-161.04-37.67-244.31-21.65-23.22,4.47-46.08,10.4-68.55,17.98v26.39c33.85-11.82,68.76-18.89,104.2-23.55,62.05-8.16,123.1-4.69,182.74,16.8,6.52,2.35,6.67,3.49,1.68,8.28-33.54,32.2-51.35,72.26-50.75,120.28.62,50.24,16.82,95.12,46.33,134.31,21.11,28.05,47.4,48.78,81.14,56.92,53.19,12.83,99.93-17.17,109.28-70.13,4.74-26.85,1.28-53.4-6.71-78.88-21.57-68.81-59.92-124.69-117.43-165.21-1.81-1.28-3.36-2.99-5.02-4.5,1.94-1.1,3.78-2.53,5.83-3.27,27.66-9.94,56.16-14.05,85.28-12.78,54.37,2.37,103.88,22.9,152.49,46.43,38.47,18.62,76.24,38.97,117.15,51.33,53.65,16.2,106.95,16.31,159.07-6.27,41.79-18.1,75.22-47.83,101.57-86.4,4-5.85,7.84-8.27,15.04-7.84,19.87,1.18,39.78,1,59.68-.77,32.53-2.88,64.38-9.46,95.86-18.33,64.15-18.07,126.94-39.74,182.78-79.1,45.12-31.81,82.44-71.08,104.87-124.36,2.42-5.75,3.21-12.78,9.29-16.34,28.55-16.75,54.35-37.74,80.21-58.58,38.43-30.97,78.65-58.07,127.25-67.57,19.28-3.77,38.62-6.4,58.14-3.9v-17.01c-24.92-1.27-49.65.12-74.11,6.46-44.27,11.47-81.95,36.23-117.94,64.49-20.03,15.73-39.94,31.62-60.98,45.84-2.07,1.4-5.69,3.83-6.44,3.14-2.05-1.87.03-4.8.58-7.28,11.64-51.93,13.16-103.71-2.84-155.01-14.92-47.82-40.44-88.26-77.34-120.34-4.31-3.75-5.52-7.03-4.4-12.75,9.03-45.82,11.6-91.92,4.18-138.31-8.08-50.52-27.86-95.16-59.97-133.7-17.75-21.31-37.98-39.42-61.16-53.73-5.4-3.33-5.03-5.62-1.47-10.47,17.02-23.19,32.79-47.33,46.59-72.8ZM1506.57,243.37c-.14-2.64-.02-5.29-.02-7.94-.2-16.33.72-32.47,5.99-48.06,9.35-27.68,29.56-37.24,55.42-25.41,29.61,13.55,45.22,39.39,53.77,70.86,11.95,44,9.13,88.4,2.2,132.74-5.11,32.69-12.89,64.75-22.58,96.28-1.4,4.55-1.86,9.05-7.32,2.4-52.1-63.53-82.93-136.37-87.47-220.86ZM1284.87,312.77c-13.51,55.19-37.11,103.88-80.34,140.03-64.24,53.72-150.45,1.24-162.27-50.98-8.14-35.98,1.75-66.43,25.58-91.73,31.51-33.45,71.12-46.82,108.94-47.83,43.32,1.19,76.38,13.42,104.35,39.94,3.29,3.12,4.9,5.81,3.74,10.57ZM263.71,234.87c-36.96-6.66-73.08-15.68-103.41-40.93-14.84-12.35-24.76-27.57-18.4-48.34,6.64-21.68,23.44-30.46,43.52-33.58,2.21-.34,4.47-.26,8.61-.47,27.2.52,43.76,19.76,56.17,44.26,11.52,22.76,16.46,47.59,17.77,73.26.16,3.18,1.11,6.78-4.26,5.82ZM358.61,746.38c4.85-.28,7.53,1.75,9.88,6.2,10.47,19.78,16.27,40.82,16.59,74.39-.43,23.01-6.24,55.27-28.83,81.21-33.33,38.29-91.18,41.35-132.5,7.88-17.71-14.34-23.71-33.05-19.78-55.71,1.99-11.46,5.92-22.32,12.01-32,33.85-53.8,82.76-78.53,142.63-81.97ZM387.32,1385.56c-2.06,3.07-3.83,4.43-7.56,2.83-63.24-27.11-110.97-70.84-133.72-140.65-9.69-29.72-11.98-60.37-2.93-90.78,13.4-45.06,55.98-70.94,103.99-64.12,46.37,6.58,77.6,39.19,87.64,90.94,2.72,14.02,3.7,28.09,4.01,42.37-.62,59.08-19.34,111.62-51.43,159.42ZM841.24,1102.43c-1.13,4.05-3.29,5.38-7.06,6.13-20.43,4.08-41.03,6.22-64.03,6.81-34.32-1.02-69.96-6.14-101.3-28.15-34.09-23.94-41.74-57.88-22.16-96.12,26.43-51.64,99.51-80.76,150.93-59.46,32.55,13.48,47.82,41.24,52.76,76.29,4.54,32.25-.48,63.58-9.13,94.49ZM1329.61,1199.61c-13.74,53.26-34.91,101.93-77.71,136.58-30.44,24.64-64.72,29.19-100.34,16.24-40.81-14.85-57.99-64.43-39.67-109.07,14.14-34.45,41.37-52.56,72.4-66,17.57-7.6,36.12-10.52,54.53-10.88,31.86-.03,60.64,9.53,87.58,26.04,2.8,1.72,4.12,3.54,3.2,7.1ZM455.93,1968.24c1.09,6.37,1.07,12.95,1.42,17.55,2,53.45-35.38,85.25-83.6,72.64-47.57-12.44-78.27-45.81-97.26-91.67-16.09-38.86-21.35-79.46-10.34-121.25,7.75-29.42,23.76-52.52,47.59-69.75,3.21-2.32,5.69-2.62,9.14-.58,72.48,42.75,118.2,106.07,133.05,193.06ZM966.61,1710.46c-2.18,4.14-4.05,7.96-10.08,7.08-53.55-7.84-104.94-21.45-149.73-55.94-54.59-42.04-65.7-117.49-23.67-171.68,21.11-27.22,50.3-36.06,84.18-36.32,46.59,3.11,84.6,24.52,108.6,69.69,16.75,31.52,20.1,66.1,16.58,101.49-3.02,30.36-11.79,58.96-25.88,85.67ZM411.59,461.05c-.5-8.27-.84-16.54-1.12-22.2.46-40.37,6.99-76.36,29.83-106.83,12.88-17.17,28.87-29.57,50.49-31.9,36.22-3.9,59.18,25.36,48.34,62.13-10.36,35.13-34.5,58.21-62.36,77.63-17.67,12.32-37.12,20.64-57.46,26.92-6.16,1.9-7.41-.62-7.73-5.75ZM727.66,691.88c-7.34-21.65-11.8-43.77-11.88-76.85,1.21-32.69,10.66-71.64,45.71-98.21,18.11-13.73,38.89-18.29,60.75-14.74,28.45,4.62,42.64,29.89,35.83,62.85-5.92,28.68-20.94,52.11-39.5,73.16-22.89,25.96-50.22,45.2-81.34,58.56-5.46,2.34-7.58,1.06-9.56-4.77ZM1220.44,835.44c-2.43,3.43-4.49,4.17-8.32,2.18-71.37-36.99-147.88-47.83-226.22-49.6-44.83-1.01-89.78,2.67-134.48-3.57-41.97-5.86-78.99-21.82-106.19-58.07-5.66-7.54-6.39-10.71,3.61-15.48,54.85-26.18,97.11-66.68,121.14-125.92,11.39-28.09,11.86-56.08-8.16-80.98-19.42-24.16-44.84-27.92-72.07-20.78-51.14,13.42-77.09,52.46-88.67,103.39-8.59,37.78-4.3,75.35,9.69,111.36,2.51,6.46.18,7.41-4.83,8.46-51.82,10.92-101.27,2.19-148.06-22.11-75.27-39.09-120.26-104.1-141.08-188.92-2.08-8.46-2.07-13.53,8.5-16.68,47.88-14.28,88.09-41.27,116.08-85.65,13.01-20.62,21.79-43.24,14.09-68.74-11.33-37.51-47.56-54.4-83.68-39.46-27.87,11.54-46.42,33.67-60.09,60.73-18.87,37.34-22.65,77.59-18.64,118.98.63,6.48-.53,8.52-6.93,9.26-53.7,6.2-105-3.89-155.01-24.03-5.96-2.4-4.31-4.96-2.16-8.93,20.42-37.69,37.04-77.05,46.3-119.56,4.15-19.06,7.74-38.31,7.85-57.89.05-9.75,3.24-11.78,11.66-10.41,6.3,1.03,12.86.2,19.31.2,78.12,3.15,146.46-26.19,209.91-71.39,30.4-21.65,57.48-47.36,82.05-75.99,4.82-5.62,6.21-3.79,8.84,1.56,18.81,38.28,40.2,74.78,69.69,105.08,30.81,31.67,65.55,56.6,108.68,65.59,17.07,3.56,34.11,2.58,50.59-3.53,5.56-2.06,6.79-.61,7.63,5.2,18.97,132.13,74.92,246.35,156.02,346.73,65.56,81.15,150.55,126.47,251.76,135.9,7.58.71,6.7,2.6,3.63,7.94-12.98,22.56-27.45,44.02-42.43,65.12Z"/>
      <path class="cls-1" d="M1340.57,2046.3c2.2,2.19,3.22,4.06,3.18,7.48-.3,25.91,3.65,51.29,9.9,76.22,12.42,49.55,32.47,95.67,57.24,139.61,2.35,4.17,5.57,7.76-1.09,11.92-41.71,26.07-76.19,61.22-108.97,98.35-5.88,6.66-12.14,13.02-17.57,20.12h19.06c35.08-38.85,71.73-75.73,116.61-102.34,4.29-2.54,6.41-2.63,9.12,2.15,20.14,35.61,43.76,68.55,69.04,100.19h30.59c-28.54-33.85-54.65-69.63-77.68-107.95-4.32-7.19-2.83-9.23,3.97-12.21,73.34-32.07,147.82-32.32,223.2-9.56,7.66,2.31,15.24,4.86,22.84,7.4v-27.76c-.14-.04-.28-.08-.42-.12-82.5-28.16-164.24-28.76-244.99,7.44-6.32,2.83-14.11,8.84-18.85,6.91-5.09-2.08-7.59-11.68-10.9-18.18-27.25-53.51-49.16-108.91-54.75-170.25-.82-8.97,1.61-8.46,7.76-5.53,21.07,10.02,43.45,13.88,66.36,13.56,49.59-.69,93.01-19.99,131.7-51.49,37.11-30.21,63.8-68.04,71.28-118.36,6.95-46.73-22.8-95.31-65.34-106.33-26.31-6.82-52.26-2.43-76.75,7.89-83.73,35.27-136.75,99.22-157.64,192.27-.37,1.63-.3,4.35-1.13,4.7-2.32.97-3.14-1.85-4.31-3.28-15-18.33-22.46-40.15-25.17-63.77-6.72-58.61,14.14-107.52,50.14-149.9,45.39-53.43,100.78-92.73,161.77-123.83,55.37-28.23,115.3-44.08,171.23-70.72v-27.79c-20.28,9.98-41.05,18.7-62.27,26.14-79.09,27.71-155.6,60.76-222.1,115.55-42.13,34.72-79.99,73.12-105.3,123.92-36.66,73.6-25.68,151.74,30.23,207.56ZM1370.45,2026.03c7.79-92.45,74.42-167.48,153.29-191.77,22.15-6.82,44.96-8.06,66.67,2.67,28.05,13.86,41.11,49.42,32.98,83.97-11.43,48.59-41.19,80.94-80.67,105.19-29.12,17.88-60.48,27.93-92.33,29.22-27.28.39-51.38-5.16-74.1-17.39-5.03-2.71-6.35-5.88-5.85-11.9Z"/>
      <path class="cls-1" d="M711.32,2358.08c42.55,12.31,85.47,10.42,128.35,1.44,3.21-.67,7.1-3.22,9.41-.5,1.16,1.37-.96,5.92-1.69,9-2.65,11.14-7.2,21.5-11.46,31.98h23.23c5.23-13.93,11.24-27.57,13.74-42.46,1.04-6.2,4.22-8.48,9.51-10.52,43.17-16.71,80.95-41.92,109.85-80.39,28.84-38.38,38.59-82.99,38.86-131.09.26-45.79-3.64-91.72,2.7-137.36,4.01-28.85,12.05-55.75,32.89-76.84,32.77-33.17,83.81-32.7,113.55,2.19,18.98,22.27,24.43,49.29,21.82,78.48-3.22,36.09-21.6,64.3-43.58,90.11-37.83,44.41-73.9,89.85-93.76,147.04-15.97,45.98-20.06,92.45-6.28,139.79,2.08,7.14,4.68,14.1,7.29,21.06h28.35c-14.49-30.23-19.64-62.5-16.72-96.36,5.5-63.74,34.09-116.1,72.97-163.23,20.26-24.56,41.44-48.26,57.54-76.38,32.42-56.63,27.47-116.54-13.98-163.47-27.67-31.33-72.8-40.04-109-20.81-48.99,26.02-69.85,71.11-75.76,125.98-4.27,39.54-1.65,79.22-1.38,118.85.21,30.57-.73,61.25-11.69,89.98-20.77,54.45-62.35,85.05-111.96,105.81-6.92,2.9-4.09-2.42-3.92-5.41,5.28-91.54-27.25-164.48-98.8-216.17-52.74-38.11-120.6-21.97-154.86,34.19-51.78,84.88-9.39,197.85,84.76,225.1ZM644.92,2144.29c24.09-38.59,70.65-51.56,112.53-30.37,52.84,26.74,81.99,73.45,96.12,131.88,6.1,25.23,5.28,50.99,3.51,76.72-.37,5.35-2.23,8.13-7.76,9.46-24.73,5.96-49.75,8.79-77.99,9.11-31.21-.4-64.06-5.74-93.54-25.85-33.23-22.67-47.83-56.16-50.16-96.4-1.53-26.51,3.17-51.95,17.28-74.55Z"/>
      <path class="cls-1" d="M1700,1148.12c-19.28-9.93-38.95-18.9-58.62-27.9-30.05-13.75-60.53-26.71-88.06-45.84-16.55-11.5-31.54-24.78-39.6-44.72-16.65-41.16-13.06-82.03,2.31-122.45,16.14-42.43,47.41-70.32,82.66-94.06,32.02-21.57,66.65-37.67,101.32-53.68v-13.91c-34.82,13.52-69.26,27.96-101.39,47.86-45.7,28.3-84.52,63.49-103.7,117.81-15.22,43.11-18.4,86.25.92,129.13,16.05,35.62,44.47,57.3,76.7,73.88,34.72,17.85,69.94,34.67,105.25,51.2,7.53,3.52,14.49,8.47,22.22,11.55v-28.86h0Z"/>
      <path class="cls-1" d="M241.93,2279.14c-13.48-36.34-28.15-72.15-49.91-104.11-41.6-61.11-101.05-81.11-168.64-56.98-8.21,2.93-15.79,7.21-23.39,11.42v21c8.17-4.75,16.61-8.89,25.47-12.22,53.97-20.25,107.64-4.79,143.72,41.98,19.52,25.31,31.8,54.91,43.04,84.94,16.72,44.68,30.32,90.61,48.21,134.82h26.24c-16.72-39.54-29.8-80.58-44.74-120.86Z"/>
      <path class="cls-1" d="M1700,73.82c-15.95,1.25-31.78-.91-47.46-3.81-51.73-9.56-96.99-34.26-138.26-67.73-.95-.77-1.92-1.53-2.9-2.28h-19.5c17.56,15.96,36.07,30.6,55.95,43.42,43.36,27.96,89.84,44.66,141.12,44.87,3.65.01,7.36-.87,11.04-.94v-13.53Z"/>
    </g>
  </g>
</svg>