<?xml version="1.0" encoding="UTF-8"?>
<svg id="PATTERNS" xmlns="http://www.w3.org/2000/svg" xmlns:xlink="http://www.w3.org/1999/xlink" viewBox="0 0 500 500">
  <defs>
    <style>
      .cls-1 {
        fill: url(#_新增圖樣色票_2);
        opacity: .10;
      }

      .cls-1, .cls-2, .cls-3 {
        stroke-width: 0px;
      }

      .cls-2 {
        fill: none;
      }

      .cls-3 {
        fill: black;
      }
    </style>
    <pattern id="_新增圖樣色票_2" data-name="新增圖樣色票 2" x="0" y="0" width="184.41" height="319.4" patternTransform="translate(-1.33 6)" patternUnits="userSpaceOnUse" viewBox="0 0 184.41 319.4">
      <g>
        <rect class="cls-2" x="0" width="184.41" height="319.4"/>
        <g>
          <polygon class="cls-3" points="217.79 261.31 181.45 305.23 179.98 307.01 180.61 308.61 182.09 306.82 218.95 262.25 219.02 262.17 217.87 261.21 217.79 261.31"/>
          <polygon class="cls-3" points="224.64 266.81 223.48 265.86 223.45 265.9 184.55 312.92 183.04 314.75 183.67 316.34 185.18 314.51 224.61 266.84 224.64 266.81"/>
          <polygon class="cls-3" points="212.13 256.71 178.36 297.54 176.92 299.28 177.55 300.87 179 299.12 213.29 257.66 213.41 257.52 212.25 256.57 212.13 256.71"/>
          <polygon class="cls-3" points="206.47 252.12 175.27 289.84 173.87 291.54 174.5 293.13 175.91 291.43 207.64 253.07 207.79 252.88 206.64 251.92 206.47 252.12"/>
          <polygon class="cls-3" points="170.81 283.81 171.44 285.4 172.81 283.73 201.73 248.77 200.38 248.06 172.18 282.15 170.81 283.81"/>
          <polygon class="cls-3" points="228.43 267.38 233.09 271.23 233.22 269.39 229.36 266.2 220.04 258.49 184.18 228.82 184.18 230.77 213.47 255.01 228.43 267.38"/>
          <polygon class="cls-3" points="163.23 247.15 159.72 232.38 158.46 233.53 161.15 244.86 163.23 247.15"/>
          <polygon class="cls-3" points="170.57 278.06 167.68 265.89 166.87 268.96 166.87 268.97 167.39 271.14 169.75 278.83 170.33 280.7 171 279.86 170.62 278.29 170.57 278.06"/>
          <polygon class="cls-3" points="182.57 265.52 172.05 221.19 170.78 222.35 181.38 266.99 182.57 265.52"/>
          <polygon class="cls-3" points="175.6 274.16 176.79 272.69 176.68 272.24 165.89 226.79 164.62 227.94 175.42 273.43 175.6 274.16"/>
          <polygon class="cls-3" points="187.17 259.82 188.36 258.34 183.83 239.27 178.21 215.6 176.94 216.75 183.71 245.24 187.17 259.82"/>
          <polygon class="cls-3" points="152.15 260.81 150.74 261.33 150.79 261.44 170.66 314.87 171.47 317.04 173.16 317.29 172.35 315.11 152.19 260.9 152.15 260.81"/>
          <polygon class="cls-3" points="179.69 318.26 181.39 318.51 180.56 316.28 158.99 258.3 158.98 258.27 157.57 258.79 157.59 258.83 178.87 316.04 179.69 318.26"/>
          <polygon class="cls-3" points="145.32 263.35 143.91 263.87 143.98 264.05 162.45 313.7 163.24 315.82 164.93 316.07 164.14 313.95 145.38 263.51 145.32 263.35"/>
          <polygon class="cls-3" points="138.49 265.89 137.08 266.41 137.18 266.65 154.24 312.54 155.01 314.6 156.7 314.85 155.93 312.78 138.58 266.12 138.49 265.89"/>
          <polygon class="cls-3" points="146.78 313.38 148.47 313.63 147.72 311.61 131.9 269.08 130.6 269.9 146.03 311.37 146.78 313.38"/>
          <polygon class="cls-3" points="160.81 253.87 149.47 258.09 105.85 274.31 107.54 275.29 143.17 262.03 161.37 255.26 167.04 253.16 165.5 252.12 160.81 253.87"/>
          <polygon class="cls-3" points="102.43 269.41 159.6 248.14 158.07 247.11 101.91 268 102.43 269.41"/>
          <polygon class="cls-3" points="152.17 243.13 150.65 242.1 99.37 261.17 99.9 262.58 152.17 243.13"/>
          <polygon class="cls-3" points="108.22 302.27 111.24 301.61 96.7 297.27 97.06 298.94 108.22 302.27"/>
          <polygon class="cls-3" points="134.11 310.01 141.95 311.81 143.85 312.24 143.46 311.24 141.92 310.78 141.68 310.71 129.69 307.13 131.95 309.36 131.96 309.37 134.11 310.01"/>
          <polygon class="cls-3" points="93.54 282.67 137.51 295.82 136.83 294.05 93.17 281 93.54 282.67"/>
          <polygon class="cls-3" points="140.11 304.2 140.83 304.41 140.14 302.64 139.7 302.51 94.94 289.13 95.3 290.81 140.11 304.2"/>
          <polygon class="cls-3" points="119.84 282.93 134.19 287.22 133.51 285.45 114.72 279.83 91.41 272.87 91.77 274.54 119.84 282.93"/>
          <polygon class="cls-3" points="121.25 275.75 130.87 278.62 130.19 276.85 122.95 274.69 119.55 273.67 117.38 274.23 116.74 274.4 116.86 274.43 121.25 275.75"/>
          <polygon class="cls-3" points="175.89 329.43 176.96 328.08 174.67 327.7 117.64 318.06 117.53 318.04 117.28 319.52 117.4 319.54 173.61 329.04 175.89 329.43"/>
          <polygon class="cls-3" points="181.06 322.91 182.13 321.57 179.78 321.17 118.78 310.86 118.75 310.86 118.5 312.33 118.54 312.34 178.73 322.52 181.06 322.91"/>
          <polygon class="cls-3" points="114.1 326.44 117.34 307.28 118.35 301.32 116.69 302.13 115.86 307.07 113.84 319.01 106.08 364.89 107.77 363.91 114.1 326.44"/>
          <polygon class="cls-3" points="100.12 365.4 110.3 305.25 108.64 306.06 98.64 365.15 100.12 365.4"/>
          <polygon class="cls-3" points="100.58 309.99 91.46 363.93 92.94 364.18 102.24 309.18 100.58 309.99"/>
        </g>
        <g>
          <polygon class="cls-3" points="33.38 261.31 -2.95 305.23 -4.43 307.01 -3.8 308.61 -2.32 306.82 34.55 262.25 34.62 262.17 33.46 261.21 33.38 261.31"/>
          <polygon class="cls-3" points="40.23 266.81 39.07 265.86 39.04 265.9 .14 312.92 -1.37 314.75 -.74 316.34 .78 314.51 40.21 266.84 40.23 266.81"/>
          <polygon class="cls-3" points="27.72 256.71 -6.05 297.54 -7.48 299.28 -6.85 300.87 -5.41 299.12 28.89 257.66 29 257.52 27.84 256.57 27.72 256.71"/>
          <polygon class="cls-3" points="22.06 252.12 -9.14 289.84 -10.54 291.54 -9.91 293.13 -8.5 291.43 23.23 253.07 23.39 252.88 22.23 251.92 22.06 252.12"/>
          <polygon class="cls-3" points="-13.6 283.81 -12.97 285.4 -11.59 283.73 17.33 248.77 15.97 248.06 -12.23 282.15 -13.6 283.81"/>
          <polygon class="cls-3" points="44.03 267.38 48.68 271.23 48.81 269.39 44.95 266.2 35.64 258.49 -.23 228.82 -.23 230.77 29.06 255.01 44.03 267.38"/>
          <polygon class="cls-3" points="49.43 260.45 3.26 222.26 2.31 223.42 49.31 262.29 49.43 260.45"/>
          <polygon class="cls-3" points="50.06 251.51 7.91 216.65 6.95 217.8 49.93 253.35 50.06 251.51"/>
          <polygon class="cls-3" points="2.76 259.82 3.95 258.34 -.58 239.27 -6.2 215.6 -7.47 216.75 -.7 245.24 2.76 259.82"/>
          <polygon class="cls-3" points="8.55 252.65 9.74 251.17 7.99 243.82 7.17 240.37 5.61 238.78 5.14 238.3 5.17 238.42 6.23 242.88 8.55 252.65"/>
          <polygon class="cls-3" points="8.52 309.37 7.45 310.71 9.74 311.1 66.77 320.74 66.87 320.76 67.12 319.28 67.01 319.26 10.79 309.76 8.52 309.37"/>
          <polygon class="cls-3" points="65.66 327.95 65.91 326.47 65.86 326.46 5.68 316.28 3.34 315.89 2.28 317.23 4.62 317.63 65.62 327.94 65.66 327.95"/>
          <polygon class="cls-3" points="13.69 302.86 12.62 304.2 14.86 304.58 67.91 313.55 68.09 313.58 68.34 312.1 68.15 312.07 15.91 303.23 13.69 302.86"/>
          <polygon class="cls-3" points="69.3 306.39 69.55 304.91 69.3 304.87 21.03 296.71 18.86 296.34 17.79 297.68 19.97 298.05 69.06 306.35 69.3 306.39"/>
          <polygon class="cls-3" points="24.03 289.83 22.97 291.17 25.09 291.53 69.83 299.09 69.77 297.56 26.15 290.18 24.03 289.83"/>
          <polygon class="cls-3" points="70.3 312.38 67.06 331.52 66.06 337.48 67.71 336.67 68.55 331.73 70.57 319.81 78.33 273.91 76.64 274.89 70.3 312.38"/>
          <polygon class="cls-3" points="84.28 273.41 74.11 333.55 75.77 332.74 85.76 273.66 84.28 273.41"/>
          <polygon class="cls-3" points="83.82 328.81 92.94 274.87 91.46 274.62 82.16 329.62 83.82 328.81"/>
          <polygon class="cls-3" points="34.92 279 34.91 279 33.29 280.52 27.81 286.43 26.48 287.86 27.54 288.02 28.71 286.92 28.89 286.75 37.98 278.16 34.92 279"/>
          <polygon class="cls-3" points="61.39 253.99 52.93 261.98 51.99 264.93 63.02 254.51 61.39 253.99"/>
          <polygon class="cls-3" points="45.75 290.87 78.87 259.59 77.24 259.07 43.87 290.58 45.75 290.87"/>
          <polygon class="cls-3" points="34.77 289.15 36.65 289.45 36.98 289.13 70.95 257.05 69.32 256.53 35.32 288.64 34.77 289.15"/>
          <polygon class="cls-3" points="52.98 292 54.85 292.3 69.11 278.84 86.8 262.13 85.16 261.61 63.87 281.72 52.98 292"/>
          <polygon class="cls-3" points="69.38 286.54 62.08 293.43 63.96 293.72 69.45 288.53 72.03 286.1 72.63 283.94 72.8 283.3 72.71 283.39 69.38 286.54"/>
          <polygon class="cls-3" points="90.35 333 95.38 303.23 93.9 302.98 88.87 332.75 90.35 333"/>
        </g>
        <g>
          <polygon class="cls-3" points="212.04 123.23 226.39 127.52 225.71 125.75 206.92 120.13 183.62 113.17 183.98 114.84 212.04 123.23"/>
          <polygon class="cls-3" points="192.79 150.29 183.67 204.23 185.14 204.48 194.45 149.48 192.79 150.29"/>
        </g>
        <g>
          <polygon class="cls-3" points="58.82 217.8 95.16 173.87 96.63 172.09 96 170.5 94.52 172.29 57.65 216.85 57.59 216.93 58.74 217.89 58.82 217.8"/>
          <polygon class="cls-3" points="51.97 212.29 53.13 213.25 53.16 213.21 92.06 166.18 93.57 164.36 92.94 162.76 91.43 164.59 52 212.26 51.97 212.29"/>
          <polygon class="cls-3" points="64.48 222.39 98.25 181.56 99.69 179.83 99.06 178.23 97.61 179.98 63.31 221.44 63.2 221.58 64.36 222.53 64.48 222.39"/>
          <polygon class="cls-3" points="70.14 226.98 101.34 189.26 102.74 187.56 102.11 185.97 100.7 187.67 68.97 226.03 68.81 226.22 69.97 227.18 70.14 226.98"/>
          <polygon class="cls-3" points="105.8 195.3 105.17 193.7 103.8 195.37 74.88 230.33 76.23 231.05 104.43 196.95 105.8 195.3"/>
          <polygon class="cls-3" points="48.17 211.72 43.52 207.87 43.39 209.71 47.25 212.9 56.57 220.61 92.43 250.28 92.43 248.33 63.15 224.1 48.17 211.72"/>
          <polygon class="cls-3" points="42.76 218.65 88.94 256.84 89.89 255.69 42.89 216.81 42.76 218.65"/>
          <polygon class="cls-3" points="42.14 227.59 84.29 262.46 85.25 261.3 42.27 225.75 42.14 227.59"/>
          <polygon class="cls-3" points="113.38 231.96 116.88 246.72 118.15 245.57 115.46 234.24 113.38 231.96"/>
          <polygon class="cls-3" points="106.04 201.05 108.93 213.22 109.74 210.14 109.74 210.14 109.22 207.95 106.85 200.27 106.28 198.41 105.61 199.24 105.98 200.79 106.04 201.05"/>
          <polygon class="cls-3" points="94.04 213.58 104.56 257.91 105.83 256.76 95.23 212.11 94.04 213.58"/>
          <polygon class="cls-3" points="101.01 204.94 99.82 206.41 99.93 206.86 110.72 252.32 111.99 251.17 101.19 205.67 101.01 204.94"/>
          <polygon class="cls-3" points="89.44 219.28 88.25 220.76 92.78 239.83 98.4 263.5 99.67 262.35 92.9 233.85 89.44 219.28"/>
          <polygon class="cls-3" points="83.66 226.45 82.46 227.93 84.21 235.28 85.03 238.73 86.6 240.32 87.06 240.8 87.03 240.68 85.97 236.22 83.66 226.45"/>
          <polygon class="cls-3" points="125.59 101.61 89.25 145.53 87.78 147.31 88.41 148.91 89.89 147.11 126.75 102.55 126.82 102.47 125.66 101.51 125.59 101.61"/>
          <polygon class="cls-3" points="132.43 107.11 131.28 106.16 131.25 106.19 92.34 153.22 90.83 155.05 91.46 156.64 92.98 154.81 132.41 107.14 132.43 107.11"/>
          <polygon class="cls-3" points="119.93 97.01 86.16 137.84 84.72 139.58 85.35 141.17 86.79 139.42 121.09 97.96 121.2 97.82 120.05 96.87 119.93 97.01"/>
          <polygon class="cls-3" points="114.27 92.42 83.07 130.14 81.66 131.84 82.29 133.43 83.7 131.73 115.43 93.37 115.59 93.18 114.43 92.22 114.27 92.42"/>
          <polygon class="cls-3" points="78.61 124.1 79.23 125.7 80.61 124.03 109.53 89.07 108.18 88.36 79.97 122.45 78.61 124.1"/>
          <polygon class="cls-3" points="136.23 107.68 140.88 111.53 141.01 109.69 137.16 106.5 127.84 98.79 91.97 69.12 91.97 71.07 121.27 95.3 136.23 107.68"/>
          <polygon class="cls-3" points="141.64 100.75 95.47 62.56 94.51 63.72 141.51 102.59 141.64 100.75"/>
          <polygon class="cls-3" points="142.26 91.81 100.11 56.94 99.16 58.1 142.14 93.65 142.26 91.81"/>
          <polygon class="cls-3" points="71.03 87.45 67.52 72.68 66.25 73.83 68.94 85.16 71.03 87.45"/>
          <polygon class="cls-3" points="78.37 118.35 75.48 106.18 74.67 109.25 74.67 109.27 75.18 111.44 77.55 119.13 78.12 121 78.8 120.16 78.42 118.59 78.37 118.35"/>
          <polygon class="cls-3" points="90.37 105.82 79.84 61.49 78.58 62.64 89.18 107.29 90.37 105.82"/>
          <polygon class="cls-3" points="83.39 114.46 84.58 112.99 84.48 112.53 73.68 67.09 72.42 68.24 83.22 113.73 83.39 114.46"/>
          <polygon class="cls-3" points="94.96 100.12 96.16 98.64 91.63 79.57 86.01 55.9 84.74 57.05 91.5 85.54 94.96 100.12"/>
          <polygon class="cls-3" points="100.75 92.95 101.94 91.47 100.2 84.12 99.38 80.67 97.81 79.08 97.34 78.6 97.37 78.72 98.43 83.18 100.75 92.95"/>
          <polygon class="cls-3" points="124.46 218.3 125.87 217.77 125.83 217.66 105.95 164.23 105.15 162.06 103.45 161.81 104.26 163.99 124.42 218.2 124.46 218.3"/>
          <polygon class="cls-3" points="96.92 160.84 95.22 160.59 96.05 162.82 117.62 220.8 117.63 220.84 119.04 220.31 119.02 220.27 97.74 163.06 96.92 160.84"/>
          <polygon class="cls-3" points="131.29 215.75 132.7 215.23 132.63 215.05 114.16 165.4 113.37 163.28 111.68 163.03 112.47 165.16 131.23 215.59 131.29 215.75"/>
          <polygon class="cls-3" points="138.12 213.22 139.53 212.69 139.44 212.45 122.37 166.57 121.6 164.5 119.91 164.25 120.68 166.33 138.04 212.98 138.12 213.22"/>
          <polygon class="cls-3" points="129.83 165.72 128.14 165.47 128.89 167.49 144.71 210.02 146 209.21 130.58 167.73 129.83 165.72"/>
          <polygon class="cls-3" points="115.8 225.23 127.14 221.02 170.76 204.79 169.07 203.82 133.44 217.07 115.24 223.84 109.58 225.95 111.11 226.98 115.8 225.23"/>
          <polygon class="cls-3" points="174.18 209.69 117.01 230.96 118.54 231.99 174.7 211.1 174.18 209.69"/>
          <polygon class="cls-3" points="124.44 235.97 125.97 237 177.24 217.93 176.71 216.52 124.44 235.97"/>
          <polygon class="cls-3" points="134.68 168.32 134.93 168.39 146.91 171.97 144.65 169.74 144.65 169.73 142.52 169.09 134.66 167.3 132.76 166.86 133.15 167.86 134.68 168.32"/>
          <polygon class="cls-3" points="168.39 176.83 165.37 177.49 179.91 181.84 179.54 180.16 168.39 176.83"/>
          <polygon class="cls-3" points="183.07 196.43 139.1 183.28 139.79 185.05 183.43 198.1 183.07 196.43"/>
          <polygon class="cls-3" points="136.91 176.59 181.67 189.97 181.31 188.3 136.5 174.9 135.79 174.69 136.47 176.46 136.91 176.59"/>
          <polygon class="cls-3" points="156.77 196.17 142.42 191.88 143.1 193.65 161.89 199.27 185.2 206.23 184.83 204.56 156.77 196.17"/>
          <polygon class="cls-3" points="155.36 203.35 145.74 200.48 146.42 202.25 153.66 204.41 157.06 205.43 159.22 204.87 159.87 204.7 159.75 204.67 155.36 203.35"/>
          <polygon class="cls-3" points="59.95 101.11 58.54 101.63 58.58 101.74 78.46 155.17 79.26 157.34 80.96 157.59 80.15 155.41 59.98 101.2 59.95 101.11"/>
          <polygon class="cls-3" points="87.49 158.56 89.18 158.81 88.35 156.58 66.79 98.6 66.78 98.57 65.37 99.09 65.39 99.13 86.66 156.34 87.49 158.56"/>
          <polygon class="cls-3" points="53.12 103.65 51.71 104.17 51.78 104.35 70.25 154 71.03 156.12 72.73 156.37 71.94 154.24 53.18 103.81 53.12 103.65"/>
          <polygon class="cls-3" points="46.29 106.19 44.88 106.71 44.97 106.95 62.04 152.83 62.81 154.9 64.5 155.15 63.73 153.08 46.37 106.42 46.29 106.19"/>
          <polygon class="cls-3" points="54.58 153.68 56.27 153.93 55.52 151.91 39.7 109.38 38.4 110.19 53.83 151.67 54.58 153.68"/>
          <polygon class="cls-3" points="68.61 94.17 57.27 98.39 13.65 114.61 15.33 115.58 50.96 102.33 69.17 95.56 74.83 93.46 73.3 92.42 68.61 94.17"/>
          <polygon class="cls-3" points="10.23 109.71 67.4 88.44 65.87 87.41 9.71 108.3 10.23 109.71"/>
          <polygon class="cls-3" points="59.97 83.43 58.44 82.4 7.17 101.47 7.69 102.88 59.97 83.43"/>
          <polygon class="cls-3" points="16.02 142.57 19.04 141.91 4.5 137.56 4.86 139.24 16.02 142.57"/>
          <polygon class="cls-3" points="41.91 150.31 49.74 152.11 51.65 152.54 51.26 151.54 49.72 151.08 49.48 151.01 37.49 147.43 39.75 149.66 39.76 149.67 41.91 150.31"/>
          <polygon class="cls-3" points="1.33 122.97 45.31 136.12 44.62 134.35 .97 121.3 1.33 122.97"/>
          <polygon class="cls-3" points="47.9 144.5 48.62 144.71 47.94 142.94 47.49 142.81 2.74 129.43 3.1 131.11 47.9 144.5"/>
          <polygon class="cls-3" points="27.64 123.23 41.99 127.52 41.3 125.75 22.52 120.13 -.79 113.17 -.43 114.84 27.64 123.23"/>
          <polygon class="cls-3" points="29.05 116.05 38.67 118.92 37.99 117.15 30.74 114.99 27.35 113.97 25.18 114.53 24.54 114.7 24.66 114.73 29.05 116.05"/>
          <polygon class="cls-3" points="100.72 149.67 99.65 151.01 101.95 151.4 158.97 161.04 159.08 161.06 159.33 159.58 159.21 159.56 103 150.06 100.72 149.67"/>
          <polygon class="cls-3" points="157.86 168.25 158.11 166.77 158.06 166.76 97.88 156.58 95.55 156.19 94.48 157.53 96.83 157.93 157.83 168.24 157.86 168.25"/>
          <polygon class="cls-3" points="105.89 143.16 104.83 144.5 107.06 144.88 160.12 153.85 160.29 153.88 160.54 152.4 160.35 152.37 108.12 143.53 105.89 143.16"/>
          <polygon class="cls-3" points="161.51 146.69 161.76 145.21 161.5 145.17 113.23 137.01 111.06 136.64 110 137.98 112.18 138.35 161.26 146.65 161.51 146.69"/>
          <polygon class="cls-3" points="116.23 130.13 115.17 131.47 117.3 131.83 162.03 139.39 161.98 137.86 118.35 130.48 116.23 130.13"/>
          <polygon class="cls-3" points="162.5 152.68 159.27 171.82 158.26 177.78 159.92 176.97 160.75 172.03 162.77 160.11 170.53 114.21 168.85 115.18 162.5 152.68"/>
          <polygon class="cls-3" points="176.49 113.71 166.32 173.85 167.97 173.04 177.96 113.96 176.49 113.71"/>
          <polygon class="cls-3" points="176.03 169.11 185.15 115.17 183.67 114.92 174.37 169.92 176.03 169.11"/>
          <polygon class="cls-3" points="127.12 119.29 127.11 119.3 125.5 120.82 120.01 126.73 118.68 128.15 119.74 128.32 120.91 127.22 121.09 127.04 130.19 118.46 127.12 119.29"/>
          <polygon class="cls-3" points="153.59 94.29 145.13 102.28 144.19 105.23 155.22 94.81 153.59 94.29"/>
          <polygon class="cls-3" points="137.95 131.17 171.08 99.89 169.44 99.37 136.08 130.88 137.95 131.17"/>
          <polygon class="cls-3" points="126.98 129.45 128.85 129.75 129.19 129.43 163.15 97.35 161.52 96.83 127.52 128.94 126.98 129.45"/>
          <polygon class="cls-3" points="145.18 132.3 147.06 132.59 161.31 119.14 179 102.43 177.37 101.91 156.08 122.02 145.18 132.3"/>
          <polygon class="cls-3" points="161.58 126.84 154.29 133.73 156.16 134.02 161.66 128.83 164.23 126.4 164.83 124.24 165.01 123.6 164.92 123.69 161.58 126.84"/>
          <polygon class="cls-3" points="83.69 169.73 84.75 168.38 82.46 168 25.43 158.35 25.33 158.34 25.08 159.82 25.2 159.84 81.41 169.34 83.69 169.73"/>
          <polygon class="cls-3" points="88.86 163.21 89.92 161.87 87.58 161.47 26.58 151.16 26.54 151.15 26.29 152.63 26.34 152.64 86.53 162.82 88.86 163.21"/>
          <polygon class="cls-3" points="78.52 176.24 79.58 174.9 77.34 174.52 24.29 165.55 24.12 165.52 23.87 167 24.05 167.03 76.29 175.87 78.52 176.24"/>
          <polygon class="cls-3" points="22.9 172.71 22.65 174.19 22.91 174.23 71.17 182.39 73.35 182.76 74.41 181.42 72.23 181.05 23.14 172.75 22.9 172.71"/>
          <polygon class="cls-3" points="68.18 189.27 69.24 187.93 67.11 187.57 22.37 180.01 22.43 181.54 66.06 188.92 68.18 189.27"/>
          <polygon class="cls-3" points="21.9 166.73 25.14 147.58 26.15 141.62 24.49 142.43 23.65 147.37 21.64 159.31 13.88 205.19 15.56 204.21 21.9 166.73"/>
          <polygon class="cls-3" points="7.92 205.69 18.09 145.55 16.43 146.36 6.44 205.44 7.92 205.69"/>
          <polygon class="cls-3" points="8.38 150.29 -.74 204.23 .74 204.48 10.04 149.48 8.38 150.29"/>
          <polygon class="cls-3" points="57.28 200.11 57.29 200.1 58.93 198.56 64.39 192.67 65.72 191.24 64.67 191.08 63.49 192.19 63.31 192.36 54.22 200.94 57.28 200.11"/>
          <polygon class="cls-3" points="40.22 214.17 29.18 224.58 30.81 225.11 39.28 217.12 40.22 214.17"/>
          <polygon class="cls-3" points="46.46 188.23 13.33 219.51 14.96 220.03 48.33 188.52 46.46 188.23"/>
          <polygon class="cls-3" points="57.43 189.95 55.56 189.65 55.22 189.97 21.26 222.05 22.89 222.57 56.89 190.46 57.43 189.95"/>
          <polygon class="cls-3" points="39.23 187.1 37.35 186.81 23.09 200.27 5.41 216.97 7.04 217.49 28.34 197.38 39.23 187.1"/>
          <polygon class="cls-3" points="22.82 192.57 30.12 185.67 28.25 185.38 22.75 190.57 20.17 193 19.57 195.18 19.4 195.8 19.49 195.71 22.82 192.57"/>
          <polygon class="cls-3" points="182.55 173.3 187.58 143.53 186.11 143.28 181.07 173.05 182.55 173.3"/>
          <polygon class="cls-3" points="124.74 243.79 125.26 245.2 152.8 234.96 152.27 233.55 124.74 243.79"/>
          <polygon class="cls-3" points="33.92 230.58 54.99 248.01 55.95 246.86 34.88 229.43 33.92 230.58"/>
        </g>
        <g>
          <polygon class="cls-3" points="-27.64 196.17 -41.99 191.88 -41.3 193.65 -22.52 199.27 .79 206.23 .43 204.56 -27.64 196.17"/>
          <polygon class="cls-3" points="-8.38 169.11 .74 115.17 -.74 114.92 -10.04 169.92 -8.38 169.11"/>
          <polygon class="cls-3" points="-1.86 173.3 3.18 143.53 1.7 143.28 -3.33 173.05 -1.86 173.3"/>
        </g>
        <g>
          <polygon class="cls-3" points="151.02 58.1 187.36 14.17 188.83 12.39 188.2 10.8 186.72 12.58 149.86 57.15 149.79 57.23 150.95 58.19 151.02 58.1"/>
          <polygon class="cls-3" points="144.18 52.59 145.33 53.55 145.36 53.51 184.27 6.48 185.78 4.65 185.15 3.06 183.63 4.89 144.2 52.56 144.18 52.59"/>
          <polygon class="cls-3" points="156.68 62.69 190.45 21.86 191.89 20.12 191.26 18.53 189.82 20.28 155.51 61.74 155.4 61.88 156.56 62.83 156.68 62.69"/>
          <polygon class="cls-3" points="162.34 67.28 193.54 29.56 194.95 27.86 194.32 26.27 192.91 27.97 161.18 66.33 161.02 66.52 162.17 67.48 162.34 67.28"/>
          <polygon class="cls-3" points="198 35.6 197.37 34 196 35.67 167.08 70.63 168.43 71.35 196.64 37.25 198 35.6"/>
          <polygon class="cls-3" points="140.38 52.02 135.72 48.17 135.59 50.01 139.45 53.2 148.78 60.91 184.63 90.57 184.63 88.63 155.35 64.4 140.38 52.02"/>
          <polygon class="cls-3" points="134.97 58.95 181.14 97.14 182.1 95.99 135.1 57.11 134.97 58.95"/>
          <polygon class="cls-3" points="134.34 67.89 176.5 102.76 177.45 101.6 134.47 66.05 134.34 67.89"/>
          <polygon class="cls-3" points="181.64 59.58 180.45 61.06 184.98 80.13 190.6 103.8 191.87 102.65 185.1 74.15 181.64 59.58"/>
          <polygon class="cls-3" points="175.86 66.75 174.67 68.23 176.41 75.58 177.23 79.03 178.8 80.62 179.26 81.1 179.24 80.98 178.18 76.52 175.86 66.75"/>
          <polygon class="cls-3" points="175.89 10.03 176.96 8.68 174.67 8.3 117.64 -1.35 117.53 -1.36 117.28 .12 117.4 .14 173.61 9.64 175.89 10.03"/>
          <polygon class="cls-3" points="181.06 3.51 182.13 2.17 179.78 1.77 118.78 -8.54 118.75 -8.55 118.5 -7.07 118.54 -7.06 178.73 3.12 181.06 3.51"/>
          <polygon class="cls-3" points="170.72 16.54 171.78 15.2 169.55 14.82 116.49 5.85 116.32 5.82 116.07 7.3 116.25 7.33 168.49 16.17 170.72 16.54"/>
          <polygon class="cls-3" points="115.1 13.01 114.85 14.48 115.11 14.53 163.38 22.69 165.55 23.06 166.61 21.72 164.43 21.35 115.34 13.05 115.1 13.01"/>
          <polygon class="cls-3" points="160.38 29.57 161.44 28.23 159.31 27.87 114.58 20.31 114.63 21.84 158.26 29.22 160.38 29.57"/>
          <polygon class="cls-3" points="114.1 7.03 117.34 -12.12 118.35 -18.08 116.69 -17.27 115.86 -12.33 113.84 -.4 106.08 45.48 107.77 44.51 114.1 7.03"/>
          <polygon class="cls-3" points="100.12 45.99 110.3 -14.15 108.64 -13.34 98.64 45.74 100.12 45.99"/>
          <polygon class="cls-3" points="100.58 -9.41 91.46 44.53 92.94 44.78 102.24 -10.22 100.58 -9.41"/>
          <polygon class="cls-3" points="149.48 40.41 149.5 40.4 151.13 38.86 156.6 32.97 157.93 31.54 156.87 31.38 155.69 32.49 155.52 32.66 146.42 41.24 149.48 40.41"/>
          <polygon class="cls-3" points="132.42 54.47 121.38 64.88 123.02 65.41 131.48 57.42 132.42 54.47"/>
          <polygon class="cls-3" points="138.66 28.53 105.54 59.81 107.17 60.33 140.54 28.82 138.66 28.53"/>
          <polygon class="cls-3" points="149.64 30.25 147.76 29.95 147.42 30.27 113.46 62.35 115.09 62.87 149.09 30.76 149.64 30.25"/>
          <polygon class="cls-3" points="131.43 27.4 129.56 27.1 115.3 40.57 97.61 57.27 99.24 57.79 120.54 37.68 131.43 27.4"/>
          <polygon class="cls-3" points="115.02 32.87 122.32 25.97 120.45 25.68 114.95 30.87 112.38 33.3 111.77 35.48 111.6 36.09 111.69 36.01 115.02 32.87"/>
          <polygon class="cls-3" points="126.12 70.88 147.19 88.31 148.15 87.15 127.08 69.73 126.12 70.88"/>
        </g>
        <g>
          <polygon class="cls-3" points="-33.38 58.1 2.95 14.17 4.42 12.39 3.79 10.8 2.32 12.58 -34.55 57.15 -34.62 57.23 -33.46 58.19 -33.38 58.1"/>
          <polygon class="cls-3" points="-40.23 52.59 -39.07 53.55 -39.04 53.51 -.14 6.48 1.37 4.65 .74 3.06 -.78 4.89 -40.21 52.56 -40.23 52.59"/>
          <polygon class="cls-3" points="-27.73 62.69 6.04 21.86 7.48 20.12 6.85 18.53 5.41 20.28 -28.89 61.74 -29 61.88 -27.85 62.83 -27.73 62.69"/>
          <polygon class="cls-3" points="-22.07 67.28 9.14 29.56 10.54 27.86 9.91 26.27 8.5 27.97 -23.23 66.33 -23.39 66.52 -22.23 67.48 -22.07 67.28"/>
          <polygon class="cls-3" points="13.6 35.6 12.97 34 11.59 35.67 -17.33 70.63 -15.98 71.35 12.23 37.25 13.6 35.6"/>
          <polygon class="cls-3" points="-44.03 52.02 -48.69 48.17 -48.81 50.01 -44.95 53.2 -35.63 60.91 .23 90.57 .23 88.63 -29.06 64.4 -44.03 52.02"/>
          <polygon class="cls-3" points="21.17 72.25 24.68 87.02 25.95 85.87 23.26 74.54 21.17 72.25"/>
          <polygon class="cls-3" points="13.83 41.35 16.72 53.52 17.53 50.44 17.53 50.44 17.01 48.25 14.65 40.57 14.08 38.7 13.4 39.54 13.77 41.09 13.83 41.35"/>
          <polygon class="cls-3" points="1.83 53.88 12.36 98.21 13.63 97.06 3.02 52.41 1.83 53.88"/>
          <polygon class="cls-3" points="8.81 45.24 7.62 46.71 7.73 47.16 18.52 92.62 19.79 91.46 8.98 45.97 8.81 45.24"/>
          <polygon class="cls-3" points="-2.76 59.58 -3.95 61.06 .58 80.13 6.2 103.8 7.47 102.65 .7 74.15 -2.76 59.58"/>
          <polygon class="cls-3" points="32.26 58.6 33.66 58.07 33.62 57.96 13.75 4.53 12.94 2.36 11.25 2.11 12.06 4.29 32.22 58.5 32.26 58.6"/>
          <polygon class="cls-3" points="4.71 1.14 3.02 .89 3.85 3.12 25.41 61.1 25.43 61.14 26.83 60.61 26.82 60.57 5.54 3.36 4.71 1.14"/>
          <polygon class="cls-3" points="39.08 56.05 40.49 55.53 40.42 55.35 21.96 5.7 21.17 3.58 19.48 3.33 20.27 5.46 39.02 55.89 39.08 56.05"/>
          <polygon class="cls-3" points="45.92 53.52 47.32 52.99 47.23 52.75 30.17 6.87 29.4 4.8 27.7 4.55 28.48 6.62 45.83 53.28 45.92 53.52"/>
          <polygon class="cls-3" points="37.63 6.02 35.93 5.77 36.68 7.79 52.5 50.32 53.8 49.51 38.37 8.03 37.63 6.02"/>
          <polygon class="cls-3" points="23.6 65.53 34.93 61.32 78.56 45.09 76.87 44.12 41.24 57.37 23.04 64.14 17.37 66.25 18.9 67.28 23.6 65.53"/>
          <polygon class="cls-3" points="81.97 49.99 24.8 71.26 26.33 72.29 82.5 51.4 81.97 49.99"/>
          <polygon class="cls-3" points="32.23 76.27 33.76 77.3 85.03 58.23 84.51 56.82 32.23 76.27"/>
          <polygon class="cls-3" points="42.48 8.62 42.72 8.69 54.71 12.27 52.45 10.04 52.44 10.03 50.31 9.39 42.46 7.6 40.56 7.16 40.95 8.16 42.48 8.62"/>
          <polygon class="cls-3" points="76.19 17.13 73.16 17.79 87.7 22.14 87.34 20.46 76.19 17.13"/>
          <polygon class="cls-3" points="90.87 36.73 46.9 23.58 47.58 25.35 91.23 38.4 90.87 36.73"/>
          <polygon class="cls-3" points="44.71 16.89 89.47 30.27 89.1 28.6 44.3 15.2 43.58 14.99 44.26 16.76 44.71 16.89"/>
          <polygon class="cls-3" points="64.57 36.47 50.22 32.18 50.9 33.95 69.68 39.57 92.99 46.53 92.63 44.86 64.57 36.47"/>
          <polygon class="cls-3" points="63.15 43.65 53.53 40.78 54.22 42.55 61.46 44.71 64.86 45.73 67.02 45.17 67.66 45 67.55 44.97 63.15 43.65"/>
          <polygon class="cls-3" points="8.52 -10.03 7.45 -8.69 9.74 -8.3 66.77 1.34 66.87 1.36 67.12 -.12 67.01 -.14 10.79 -9.64 8.52 -10.03"/>
          <polygon class="cls-3" points="65.66 8.55 65.91 7.07 65.86 7.06 5.68 -3.12 3.34 -3.51 2.28 -2.17 4.62 -1.77 65.62 8.54 65.66 8.55"/>
          <polygon class="cls-3" points="70.3 -7.02 67.06 12.12 66.06 18.08 67.71 17.27 68.55 12.33 70.57 .4 78.33 -45.49 76.64 -44.52 70.3 -7.02"/>
          <polygon class="cls-3" points="84.28 -45.99 74.11 14.15 75.77 13.34 85.76 -45.74 84.28 -45.99"/>
          <polygon class="cls-3" points="83.82 9.41 92.94 -44.53 91.46 -44.78 82.16 10.22 83.82 9.41"/>
          <polygon class="cls-3" points="90.35 13.6 95.38 -16.17 93.9 -16.42 88.87 13.35 90.35 13.6"/>
          <polygon class="cls-3" points="32.53 84.09 33.06 85.5 60.59 75.26 60.07 73.85 32.53 84.09"/>
        </g>
      </g>
    </pattern>
  </defs>
  <rect class="cls-1" width="500" height="500"/>
</svg>