<?xml version="1.0" encoding="UTF-8"?>
<svg id="Layer_2" data-name="Layer 2" xmlns="http://www.w3.org/2000/svg" viewBox="0 0 341.35 114.9">
  <defs>
    <style>
      .cls-1 {
        <!-- fill: #06741f; -->
        fill:black;
        stroke: #000;
        stroke-miterlimit: 10;
        opacity: .2;
      }
    </style>
  </defs>
  <g id="Layer_2-2" data-name="Layer 2">
    <path class="cls-1" d="M.72,13.21S79.76-.17,156.62.53c62.54.56,123.21,13.24,142.24,27.32,0,0-76.83-11.7-147.6-9.76-61.95,1.7-117.59,15.96-135.06,29.43L.72,13.21Z"/>
    <path class="cls-1" d="M286.01,33.21l54.71,6.74c.19.02.18.3-.01.31l-52.1,2.91-2.6-9.96Z"/>
    <polygon class="cls-1" points="237.25 31.38 278.27 32.34 280.89 45.01 241.82 47.75 237.25 31.38"/>
    <polygon class="cls-1" points="179.22 32.87 231.59 31.25 234.49 45.14 181.55 54.15 177.8 32.84 179.22 32.87"/>
    <polygon class="cls-1" points="112.2 41.13 167.21 31.89 172.63 53.49 120.73 68.01 112.2 41.13"/>
    <polygon class="cls-1" points="28.5 66.19 53.07 91.91 109.78 68.76 100.47 43.09 28.5 66.19"/>
    <path class="cls-1" d="M82.3,104.71s22.69,18.4,63.33,4.48c0,0,118.71-56.68,177.06-56.4,0,0-77.63-5.99-130.24,12.76s-110.15,39.16-110.15,39.16Z"/>
  </g>
</svg>