<?xml version="1.0" encoding="UTF-8"?>
<svg xmlns="http://www.w3.org/2000/svg" xmlns:xlink="http://www.w3.org/1999/xlink" version="1.1" viewBox="0 0 1920 1080">
  <defs>
    <style>
      .cls-1 {
        stroke-width: 0px;
      }

      .cls-1, .cls-2 {
        fill: none;
      }

      .cls-3 {
        fill: url(#New_Pattern);
        stroke: url(#New_Pattern);
      }

      .cls-3, .cls-2 {
        stroke-miterlimit: 10;
      }

      .cls-2 {
        stroke: #000;
      }

      .cls-4 {
        display: none;
      }
    </style>
    <pattern id="New_Pattern" data-name="New Pattern" x="0" y="0" width="133.31" height="102.5" patternUnits="userSpaceOnUse" viewBox="0 0 133.31 102.5">
      <g>
        <rect class="cls-1" width="133.31" height="102.5"/>
        <path class="cls-2" d="M28.82,89.87s-9-4.61-7.91-24.14c0,0,2.22-30.53,28.84-42.58,26.62-12.05,51.16,3.89,51.16,3.89,0,0,13.17,9.23,17.51,24.08,0,0,2.43,5.51-10.41,8.11-12.83,2.61-74.26,28.63-77.49,30.5,0,0-1.12.57-1.7.13Z"/>
        <path class="cls-2" d="M29.51,90.07l-4.18,1.91s-8.78-1.61-9.11-23.24l.11-.53,4.32.98"/>
        <path class="cls-2" d="M16.36,68.19s-5.71-1.39-5.85-3.69,2.89-2.82,3.29-3.51.83-1.66-1.26-3.2-2.11-3.68-2.02-4.12-.07-2.93,7.71-5.04c0,0,2.4-1.08-.15-5.19-1.73-2.79.25-5.21.9-5.6s3.55-1.93,7.65-.04c2.37,1.09,2.69-1.67,3.29-4.65.44-2.19,1.32-4.5,2.08-4.99.54-.35,2.89-1.54,4.75-.92,0,0,.88,3.29.55,3.82s-4.03,1.04-4.92,1.52-.33,3.63,0,3.77"/>
        <path class="cls-2" d="M36.67,27.01s-.2-3.95,3.7-4.28c0,0,1.21-.34,6.66.48.5.08,1.68-2.54,2.87-5.7,0,0,.93-2.11,2.32-2.66.93-.37,4.09-.39,7.07,3.28,0,0,1.06,1.33,3.68-.23,0,0,1.54-.87,3.45-3.91,0,0,1.48-2.06,2.62-1.56,1.49.65,5.74,2.3,6.27,6.41"/>
        <path class="cls-2" d="M70.31,13.02s1.97-1.18,2.88-.59c0,0,2.8,1.92,5.09,3.61.4.29.85.51,1.33.63.78.2,1.95.11,2.44-.18,1.14-.67,2.84-3.49,3.5-4.46.87-1.3,5.05-4.27,8.06,4.78,0,0,.47,1.35,2.48,1.18,1.3-.11,4.68-1.83,4.68-1.83,0,0,2.06-1.28,4.46.9.33.3.54.7.61,1.14l.46,3.08c.07.49.2.96.38,1.42l.42,1.06c.08.2.29.33.5.31.34-.03.86-.08,1.38-.14.47-.05.95,0,1.4.13.6.18,1.43.52,2.1,1.08.88.74.48,3.44-.44,3.67-.98.25-4.17,1.37-5.22,1.1-.9-.23-.88-.59-2.91-5.45-.76-1.83-2.76-2.87-4.68-2.37-1.02.27-2.17.93-3.34,2.29"/>
        <path class="cls-2" d="M112.03,28.81s3.6.6,4.52,1.59.7,4.45.61,6.35c-.14,2.74,3.14.58,5.01,2.48.67.68,2.29,3-4.87,8.63"/>
      </g>
    </pattern>
  </defs>
  <g id="Work" class="cls-4">
    <path class="cls-2" d="M25.55,88.96s-9-4.61-7.91-24.14c0,0,2.22-30.53,28.84-42.58,26.62-12.05,51.16,3.89,51.16,3.89,0,0,13.17,9.23,17.51,24.08,0,0,2.43,5.51-10.41,8.11-12.83,2.61-74.26,28.63-77.49,30.5,0,0-1.12.57-1.7.13Z"/>
    <path class="cls-2" d="M26.24,89.17l-4.18,1.91s-8.78-1.61-9.11-23.24l.11-.53,4.32.98"/>
    <path class="cls-2" d="M13.09,67.28s-5.71-1.39-5.85-3.69,2.89-2.82,3.29-3.51.83-1.66-1.26-3.2-2.11-3.68-2.02-4.12-.07-2.93,7.71-5.04c0,0,2.4-1.08-.15-5.19-1.73-2.79.25-5.21.9-5.6s3.55-1.93,7.65-.04c2.37,1.09,2.69-1.67,3.29-4.65.44-2.19,1.32-4.5,2.08-4.99.54-.35,2.89-1.54,4.75-.92,0,0,.88,3.29.55,3.82s-4.03,1.04-4.92,1.52-.33,3.63,0,3.77"/>
    <path class="cls-2" d="M33.4,26.1s-.2-3.95,3.7-4.28c0,0,1.21-.34,6.66.48.5.08,1.68-2.54,2.87-5.7,0,0,.93-2.11,2.32-2.66.93-.37,4.09-.39,7.07,3.28,0,0,1.06,1.33,3.68-.23,0,0,1.54-.87,3.45-3.91,0,0,1.48-2.06,2.62-1.56,1.49.65,5.74,2.3,6.27,6.41"/>
    <path class="cls-2" d="M67.04,12.11s1.97-1.18,2.88-.59c0,0,2.8,1.92,5.09,3.61.4.29.85.51,1.33.63.78.2,1.95.11,2.44-.18,1.14-.67,2.84-3.49,3.5-4.46.87-1.3,5.05-4.27,8.06,4.78,0,0,.47,1.35,2.48,1.18,1.3-.11,4.68-1.83,4.68-1.83,0,0,2.06-1.28,4.46.9.33.3.54.7.61,1.14l.46,3.08c.07.49.2.96.38,1.42l.42,1.06c.08.2.29.33.5.31.34-.03.86-.08,1.38-.14.47-.05.95,0,1.4.13.6.18,1.43.52,2.1,1.08.88.74.48,3.44-.44,3.67-.98.25-4.17,1.37-5.22,1.1-.9-.23-.88-.59-2.91-5.45-.76-1.83-2.76-2.87-4.68-2.37-1.02.27-2.17.93-3.34,2.29"/>
    <path class="cls-2" d="M108.76,27.91s3.6.6,4.52,1.59.7,4.45.61,6.35c-.14,2.74,3.14.58,5.01,2.48.67.68,2.29,3-4.87,8.63"/>
  </g>
  <g id="Layer_3" data-name="Layer 3">
    <rect class="cls-3" x="-.5" y=".5" width="1920" height="1079"/>
  </g>
</svg>